<svg xmlns="http://www.w3.org/2000/svg" id="Layer_1" data-name="Layer 1" viewBox="0 0 841.89 235.92"><defs><style>.cls-1{fill:#fff;}</style></defs><title>AirOTours logo final vector file</title><path class="cls-1" d="M681.31,53.28l.11,0C664.7,58.7,648,64.15,632,70.76c-5.58,2.31-11.15,4.82-15.31,8.43-1.77,1.53-3.24,3.89-1.51,5.44a7.2,7.2,0,0,0,3.67,1.29,88.29,88.29,0,0,0,20.68.7c-7.14,1.11-14.53,2-21.69.92-2.37-.35-4.81-1-6.42-2.32-7.18-6,11.23-14.12,16.52-16.31A261.4,261.4,0,0,1,681.31,53.28Z"></path><path class="cls-1" d="M647.74,201c0,.41,0,.79,0,1.18q13.25-1.68,26.34-4V190q-6.35,1.25-12.78,2.33-6.78,1.13-13.59,2Z"></path><path class="cls-1" d="M694.26,194.19a333.72,333.72,0,0,0,56.46-17.29l-.72-.51a37,37,0,0,1-7.59-7.32,294.73,294.73,0,0,1-48.15,16.43Z"></path><path class="cls-1" d="M626.21,196.79c-8.71.8-17.46,1.41-26.22,1.9a54.13,54.13,0,0,0,.57,6.95c0,.19.07.37.1.55,3.55-.16,7.11-.35,10.66-.57s7.4-.51,11.09-.81a26.42,26.42,0,0,0,2.64-4.79A28.77,28.77,0,0,0,626.21,196.79Z"></path><path class="cls-1" d="M581,206.71a50.18,50.18,0,0,1-1-7.14q-10,.33-20,.31a36,36,0,0,1-1.56,3.5c-.59,1.15-1.23,2.24-1.89,3.29,8.16.23,16.31.25,24.46.13A.29.29,0,0,0,581,206.71Z"></path><path class="cls-1" d="M431.92,182.63c4.73,3.7,10.43,6.3,16.5,8.43v-5.67a51.42,51.42,0,0,1-10.19-5.12c-5-3.35-6.06-7.47-3.09-12,2.23-3.38,5.7-6,9.64-8.25.72-.42,1.77-.64,2-1.51-6.69.95-16.06,6.28-19,10.72a7.74,7.74,0,0,0-.29,8.55A16.43,16.43,0,0,0,431.92,182.63Z"></path><path class="cls-1" d="M508.82,197.36a35.06,35.06,0,0,0,2,6.13c8.79,1,17.65,1.74,26.53,2.3a28.37,28.37,0,0,0,2.58-6.29Q524.33,198.92,508.82,197.36Z"></path><path class="cls-1" d="M472.25,192v5.46q6.83,1.42,13.79,2.51l3.5.54a45.26,45.26,0,0,1-1.91-5.83C482.46,193.93,477.33,193.06,472.25,192Z"></path><path class="cls-1" d="M779.46,147.85a154.71,154.71,0,0,1-17.75,11.53l-.19.11q1.31,1,2.82,2l8,5.14q5.92-3.24,11.44-6.83a49,49,0,0,0-2.68-8.77A21.88,21.88,0,0,0,779.46,147.85Z"></path><path class="cls-1" d="M805.09,83.12c-10.26-4.6-21.68-5.94-33.41-6.09-16.88-.21-33.46,1.9-50,4-22.46,2.81-44.86,5.91-67.28,8.92-10.48,1.4-21,2.44-31.66,1.91-5.45-.27-10.82-.92-15.64-3-4.39-1.89-5.43-4.52-3.32-8a19.76,19.76,0,0,1,5.31-5.5c9.52-7,20.67-12.15,33-15.87,13.56-4.1,27.31-7.85,41-11.75,3.41-1,6.83-1.91,10.8-3L682.72,73.29,696.06,68l6-9.43c1.58-.72,3.3-.38,4.38-1.25,1-1.54-.79-1.83-2-2.3.68-2.07,4.7-.47,4.94-2.58,0-1.17-1.43-1.22-2.18-1.94,2.43-3.77,4.89-7.58,7.33-11.39a2.91,2.91,0,0,1,1.63-1.06c8.19-2.7,16.57-5.07,24.61-8,3.89-1.44,7-3.38,8.45-6.42a2.23,2.23,0,0,0-1.4-1.14c-6.51-2.54-13.08-3.38-20-.75-6.37,2.41-12.89,4.6-19.38,6.89l-14.17-4.42c.26-1,1.26-1.75,0-2.56-2.08-1.06-3.82,2-6.08.45.42-.67,1.41-.85,1.56-1.53s-.33-1.28-1.59-1.54l-4.83,1.78-22.93-8-14.83,2.1c5.78,3,11.61,5.84,17.39,8.85h0l22.61,11.47L639.08,51.11l-10.51-3.45-3.48,1.52,8.36,6.55c-.93,1.31-19.72,9.48-27,14.63C603,72.78,600,75.42,598,78.65c-3.64,5.91-1.5,11.18,5.87,14.62a34.35,34.35,0,0,0,8.9,2.63C625.34,98,638,97.26,650.5,95.66c24-3.07,47.93-6.35,71.9-9.52,12.5-1.65,25.06-2.84,37.8-2.41a91.64,91.64,0,0,1,25,3.83c14.65,4.71,21.84,13.38,20.39,25.09-.84,6.83-4.34,13.06-9.06,18.91-.73.92-1.5,1.81-2.28,2.7,0,.09,0,.19,0,.28-.21,3-.37,6.46-.47,10.43-.06,2.18-.1,4.78-.13,7.76a123.92,123.92,0,0,0,12.65-11.26c9.07-9.32,15.9-19.41,17-31.12S818.84,89.29,805.09,83.12Z"></path><path class="cls-1" d="M82.2,82.58l47.16,121.56q2.89,7.35,6.57,9.76a14.09,14.09,0,0,0,6.76,2.61v3.87c-2.58-.26-5.73-.42-9.47-.49s-7.47-.09-11.2-.09q-7.55,0-14.12.09c-4.37.07-7.92.23-10.63.49v-3.87c6.58-.26,10.76-1.38,12.57-3.38s1.41-6.28-1.16-12.85l-35.95-96,3.1-2.51L42.19,189.07a51.25,51.25,0,0,0-3.66,13.05q-.59,5.31,1.06,8.4a9.39,9.39,0,0,0,5.6,4.44,34.46,34.46,0,0,0,10,1.55v3.87q-5.41-.39-11.31-.49c-3.94-.06-7.57-.09-10.92-.09s-6,0-8.21.09a61.88,61.88,0,0,0-6.29.49v-3.87A19.29,19.29,0,0,0,26.35,212q4-3.57,7.35-12.27L79.11,82.58H82.2Zm23.58,82.14v3.86H48.19l1.93-3.86Z"></path><path class="cls-1" d="M177.49,136.88v68.73c0,4.45.92,7.47,2.78,9s4.94,2.39,9.28,2.39v3.33q-2.7-.16-8.17-.4t-11-.24c-3.59,0-7.25.08-11,.24s-6.46.29-8.25.4v-3.33c4.33,0,7.43-.8,9.28-2.39s2.78-4.6,2.78-9V155.93q0-7.16-2.54-10.56T151.14,142v-3.33q5.07.48,9.84.48a67.39,67.39,0,0,0,8.81-.56A44.92,44.92,0,0,0,177.49,136.88Zm-8.26-37.95a10.31,10.31,0,1,1-7.14,3A9.79,9.79,0,0,1,169.23,98.93Z"></path><path class="cls-1" d="M247,136.4a15.63,15.63,0,0,1,7.54,1.75,13.64,13.64,0,0,1,5.08,4.52,11.21,11.21,0,0,1,1.83,6.27,10.69,10.69,0,0,1-2.47,7,8,8,0,0,1-6.58,3,8.84,8.84,0,0,1-5.88-2.14,7.57,7.57,0,0,1-2.54-6.11,8.17,8.17,0,0,1,1.67-5.16,14.1,14.1,0,0,1,3.73-3.42,3.81,3.81,0,0,0-3.33-1.58,15.32,15.32,0,0,0-9,2.93,25.79,25.79,0,0,0-7,7.54,41.62,41.62,0,0,0-4.45,9.77,32.73,32.73,0,0,0-1.59,9.6V204q0,7.77,4.53,10.4t12.3,2.62v3.33q-3.66-.16-10.32-.4c-4.44-.16-9.16-.24-14.13-.24q-5.4,0-10.72.24t-8,.4v-3.33c4.34,0,7.43-.8,9.29-2.39s2.77-4.6,2.77-9V155.93q0-7.16-2.54-10.56T197.65,142v-3.33c3.38.32,6.67.48,9.84.48a67.27,67.27,0,0,0,8.81-.56,44.71,44.71,0,0,0,7.7-1.66v19.84a43,43,0,0,1,5-9.29,30.91,30.91,0,0,1,7.86-7.86A17.54,17.54,0,0,1,247,136.4Z"></path><path class="cls-1" d="M336,80.84q18.36,0,32.18,8.31A55.77,55.77,0,0,1,389.61,113q7.63,15.55,7.63,37.78,0,21.64-7.83,37.88A61.12,61.12,0,0,1,367.67,214q-13.91,9.09-31.88,9.08-18.37,0-32.18-8.31a55.49,55.49,0,0,1-21.45-24q-7.64-15.66-7.64-37.69,0-21.65,7.92-37.88t21.75-25.31Q318,80.84,336,80.84Zm-.78,3.48A30.86,30.86,0,0,0,313.37,93q-9.28,8.7-14.4,24t-5.12,35.37q0,20.47,5.7,35.65T315,211.39q9.76,8.22,21.55,8.21a30.93,30.93,0,0,0,21.84-8.69q9.27-8.7,14.4-24.06t5.12-35.27q0-20.69-5.7-35.76T356.85,92.53A32.61,32.61,0,0,0,335.2,84.32Z"></path><path class="cls-1" d="M514.74,83.55q-.78,7.33-1.06,14.2t-.29,10.53q0,4.65.19,8.7t.39,7.15h-4.45a120.12,120.12,0,0,0-3.67-21.35q-2.31-7.83-8.11-11.31t-18-3.48H469.32V198q0,7.72,1.45,11.59a8.44,8.44,0,0,0,5.7,5.22,51,51,0,0,0,12.38,1.74v3.87q-5-.39-12.76-.49t-15.65-.09q-8.7,0-16.34.09c-5.09.07-9.17.23-12.27.49v-3.87a51,51,0,0,0,12.37-1.74,8.42,8.42,0,0,0,5.7-5.22q1.46-3.86,1.45-11.59V88H440.91q-12,0-17.87,3.48t-8.21,11.31a120,120,0,0,0-3.68,21.35h-4.44c.25-2.06.42-4.44.48-7.15s.1-5.6.1-8.7q0-3.66-.29-10.53t-1.06-14.2q8.12.2,17.68.38t19.23.2h35.07q9.57,0,19.23-.2T514.74,83.55Z"></path><path class="cls-1" d="M524.64,134.18a37.36,37.36,0,0,1,18.26,4.44q8.08,4.45,12.94,14t4.84,24.77q0,15.24-4.84,24.68a31.82,31.82,0,0,1-12.94,13.89,39.5,39.5,0,0,1-36.43,0,31.59,31.59,0,0,1-13-13.89q-4.84-9.43-4.84-24.68t4.84-24.77q4.85-9.53,13-14A37.43,37.43,0,0,1,524.64,134.18Zm0,3.17q-9,0-14.84,9.37T504,177.36q0,21.27,5.8,30.55t14.84,9.29q9,0,14.84-9.29t5.8-30.55q0-21.27-5.8-30.64T524.64,137.35Z"></path><path class="cls-1" d="M644.82,134.65V201q0,7.14,2.61,10.56t9.45,3.41v3.33q-4.92-.47-9.84-.47a80.12,80.12,0,0,0-8.81.47,33.31,33.31,0,0,0-7.7,1.75V201.33q-4,10.32-11.2,14.68a28.34,28.34,0,0,1-14.84,4.37,26.87,26.87,0,0,1-9.68-1.59,18.13,18.13,0,0,1-6.83-4.45,16.8,16.8,0,0,1-4.12-8.25,59.22,59.22,0,0,1-1.12-12.54V153.7q0-7.14-2.54-10.55t-9.52-3.42V136.4c3.38.32,6.67.48,9.84.48a67.39,67.39,0,0,0,8.81-.56,44.89,44.89,0,0,0,7.7-1.67V197a58.83,58.83,0,0,0,.64,9.05,11.63,11.63,0,0,0,3.17,6.67c1.69,1.69,4.45,2.54,8.26,2.54a17.37,17.37,0,0,0,11-3.81,25.55,25.55,0,0,0,7.62-10.32,36.91,36.91,0,0,0,2.78-14.61V153.7q0-7.14-2.54-10.55t-9.53-3.42V136.4q5.09.48,9.84.48a67.54,67.54,0,0,0,8.82-.56A45.1,45.1,0,0,0,644.82,134.65Z"></path><path class="cls-1" d="M714.35,134.18a15.73,15.73,0,0,1,7.53,1.74,13.67,13.67,0,0,1,5.08,4.53,11.13,11.13,0,0,1,1.83,6.27,10.69,10.69,0,0,1-2.46,7,8,8,0,0,1-6.59,3,8.82,8.82,0,0,1-5.87-2.14,7.54,7.54,0,0,1-2.54-6.11A8.19,8.19,0,0,1,713,143.3a14.38,14.38,0,0,1,3.73-3.41,3.79,3.79,0,0,0-3.33-1.59,15.28,15.28,0,0,0-9,2.94,25.79,25.79,0,0,0-7,7.54,41.62,41.62,0,0,0-4.45,9.77,32.65,32.65,0,0,0-1.58,9.6V201.8q0,7.78,4.52,10.4t12.3,2.62v3.34q-3.64-.16-10.32-.4t-14.12-.24c-3.6,0-7.18.08-10.72.24s-6.22.29-8,.4v-3.34q6.51,0,9.29-2.38c1.85-1.59,2.78-4.6,2.78-9.05V153.7q0-7.14-2.54-10.55T665,139.73V136.4q5.09.48,9.85.48a67.39,67.39,0,0,0,8.81-.56,44.89,44.89,0,0,0,7.7-1.67V154.5a43,43,0,0,1,5-9.29,30.71,30.71,0,0,1,7.85-7.86A17.57,17.57,0,0,1,714.35,134.18Z"></path><path class="cls-1" d="M764,134.18a25.43,25.43,0,0,1,10.79,2.06,30.12,30.12,0,0,1,6.51,3.81q5.25,4.29,6.35-5.71h3.65q-.32,4.44-.47,10.55t-.16,16.43h-3.65a51.31,51.31,0,0,0-3.25-11.43,22.63,22.63,0,0,0-6.75-9.12q-4.45-3.59-11.59-3.58a14,14,0,0,0-9.29,3.1q-3.74,3.09-3.73,9.13a12.28,12.28,0,0,0,2.86,8.17,32.24,32.24,0,0,0,7.46,6.35q4.61,2.94,10,6.43a119.44,119.44,0,0,1,11,7.78,35,35,0,0,1,7.85,8.73,21,21,0,0,1,2.94,11.27,19.38,19.38,0,0,1-3.81,12.23,23.85,23.85,0,0,1-9.92,7.46,34.72,34.72,0,0,1-13.42,2.54,37.17,37.17,0,0,1-6.58-.56,32,32,0,0,1-6-1.66,30.42,30.42,0,0,1-3.25-1.91c-1.11-.74-2.2-1.53-3.26-2.38a1.87,1.87,0,0,0-2.85.08q-1.28,1.35-1.91,5.32H739.9q.32-5.09.48-12.38t.15-19.37h3.66a91.77,91.77,0,0,0,3.17,15.55,21.44,21.44,0,0,0,6.51,10.4q4.44,3.74,12.38,3.73a15.94,15.94,0,0,0,6.43-1.43,12.7,12.7,0,0,0,5.48-4.76,15.79,15.79,0,0,0,2.22-8.89,14.5,14.5,0,0,0-5.08-11.43,104.86,104.86,0,0,0-12.86-9.36q-5.72-3.66-10.71-7.31a33,33,0,0,1-8.1-8.25,19.47,19.47,0,0,1-3.1-11.11q0-7.16,3.26-11.67a19,19,0,0,1,8.65-6.67A31.09,31.09,0,0,1,764,134.18Z"></path></svg>