<svg xmlns="http://www.w3.org/2000/svg" id="Layer_1" data-name="Layer 1" viewBox="0 0 1010.39 536.26"><defs><style>.cls-1{fill:#fff;}</style></defs><title>Christine</title><polygon class="cls-1" points="780.55 525.53 224.78 525.53 293 400.15 295.11 400.15 228.02 523.54 777.31 523.54 710.22 400.15 712.34 400.15 780.55 525.53"></polygon><polygon class="cls-1" points="612.89 216.97 610.65 216.97 502.61 18.19 394.56 216.97 392.45 216.97 502.61 14.22 612.89 216.97"></polygon><polygon class="cls-1" points="615.41 218.47 609.75 218.47 609.33 217.69 502.61 21.33 395.46 218.47 389.93 218.47 502.61 11.08 615.41 218.47"></polygon><path class="cls-1" d="M502.73,10.26,390.33,217.11h4.36l108-198.92,108,198.92H615ZM714.58,400.15h-4.36l67.09,123.52H228l67.09-123.52h-4.23L221.55,527.64H783.79Z"></path><path class="cls-1" d="M786.31,529.14H219l71-130.49h7.64L230.54,522.17H774.79L707.7,398.65h7.77Zm-562.24-3h557.2L713.69,401.65h-.94l67.08,123.52H225.5l67.09-123.52h-.82ZM617.52,218.61h-7.64L502.73,21.33,395.58,218.61h-7.77L502.73,7.11l1.32,2.43Zm-5.86-3h.82L502.73,13.4,392.85,215.61h.95L502.73,15.05Z"></path><path class="cls-1" d="M656.49,258.89a10.77,10.77,0,0,0,2-3.2,7.76,7.76,0,0,0-.7-7.36c-1.33-1.79-5.66-1.89-4.16,1.1.36.72,1,1.27,1.33,2a3.74,3.74,0,0,1-.1,2.75,6.79,6.79,0,0,1-2.4,3.14,17.87,17.87,0,0,0-2.38,1.63,2.24,2.24,0,0,0-.61,2.6,2,2,0,0,0,2,.83,4.91,4.91,0,0,0,2.07-.93A16.06,16.06,0,0,0,656.49,258.89Z"></path><path class="cls-1" d="M651.17,262.91a2.44,2.44,0,0,1-2.13-1.09,2.73,2.73,0,0,1,.69-3.22,8,8,0,0,1,1.58-1.13c.29-.18.58-.35.86-.55a6.36,6.36,0,0,0,2.22-2.9,3.27,3.27,0,0,0,.11-2.38,4.39,4.39,0,0,0-.64-1,6.7,6.7,0,0,1-.68-1c-.85-1.71,0-2.48.42-2.73a3.93,3.93,0,0,1,4.59,1.11,8.19,8.19,0,0,1,.77,7.84,11.4,11.4,0,0,1-2.09,3.35h0a16.23,16.23,0,0,1-3,2.65,5.35,5.35,0,0,1-2.28,1A2.31,2.31,0,0,1,651.17,262.91ZM655,247.57a1.72,1.72,0,0,0-.87.2c-.39.24-.4.72,0,1.43a4.48,4.48,0,0,0,.58.86,6.12,6.12,0,0,1,.76,1.18,4.27,4.27,0,0,1-.09,3.13,7.41,7.41,0,0,1-2.58,3.37c-.3.21-.61.4-.93.59a8,8,0,0,0-1.39,1,1.79,1.79,0,0,0-.53,2,1.53,1.53,0,0,0,1.5.58,4.39,4.39,0,0,0,1.85-.85,15.31,15.31,0,0,0,2.87-2.48h0A10.53,10.53,0,0,0,658,255.5a7.28,7.28,0,0,0-.64-6.87A3.16,3.16,0,0,0,655,247.57Z"></path><path class="cls-1" d="M936.46,258.89a11,11,0,0,0,2-3.2,7.73,7.73,0,0,0-.71-7.36c-1.32-1.79-5.65-1.89-4.16,1.1.37.72,1,1.27,1.33,2a3.74,3.74,0,0,1-.09,2.75,6.81,6.81,0,0,1-2.41,3.14,17.76,17.76,0,0,0-2.37,1.63,2.23,2.23,0,0,0-.61,2.6,2,2,0,0,0,2,.83,4.93,4.93,0,0,0,2.06-.93A16.12,16.12,0,0,0,936.46,258.89Z"></path><path class="cls-1" d="M931.12,262.91a2.42,2.42,0,0,1-2.11-1.09,2.73,2.73,0,0,1,.69-3.22,7.7,7.7,0,0,1,1.57-1.13c.3-.18.59-.35.86-.55a6.31,6.31,0,0,0,2.23-2.9,3.28,3.28,0,0,0,.1-2.38,4.34,4.34,0,0,0-.63-1,6.7,6.7,0,0,1-.68-1c-.86-1.71,0-2.48.41-2.73a4,4,0,0,1,4.6,1.11,8.19,8.19,0,0,1,.76,7.84,11.19,11.19,0,0,1-2.09,3.35h0a16.23,16.23,0,0,1-3.05,2.65,5.24,5.24,0,0,1-2.28,1A2.43,2.43,0,0,1,931.12,262.91ZM935,247.57a1.68,1.68,0,0,0-.86.2c-.39.24-.41.72-.05,1.43a5.65,5.65,0,0,0,.58.86,5.3,5.3,0,0,1,.76,1.18,4.28,4.28,0,0,1-.08,3.13,7.36,7.36,0,0,1-2.59,3.37c-.29.21-.61.4-.92.59a7.65,7.65,0,0,0-1.39,1,1.78,1.78,0,0,0-.53,2,1.53,1.53,0,0,0,1.5.58,4.39,4.39,0,0,0,1.85-.85,14.88,14.88,0,0,0,2.86-2.48h0A10.57,10.57,0,0,0,938,255.5a7.28,7.28,0,0,0-.65-6.87A3.16,3.16,0,0,0,935,247.57Z"></path><path class="cls-1" d="M869.66,277.88a1.67,1.67,0,0,1,1.31.6,2,2,0,0,1,.5,1.44,1.87,1.87,0,0,1-.6,1.36,26.26,26.26,0,0,1-8.26,5.78,24.61,24.61,0,0,1-9.21,2.16,37.79,37.79,0,0,1-9.11-.8,42.73,42.73,0,0,1-8.79-2.91,2.45,2.45,0,0,0-2.13.08,2.7,2.7,0,0,0-1.43,1.74,19,19,0,0,1-1.92,4.84,10.56,10.56,0,0,1-3.63,4.15,9.4,9.4,0,0,1-5.12,1.67,12,12,0,0,1-1.92-.15l-.71-.31q-6-3.46-3.7-18.67a109.63,109.63,0,0,1,4.91-18.94,108,108,0,0,1,8.29-18.67q4.65-8.13,8.29-8.74a3.84,3.84,0,0,1,2.88.23,4.2,4.2,0,0,1,2,2.12q1.35,3-1.07,10.28A88.89,88.89,0,0,1,833.65,260q-4.2,7.59-8.54,14.13a58.47,58.47,0,0,1-6.76,8.89l-.14.15a28.45,28.45,0,0,0,.07,6.65,4,4,0,0,0,2.53,3.4,3.68,3.68,0,0,0,4-.6,9.92,9.92,0,0,0,2.06-2.57,15.94,15.94,0,0,0,1.85-5.52,3.7,3.7,0,0,0-1.63-3.78c-.72-.5-1.38-1-2-1.51a1.94,1.94,0,0,1-.71-1.86,1.76,1.76,0,0,1,1.21-1.55,4.3,4.3,0,0,1,2.95-.3,4.46,4.46,0,0,1,2.53,1.67,7.2,7.2,0,0,1,1.07,2.19,42.84,42.84,0,0,0,8.57,4,40.78,40.78,0,0,0,9.32,1.89,22.9,22.9,0,0,0,9.68-1.29,22.14,22.14,0,0,0,8.57-5.56A1.93,1.93,0,0,1,869.66,277.88ZM837,236.44c-1.24.21-2.93,2.11-5.09,5.71a99.66,99.66,0,0,0-6.69,14.07,116.66,116.66,0,0,0-5.37,17,.57.57,0,0,0,.32.75.52.52,0,0,0,.75-.22,169.8,169.8,0,0,0,9.53-15.8,102.25,102.25,0,0,0,5.3-11.23,40.79,40.79,0,0,0,2.24-7.07,6.11,6.11,0,0,0,0-3c0-.16-.21-.23-.5-.23A1.75,1.75,0,0,0,837,236.44Z"></path><path class="cls-1" d="M821.28,298.49a13,13,0,0,1-2-.16l-.12,0-.71-.31c-4.26-2.44-5.59-8.9-4-19.21a112.42,112.42,0,0,1,4.93-19A110.19,110.19,0,0,1,827.7,241c3.22-5.61,6-8.55,8.64-9a4.28,4.28,0,0,1,3.19.27,4.68,4.68,0,0,1,2.26,2.36c1,2.16.62,5.64-1,10.65a89.81,89.81,0,0,1-6.65,14.94c-2.8,5.06-5.68,9.83-8.56,14.17-.38.57-.74,1.11-1.1,1.63a2.35,2.35,0,0,1,1-.68,4.74,4.74,0,0,1,3.24-.31,5,5,0,0,1,2.81,1.84,7.76,7.76,0,0,1,1.09,2.17,41.49,41.49,0,0,0,8.31,3.82,39.74,39.74,0,0,0,9.2,1.87,22.39,22.39,0,0,0,9.47-1.26,21.91,21.91,0,0,0,8.39-5.43,2.35,2.35,0,0,1,3.4.09,2.46,2.46,0,0,1,.62,1.79,2.39,2.39,0,0,1-.76,1.7,26.93,26.93,0,0,1-8.4,5.88,25.37,25.37,0,0,1-9.4,2.2,38.2,38.2,0,0,1-9.22-.81A43.09,43.09,0,0,1,835.3,286a1.94,1.94,0,0,0-1.71.07,2.2,2.2,0,0,0-1.17,1.43,20,20,0,0,1-2,4.94,11.24,11.24,0,0,1-3.79,4.33,10,10,0,0,1-5.38,1.75Zm-1.79-1.14a11.46,11.46,0,0,0,1.78.14,9,9,0,0,0,4.84-1.58,10.33,10.33,0,0,0,3.47-4,18.76,18.76,0,0,0,1.88-4.73,3.23,3.23,0,0,1,1.68-2.07,3,3,0,0,1,2.56-.09,42.17,42.17,0,0,0,8.69,2.88,37.31,37.31,0,0,0,9,.79,24.24,24.24,0,0,0,9-2.12,26,26,0,0,0,8.1-5.67,1.41,1.41,0,0,0,.46-1,1.47,1.47,0,0,0-.37-1.09,1.35,1.35,0,0,0-2,0,22.69,22.69,0,0,1-8.74,5.66,23.43,23.43,0,0,1-9.89,1.32,41.3,41.3,0,0,1-9.44-1.92,43.25,43.25,0,0,1-8.67-4l-.17-.1-.05-.19a6.78,6.78,0,0,0-1-2,3.92,3.92,0,0,0-2.25-1.47,3.69,3.69,0,0,0-2.61.27,1.27,1.27,0,0,0-.93,1.15,1.42,1.42,0,0,0,.52,1.41c.61.49,1.27,1,2,1.49a4.17,4.17,0,0,1,1.85,4.25,16.63,16.63,0,0,1-1.91,5.7,10.39,10.39,0,0,1-2.17,2.7,4.18,4.18,0,0,1-4.54.7,4.53,4.53,0,0,1-2.83-3.8,29,29,0,0,1-.08-6.78l0-.16.26-.28a58.85,58.85,0,0,0,6.71-8.81c2.86-4.32,5.73-9.07,8.51-14.11A87.47,87.47,0,0,0,839.79,245c1.57-4.69,1.93-8,1.09-9.92a3.67,3.67,0,0,0-1.79-1.87,3.34,3.34,0,0,0-2.52-.2c-2.31.39-5,3.25-8,8.5a109.33,109.33,0,0,0-8.25,18.59,110.7,110.7,0,0,0-4.89,18.85c-1.52,9.86-.36,16,3.46,18.17Zm-.8-14a28.28,28.28,0,0,0,.09,6.37,3.52,3.52,0,0,0,2.22,3,3.18,3.18,0,0,0,3.51-.53,9.1,9.1,0,0,0,2-2.43,15.82,15.82,0,0,0,1.79-5.34,3.23,3.23,0,0,0-1.42-3.3c-.74-.52-1.42-1-2-1.54a2.4,2.4,0,0,1-.89-2.3,2.47,2.47,0,0,1,.28-.93,49.59,49.59,0,0,1-5.49,7Zm1.77-8.87a1.15,1.15,0,0,1-1.09-1.46,116.66,116.66,0,0,1,5.39-17,99.93,99.93,0,0,1,6.72-14.13c2.27-3.79,4-5.68,5.39-5.94a2.06,2.06,0,0,1,.62-.09c.69,0,.91.36,1,.58a6.59,6.59,0,0,1,0,3.25,41.58,41.58,0,0,1-2.27,7.17,102.48,102.48,0,0,1-5.33,11.28A171.74,171.74,0,0,1,821.33,274,1,1,0,0,1,820.46,274.52Zm17-37.65a1,1,0,0,0-.33,0l-.08,0c-.74.12-2.17,1.17-4.74,5.47a98,98,0,0,0-6.65,14,118.28,118.28,0,0,0-5.36,16.9.42.42,0,0,0,0,.15l.14.07A175.6,175.6,0,0,0,830,257.68a101.11,101.11,0,0,0,5.27-11.17,40.83,40.83,0,0,0,2.22-7,6.21,6.21,0,0,0,.06-2.67Zm0-.08v0Z"></path><path class="cls-1" d="M921.1,277.88a1.67,1.67,0,0,1,1.31.6,2,2,0,0,1,.5,1.44,1.91,1.91,0,0,1-.6,1.36,26.26,26.26,0,0,1-8.26,5.78,24.65,24.65,0,0,1-9.21,2.16,37.79,37.79,0,0,1-9.11-.8,42.73,42.73,0,0,1-8.79-2.91,2.45,2.45,0,0,0-2.13.08,2.7,2.7,0,0,0-1.43,1.74,19,19,0,0,1-1.92,4.84,10.56,10.56,0,0,1-3.63,4.15,9.4,9.4,0,0,1-5.12,1.67,12,12,0,0,1-1.92-.15l-.71-.31q-6-3.46-3.7-18.67a109.63,109.63,0,0,1,4.91-18.94,108,108,0,0,1,8.29-18.67q4.65-8.13,8.29-8.74a3.84,3.84,0,0,1,2.88.23,4.2,4.2,0,0,1,2,2.12q1.35,3-1.07,10.28A88.89,88.89,0,0,1,885.09,260q-4.2,7.59-8.54,14.13a58.47,58.47,0,0,1-6.76,8.89l-.14.15a28.45,28.45,0,0,0,.07,6.65,4,4,0,0,0,2.53,3.4,3.68,3.68,0,0,0,4-.6,9.92,9.92,0,0,0,2.06-2.57,15.94,15.94,0,0,0,1.85-5.52,3.69,3.69,0,0,0-1.64-3.78c-.71-.5-1.37-1-2-1.51a1.94,1.94,0,0,1-.71-1.86,1.76,1.76,0,0,1,1.21-1.55,4.3,4.3,0,0,1,3-.3,4.46,4.46,0,0,1,2.53,1.67,7.2,7.2,0,0,1,1.07,2.19,42.84,42.84,0,0,0,8.57,4,40.78,40.78,0,0,0,9.32,1.89,22.9,22.9,0,0,0,9.68-1.29,22.14,22.14,0,0,0,8.57-5.56A1.93,1.93,0,0,1,921.1,277.88Zm-32.66-41.44c-1.24.21-2.93,2.11-5.09,5.71a99.66,99.66,0,0,0-6.69,14.07,116.66,116.66,0,0,0-5.37,17,.57.57,0,0,0,.32.75.51.51,0,0,0,.74-.22,167.75,167.75,0,0,0,9.54-15.8,102.25,102.25,0,0,0,5.3-11.23,40.79,40.79,0,0,0,2.24-7.07,6.11,6.11,0,0,0,0-3c0-.16-.21-.23-.5-.23A1.75,1.75,0,0,0,888.44,236.44Z"></path><path class="cls-1" d="M872.72,298.49a13,13,0,0,1-2-.16l-.12,0-.71-.31c-4.26-2.44-5.59-8.9-4-19.21a112.42,112.42,0,0,1,4.93-19A110.19,110.19,0,0,1,879.14,241c3.22-5.61,6-8.55,8.64-9a4.28,4.28,0,0,1,3.19.27,4.68,4.68,0,0,1,2.26,2.36c1,2.16.62,5.64-1.05,10.65a89.81,89.81,0,0,1-6.65,14.94c-2.8,5.06-5.68,9.83-8.56,14.17-.38.57-.74,1.11-1.1,1.63a2.29,2.29,0,0,1,1-.68,4.74,4.74,0,0,1,3.24-.31,5,5,0,0,1,2.8,1.84,7.52,7.52,0,0,1,1.1,2.17,41.49,41.49,0,0,0,8.31,3.82,39.74,39.74,0,0,0,9.2,1.87,22.39,22.39,0,0,0,9.47-1.26,21.91,21.91,0,0,0,8.39-5.43,2.35,2.35,0,0,1,3.4.09,2.46,2.46,0,0,1,.62,1.79,2.39,2.39,0,0,1-.76,1.7,26.93,26.93,0,0,1-8.4,5.88,25.37,25.37,0,0,1-9.4,2.2,38.32,38.32,0,0,1-9.23-.81,43.2,43.2,0,0,1-8.88-2.94A1.94,1.94,0,0,0,885,286a2.2,2.2,0,0,0-1.17,1.43,20,20,0,0,1-2,4.94,11.24,11.24,0,0,1-3.79,4.33,10,10,0,0,1-5.39,1.75Zm-1.79-1.14a11.46,11.46,0,0,0,1.78.14,9,9,0,0,0,4.84-1.58,10.33,10.33,0,0,0,3.47-4,18.76,18.76,0,0,0,1.88-4.73,3.23,3.23,0,0,1,1.68-2.07,3,3,0,0,1,2.56-.09,42.17,42.17,0,0,0,8.69,2.88,37.31,37.31,0,0,0,9,.79,24.28,24.28,0,0,0,9-2.12,26,26,0,0,0,8.1-5.67,1.41,1.41,0,0,0,.46-1,1.47,1.47,0,0,0-.37-1.09,1.35,1.35,0,0,0-2,0,22.77,22.77,0,0,1-8.74,5.66,23.43,23.43,0,0,1-9.89,1.32,41.3,41.3,0,0,1-9.44-1.92,43.25,43.25,0,0,1-8.67-4l-.17-.1,0-.19a6.58,6.58,0,0,0-1-2,3.87,3.87,0,0,0-2.24-1.47,3.69,3.69,0,0,0-2.61.27,1.27,1.27,0,0,0-.93,1.15,1.42,1.42,0,0,0,.52,1.41c.61.49,1.27,1,2,1.49a4.17,4.17,0,0,1,1.85,4.25,16.84,16.84,0,0,1-1.91,5.7,10.39,10.39,0,0,1-2.17,2.7,4.18,4.18,0,0,1-4.54.7,4.53,4.53,0,0,1-2.83-3.8,29,29,0,0,1-.08-6.78l0-.16.26-.28a58.85,58.85,0,0,0,6.71-8.81c2.86-4.32,5.73-9.07,8.51-14.11A88.27,88.27,0,0,0,891.23,245c1.57-4.69,1.93-8,1.09-9.92a3.67,3.67,0,0,0-1.79-1.87A3.34,3.34,0,0,0,888,233c-2.31.39-5,3.25-8,8.5a108.55,108.55,0,0,0-8.25,18.59,110.7,110.7,0,0,0-4.89,18.85c-1.52,9.86-.36,16,3.46,18.17Zm-.8-14a28.28,28.28,0,0,0,.09,6.37,3.52,3.52,0,0,0,2.22,3,3.19,3.19,0,0,0,3.51-.53,9.1,9.1,0,0,0,1.95-2.43,15.82,15.82,0,0,0,1.79-5.34,3.23,3.23,0,0,0-1.42-3.3c-.74-.52-1.42-1-2-1.54a2.4,2.4,0,0,1-.89-2.3,2.47,2.47,0,0,1,.28-.93,49.59,49.59,0,0,1-5.49,7Zm1.77-8.87a1.07,1.07,0,0,1-.51-.13,1.09,1.09,0,0,1-.59-1.33,118,118,0,0,1,5.4-17,99.93,99.93,0,0,1,6.72-14.13c2.27-3.79,4-5.68,5.39-5.94a2.06,2.06,0,0,1,.62-.09c.69,0,.91.36,1,.58a6.5,6.5,0,0,1,0,3.25,40.42,40.42,0,0,1-2.26,7.17,102.48,102.48,0,0,1-5.33,11.28A171.74,171.74,0,0,1,872.77,274,1,1,0,0,1,871.9,274.52Zm17-37.65a1,1,0,0,0-.33,0l-.08,0c-.74.12-2.17,1.17-4.74,5.47a99,99,0,0,0-6.66,14,117,117,0,0,0-5.35,16.9.42.42,0,0,0,0,.15l.14.07a175.6,175.6,0,0,0,9.55-15.84,101.11,101.11,0,0,0,5.27-11.17,40.83,40.83,0,0,0,2.22-7,6.21,6.21,0,0,0,.06-2.67Zm0-.08v0Z"></path><path class="cls-1" d="M978.27,277.27a1.75,1.75,0,0,1,1.24.72,2,2,0,0,1,.43,1.47,1.92,1.92,0,0,1-.71,1.36c-.71.61-1.59,1.32-2.64,2.12s-3.05,2.16-6,4.05a85.79,85.79,0,0,1-8.93,4.95,66.17,66.17,0,0,1-10.71,3.85,44.69,44.69,0,0,1-12,1.74A34.15,34.15,0,0,1,925,294.74a13.79,13.79,0,0,1-3.59-2.16,10.45,10.45,0,0,1-2.18-2.42,9,9,0,0,1-1-2.49,8.51,8.51,0,0,1-.28-2.31,11,11,0,0,1,.25-2,16.54,16.54,0,0,1,3.7-7,22.77,22.77,0,0,1,6.51-5.44,12.3,12.3,0,0,1,6.44-1.81,4.48,4.48,0,0,1,3.31,1.43,5.55,5.55,0,0,1,1.53,3.56q.35,3.63-3.85,6.57a20.92,20.92,0,0,1-13.23,3.56.74.74,0,0,0-.64.15.59.59,0,0,0-.22.6q-.5,3.86,4.7,6a28.87,28.87,0,0,0,10,2.38,38.89,38.89,0,0,0,10-.56,55.77,55.77,0,0,0,9.47-2.8,67.13,67.13,0,0,0,8.29-3.82q3.45-1.94,6.69-4.08t4.41-3.06c.78-.61,1.34-1.06,1.67-1.36A1.81,1.81,0,0,1,978.27,277.27Zm-54,2.34c-.62.91-.36,1.32.78,1.21a20.24,20.24,0,0,0,7.61-2.72l1.21-.75c1.47-1.06,2.16-2,2.06-2.88a1.69,1.69,0,0,0-.35-1.09,1.61,1.61,0,0,0-.93-.34,9.22,9.22,0,0,0-5.3,1.74A17.45,17.45,0,0,0,924.23,279.61Z"></path><path class="cls-1" d="M938.59,298a34.62,34.62,0,0,1-13.78-2.84,14.39,14.39,0,0,1-3.72-2.23,10.74,10.74,0,0,1-2.27-2.54,9.1,9.1,0,0,1-1.09-2.64,8.71,8.71,0,0,1-.3-2.44,11.06,11.06,0,0,1,.26-2,17.27,17.27,0,0,1,3.8-7.25,23.63,23.63,0,0,1,6.66-5.56,12.67,12.67,0,0,1,6.7-1.87h0a5,5,0,0,1,3.64,1.58,6.09,6.09,0,0,1,1.67,3.87c.25,2.59-1.12,5-4.06,7a21.56,21.56,0,0,1-13.55,3.65c-.17,0-.23,0-.3,0s0,0,0,.12v.16c-.3,2.34,1.14,4.14,4.39,5.52a28.79,28.79,0,0,0,9.8,2.34,38.41,38.41,0,0,0,9.84-.55,55,55,0,0,0,9.38-2.78,65.22,65.22,0,0,0,8.22-3.79c2.28-1.27,4.52-2.64,6.66-4.06s3.62-2.45,4.38-3,1.31-1,1.64-1.33a2.3,2.3,0,0,1,1.78-.59h0a2.28,2.28,0,0,1,1.59.91,2.58,2.58,0,0,1,.53,1.83,2.41,2.41,0,0,1-.89,1.7c-.73.61-1.62,1.33-2.65,2.13s-3.1,2.18-6.09,4.07a85.76,85.76,0,0,1-9,5A67.73,67.73,0,0,1,951,296.28,46.17,46.17,0,0,1,938.59,298Zm-4.15-28.43a12.36,12.36,0,0,0-5.81,1.76,22.39,22.39,0,0,0-6.37,5.33,16.12,16.12,0,0,0-3.59,6.81,10.08,10.08,0,0,0-.24,1.88,8.32,8.32,0,0,0,.27,2.17,8.46,8.46,0,0,0,1,2.35,9.86,9.86,0,0,0,2.07,2.3,13.4,13.4,0,0,0,3.46,2.08A34,34,0,0,0,939,297a44.34,44.34,0,0,0,11.82-1.72,65.79,65.79,0,0,0,10.63-3.82,84.93,84.93,0,0,0,8.88-4.93c3-1.87,5-3.22,6-4s1.9-1.5,2.61-2.11a1.39,1.39,0,0,0,.54-1,1.52,1.52,0,0,0-.32-1.12,1.28,1.28,0,0,0-.9-.53h0a1.35,1.35,0,0,0-1,.34c-.33.3-.91.77-1.69,1.37s-2.24,1.62-4.44,3.08-4.42,2.82-6.72,4.11a68.87,68.87,0,0,1-8.35,3.84,55.84,55.84,0,0,1-9.55,2.83,39.45,39.45,0,0,1-10.09.57,29.62,29.62,0,0,1-10.13-2.42c-3.64-1.54-5.33-3.72-5-6.5a1,1,0,0,1,.41-1,1.21,1.21,0,0,1,1.05-.25,20.64,20.64,0,0,0,12.86-3.48c2.65-1.87,3.84-3.87,3.62-6.11a5,5,0,0,0-1.39-3.26,4,4,0,0,0-2.95-1.28Zm-9.75,11.74a1.29,1.29,0,0,1-1.17-.5c-.34-.58.14-1.28.29-1.51h0a17.86,17.86,0,0,1,5.23-5,9.7,9.7,0,0,1,5.6-1.81,1.69,1.69,0,0,1,1.74,1.89c.12,1.05-.62,2.14-2.27,3.32l-1.23.77a20.87,20.87,0,0,1-7.84,2.8Zm-.27-1a2.6,2.6,0,0,0,.54,0,20.15,20.15,0,0,0,7.42-2.67l1.19-.74c1.26-.91,1.9-1.74,1.83-2.39a1.55,1.55,0,0,0-.2-.79,1.23,1.23,0,0,0-.65-.21,8.8,8.8,0,0,0-5,1.67,17,17,0,0,0-4.94,4.7A1.27,1.27,0,0,0,924.42,280.32Z"></path><path class="cls-1" d="M87,282.87c-.24.4-.64,1-1.21,1.77a39.7,39.7,0,0,1-3.45,3.78,46.68,46.68,0,0,1-5.45,4.69,30.35,30.35,0,0,1-7.25,3.74,25.09,25.09,0,0,1-8.9,1.67,26.57,26.57,0,0,1-10.1-2q-12.16-4.77-17.11-14.67t-2-23.59a69.42,69.42,0,0,1,7.29-18.63,89.21,89.21,0,0,1,11.88-16.82A62.71,62.71,0,0,1,64.6,211.15q7.34-4.41,13-3.81a13.93,13.93,0,0,1,11,5.52,4.85,4.85,0,0,0,2.25,1.74,4.91,4.91,0,0,0,2.81.22,36.27,36.27,0,0,1,8.68-1.21,1.85,1.85,0,0,1,1.35.57,2,2,0,0,1,0,2.8,1.8,1.8,0,0,1-1.28.56,32.78,32.78,0,0,0-10.11,1.74,2,2,0,0,0-1.35,2.12,32.1,32.1,0,0,1-4,13,40.72,40.72,0,0,1-8.75,11.49q-5.16,4.65-9.71,4.8a5.25,5.25,0,0,1-2.88-.53,5.45,5.45,0,0,1-2.25-2q-2.13-3.71,1.5-10.59A48.14,48.14,0,0,1,83.53,219a3.19,3.19,0,0,0,1.6-2.61,3.05,3.05,0,0,0-1.1-2.83,12.84,12.84,0,0,0-6.76-2.27q-4.77-.45-11.28,3.55a60.72,60.72,0,0,0-12.63,10.62,82,82,0,0,0-11.2,15.73,64.84,64.84,0,0,0-7,18,44.32,44.32,0,0,0-1,7.18,30.49,30.49,0,0,0,.6,7.45,25.2,25.2,0,0,0,2.63,7.33A23.34,23.34,0,0,0,43,287.63a31.61,31.61,0,0,0,9,5.14,22.94,22.94,0,0,0,7.79,1.74,22.23,22.23,0,0,0,6.83-.68,26.64,26.64,0,0,0,5.84-2.46,30.59,30.59,0,0,0,4.76-3.21,33.37,33.37,0,0,0,3.56-3.48c1.11-1.26,1.87-2.15,2.28-2.68s.72-1,1-1.33a1.77,1.77,0,0,1,2.56-.53,1.86,1.86,0,0,1,.78,1.25A2,2,0,0,1,87,282.87ZM68.45,246.65q4.41-.08,10.21-6.69a35.15,35.15,0,0,0,7.79-14,2.1,2.1,0,0,0-.71-2.31,1.79,1.79,0,0,0-2.28-.11,44.45,44.45,0,0,0-15.3,15.87,14.7,14.7,0,0,0-1.63,4.24c-.24,1.26-.22,2.06.07,2.42S67.5,246.7,68.45,246.65Z"></path><path class="cls-1" d="M60.76,299a27.22,27.22,0,0,1-10.29-2c-8.19-3.2-14-8.22-17.37-14.9s-4-14.72-2.07-23.92a69.85,69.85,0,0,1,7.34-18.77,90.6,90.6,0,0,1,12-16.92,63.22,63.22,0,0,1,14-11.77c5-3,9.44-4.31,13.33-3.89A14.45,14.45,0,0,1,89,212.54a4.43,4.43,0,0,0,4.56,1.79,37,37,0,0,1,8.78-1.22,2.37,2.37,0,0,1,1.71.71,2.4,2.4,0,0,1,.72,1.76,2.36,2.36,0,0,1-.72,1.75,2.27,2.27,0,0,1-1.63.71,32.4,32.4,0,0,0-10,1.72,1.44,1.44,0,0,0-1,1.62,32.74,32.74,0,0,1-4,13.22,41.91,41.91,0,0,1-8.86,11.63c-3.52,3.17-6.89,4.82-10,4.93a5.72,5.72,0,0,1-3.12-.58A5.9,5.9,0,0,1,63,248.35c-1.52-2.63-1-6.35,1.48-11.08a48.78,48.78,0,0,1,18.84-18.73,2.7,2.7,0,0,0,1.35-2.22,2.59,2.59,0,0,0-.93-2.4,12.33,12.33,0,0,0-6.46-2.15c-3.08-.29-6.77.88-11,3.48a60.56,60.56,0,0,0-12.52,10.53,82.17,82.17,0,0,0-11.14,15.63,65,65,0,0,0-7,17.9,44.31,44.31,0,0,0-1,7.1,29.92,29.92,0,0,0,.59,7.32,24.83,24.83,0,0,0,2.58,7.19,23,23,0,0,0,5.43,6.33,31.36,31.36,0,0,0,8.83,5.05A22.59,22.59,0,0,0,59.75,294a21.64,21.64,0,0,0,6.68-.66,26,26,0,0,0,5.72-2.41,30.65,30.65,0,0,0,4.69-3.17,33.27,33.27,0,0,0,3.51-3.42c1.1-1.24,1.86-2.14,2.25-2.66s.71-.95.94-1.3a2.28,2.28,0,0,1,1.49-1,2.23,2.23,0,0,1,1.78.39,2.31,2.31,0,0,1,1,1.56,2.55,2.55,0,0,1-.34,1.83c-.25.42-.67,1-1.24,1.81a38.3,38.3,0,0,1-3.5,3.83,45.87,45.87,0,0,1-5.5,4.74,31.08,31.08,0,0,1-7.38,3.81A25.59,25.59,0,0,1,60.76,299Zm15.51-91.25c-3.38,0-7.21,1.28-11.41,3.81a62.44,62.44,0,0,0-13.8,11.59A89.67,89.67,0,0,0,39.25,239.9,68.79,68.79,0,0,0,32,258.4c-1.92,9-1.25,16.79,2,23.26S42.88,293,50.84,296.08a25.34,25.34,0,0,0,18.64.31,30.36,30.36,0,0,0,7.14-3.68A45.72,45.72,0,0,0,82,288.07a37.44,37.44,0,0,0,3.4-3.72c.56-.76,1-1.35,1.19-1.74h0a1.52,1.52,0,0,0,.22-1.12,1.38,1.38,0,0,0-.58-.93,1.27,1.27,0,0,0-1.85.39c-.25.37-.57.82-1,1.36s-1.19,1.45-2.3,2.71a34.42,34.42,0,0,1-3.62,3.53,30.91,30.91,0,0,1-4.84,3.27,27.06,27.06,0,0,1-5.94,2.5,22.71,22.71,0,0,1-7,.7,23.46,23.46,0,0,1-8-1.78,32.29,32.29,0,0,1-9.1-5.22,23.62,23.62,0,0,1-5.66-6.6,25.66,25.66,0,0,1-2.69-7.48,31,31,0,0,1-.61-7.57,46.32,46.32,0,0,1,1-7.26,65.83,65.83,0,0,1,7.06-18.17A82.31,82.31,0,0,1,53,225.1a61.4,61.4,0,0,1,12.73-10.7c4.41-2.72,8.31-3.94,11.59-3.63a13.41,13.41,0,0,1,7,2.35,3.57,3.57,0,0,1,1.32,3.3,3.69,3.69,0,0,1-1.85,3,47.9,47.9,0,0,0-18.46,18.34c-2.31,4.39-2.82,7.79-1.49,10.09a4.87,4.87,0,0,0,2,1.84,4.75,4.75,0,0,0,2.61.48c2.93-.1,6.09-1.67,9.43-4.67a40.8,40.8,0,0,0,8.64-11.36,31.66,31.66,0,0,0,3.89-12.76,2.42,2.42,0,0,1,1.68-2.56A33.87,33.87,0,0,1,102.38,217a1.27,1.27,0,0,0,.94-.42,1.4,1.4,0,0,0,.42-1,1.44,1.44,0,0,0-.42-1.05,1.39,1.39,0,0,0-1-.42,35.49,35.49,0,0,0-8.56,1.2,5.42,5.42,0,0,1-3.11-.25,5.16,5.16,0,0,1-2.47-1.92,13.53,13.53,0,0,0-10.57-5.3A11.78,11.78,0,0,0,76.27,207.77Zm-8.09,39.39a2.21,2.21,0,0,1-2-.85c-.35-.43-.41-1.33-.14-2.78a15.72,15.72,0,0,1,1.69-4.38A45.33,45.33,0,0,1,83.2,223.09a2.29,2.29,0,0,1,2.85.15,2.59,2.59,0,0,1,.88,2.82A35.67,35.67,0,0,1,79,240.29c-4,4.56-7.45,6.8-10.57,6.86Zm16.37-23.5a1.58,1.58,0,0,0-.82.28,44.15,44.15,0,0,0-15.13,15.7A14.13,14.13,0,0,0,67,243.72c-.3,1.58-.08,1.95,0,2,.25.41.91.45,1.43.42h0c2.78-.05,6.09-2.24,9.84-6.52A34.81,34.81,0,0,0,86,225.81a1.61,1.61,0,0,0-.55-1.79A1.35,1.35,0,0,0,84.55,223.66Z"></path><path class="cls-1" d="M146.43,278.67a1.72,1.72,0,0,1,1.28.64,2.08,2.08,0,0,1,.46,1.44,1.87,1.87,0,0,1-.6,1.36c-.57.56-1.26,1.17-2.07,1.85s-2.34,1.84-4.62,3.48a57,57,0,0,1-6.66,4.16,35.71,35.71,0,0,1-7.47,2.83A18.86,18.86,0,0,1,119,295a14.54,14.54,0,0,1-10.24-7.64,4.39,4.39,0,0,0-3.63-2.57,4.67,4.67,0,0,0-2.07.38,16,16,0,0,0-2.88,1.63,22.83,22.83,0,0,0-4.09,3.85,57.2,57.2,0,0,0-4.91,6.69,1.59,1.59,0,0,1-2.13.68,1.79,1.79,0,0,1-1.21-2A132.45,132.45,0,0,1,90,281.35a1.91,1.91,0,0,1,.07-2.26l.5-.76q1.84-9.68,4.34-18.83,1.86-7.17,3.7-12.47t3.1-7.9a22.46,22.46,0,0,1,2.56-4.27,9.24,9.24,0,0,1,1.85-2,7.4,7.4,0,0,1,1.17-.53,3.57,3.57,0,0,1,2.35,0,4.15,4.15,0,0,1,1.92,1.47,8.17,8.17,0,0,1,1.53,4.88,22.53,22.53,0,0,1-.78,6.46,53.53,53.53,0,0,1-2.67,7.56c-1.18,2.78-2.42,5.37-3.7,7.79s-2.7,4.94-4.27,7.56-2.89,4.77-4,6.43-2.16,3.28-3.2,4.84l-.15.22-.42.69q-1,5.59-1.14,6.42a.67.67,0,0,0,.39.76.65.65,0,0,0,.82-.15q6.18-6.88,11.45-6.43a7.58,7.58,0,0,1,3.81,1.36,8.55,8.55,0,0,1,2.74,3.18,11.37,11.37,0,0,0,3.2,3.78,9.64,9.64,0,0,0,4.41,1.89,15.93,15.93,0,0,0,6.8-.65,31.4,31.4,0,0,0,6.72-2.72,60.28,60.28,0,0,0,6-3.89c2.09-1.51,3.47-2.57,4.16-3.18l1.75-1.51A1.81,1.81,0,0,1,146.43,278.67Zm-38.07-42.53q-1.35,0-4.73,8.13a158.9,158.9,0,0,0-5.84,16.52q-2.45,8.38-1.6,8.92c.24.15.71-.28,1.43-1.28a39.12,39.12,0,0,0,2.42-4.12q1.35-2.61,2.88-5.94c1-2.22,2-4.47,2.84-6.77s1.63-4.49,2.24-6.61a29.77,29.77,0,0,0,1.14-5.41,4.71,4.71,0,0,0-.5-3.21C108.5,236.22,108.41,236.14,108.36,236.14Z"></path><path class="cls-1" d="M89.84,298.72a2.63,2.63,0,0,1-1-.19A2.29,2.29,0,0,1,87.37,296a133.41,133.41,0,0,1,2.11-14.53,2.4,2.4,0,0,1,.18-2.64l.44-.66c1.23-6.41,2.68-12.72,4.33-18.77,1.23-4.78,2.48-9,3.71-12.51a85.34,85.34,0,0,1,3.12-8,22.88,22.88,0,0,1,2.62-4.36,8.38,8.38,0,0,1,2-2.09,7.29,7.29,0,0,1,1.26-.57,4.1,4.1,0,0,1,2.68,0,4.54,4.54,0,0,1,2.15,1.65,8.59,8.59,0,0,1,1.63,5.15,22.88,22.88,0,0,1-.8,6.61A54.46,54.46,0,0,1,110.1,253c-1.18,2.77-2.44,5.41-3.72,7.83s-2.72,5-4.28,7.58-2.91,4.79-4,6.44l-3.21,4.85-.51.81c-.65,3.67-1,5.78-1.12,6.33,0,.13,0,.17.12.22s.14.05.23,0c4.21-4.67,8.21-6.89,11.87-6.58a8.11,8.11,0,0,1,4,1.45,9,9,0,0,1,2.91,3.36,11,11,0,0,0,3,3.61,9.31,9.31,0,0,0,4.19,1.79,15.53,15.53,0,0,0,6.58-.63,31.19,31.19,0,0,0,6.62-2.67,60.64,60.64,0,0,0,6-3.87c2.06-1.49,3.45-2.55,4.12-3.14s1.28-1.11,1.75-1.52a2.27,2.27,0,0,1,1.7-.61h0a2.17,2.17,0,0,1,1.64.82,2.52,2.52,0,0,1,.58,1.78,2.43,2.43,0,0,1-.76,1.71c-.56.54-1.25,1.16-2.08,1.86s-2.39,1.88-4.66,3.51a57,57,0,0,1-6.71,4.19,37.21,37.21,0,0,1-7.58,2.88,19.29,19.29,0,0,1-7.92.61,14.74,14.74,0,0,1-6.2-2.7,14.93,14.93,0,0,1-4.42-5.2,3.88,3.88,0,0,0-3.23-2.3,4.19,4.19,0,0,0-1.83.34,16.29,16.29,0,0,0-2.79,1.58,22.24,22.24,0,0,0-4,3.77,56.16,56.16,0,0,0-4.87,6.63A2.07,2.07,0,0,1,89.84,298.72Zm18.59-66a3.2,3.2,0,0,0-1,.16,5.82,5.82,0,0,0-1.07.49,8.09,8.09,0,0,0-1.71,1.84,22.24,22.24,0,0,0-2.5,4.17c-.82,1.72-1.85,4.36-3.08,7.85s-2.46,7.68-3.68,12.44c-1.65,6.06-3.11,12.38-4.34,18.79l-.07.19-.5.75a1.43,1.43,0,0,0-.06,1.73l.1.17,0,.19a133.39,133.39,0,0,0-2.12,14.61,1.31,1.31,0,0,0,.89,1.54,1.11,1.11,0,0,0,1.53-.49,56,56,0,0,1,5-6.75,23.24,23.24,0,0,1,4.18-3.94,17.35,17.35,0,0,1,3-1.68,5.18,5.18,0,0,1,2.29-.41,4.89,4.89,0,0,1,4,2.84,14,14,0,0,0,9.89,7.38,18.7,18.7,0,0,0,7.5-.6,35.74,35.74,0,0,0,7.37-2.79,56.09,56.09,0,0,0,6.6-4.13c2.24-1.61,3.79-2.77,4.59-3.45s1.49-1.29,2-1.83a1.4,1.4,0,0,0,.45-1,1.52,1.52,0,0,0-.35-1.1,1.2,1.2,0,0,0-.92-.46,1.28,1.28,0,0,0-1,.36c-.49.41-1.07.92-1.76,1.52s-2.08,1.67-4.2,3.2a61.33,61.33,0,0,1-6.09,3.93,32.12,32.12,0,0,1-6.83,2.76,16.57,16.57,0,0,1-7,.66,10.11,10.11,0,0,1-4.64-2,11.81,11.81,0,0,1-3.34-3.94,8,8,0,0,0-2.59-3,7,7,0,0,0-3.55-1.27c-3.34-.29-7,1.82-11,6.26a1.15,1.15,0,0,1-1.41.27,1.19,1.19,0,0,1-.67-1.28l1.14-6.44.07-.18.57-.91c1-1.57,2.12-3.18,3.21-4.85s2.42-3.8,4-6.4,3-5.13,4.26-7.54,2.51-5,3.68-7.75a55.7,55.7,0,0,0,2.65-7.49,22.3,22.3,0,0,0,.76-6.32,7.69,7.69,0,0,0-1.42-4.59,3.62,3.62,0,0,0-1.7-1.31A2.94,2.94,0,0,0,108.43,232.68ZM96.3,270.25a.71.71,0,0,1-.38-.12c-.59-.36-1-1.4,1.39-9.48a161.4,161.4,0,0,1,5.86-16.57c3.08-7.42,4.31-8.44,5.19-8.44a.92.92,0,0,1,.65.39,5.13,5.13,0,0,1,.63,3.6,30.27,30.27,0,0,1-1.16,5.5c-.61,2.12-1.37,4.36-2.25,6.65s-1.84,4.59-2.86,6.8-2,4.2-2.89,5.95A35.76,35.76,0,0,1,98,268.71C97.49,269.47,96.89,270.25,96.3,270.25Zm12-33.57c-.36.21-1.49,1.37-4.16,7.78a161.81,161.81,0,0,0-5.82,16.47c-1.63,5.58-1.84,7.49-1.8,8.13a7.63,7.63,0,0,0,.74-.92,36.41,36.41,0,0,0,2.38-4.07c.9-1.73,1.87-3.72,2.87-5.91s2-4.45,2.84-6.74,1.61-4.48,2.22-6.57a29.94,29.94,0,0,0,1.13-5.32A4.49,4.49,0,0,0,108.25,236.68Z"></path><path class="cls-1" d="M205.41,277a1.67,1.67,0,0,1,1.31.6,2.05,2.05,0,0,1,.54,1.4,2,2,0,0,1-.57,1.4,46,46,0,0,1-17,10.93,52.83,52.83,0,0,1-18.5,3.81,15.63,15.63,0,0,1-7.82-1.58,10.13,10.13,0,0,1-2.64-2.2,5.93,5.93,0,0,1-1.28-2.6,14.92,14.92,0,0,1-.32-2.54,7.73,7.73,0,0,1,.46-2.61c.34-1,.61-1.73.82-2.26s.51-1.2.89-2c.14-.3,0-.48-.35-.53a1.75,1.75,0,0,0-.79.31,14.91,14.91,0,0,1-8.39,2,8.4,8.4,0,0,1-3.92-.83,1.75,1.75,0,0,1-1.42-.16,1.82,1.82,0,0,1-1-2,8,8,0,0,1-1.49-3.1A10.55,10.55,0,0,1,147.56,264c2-1.25,3.56-1.31,4.69-.15q2.35,2.35-1.56,11.72a1.27,1.27,0,0,0,.21,1c.24.43.52.65.86.65a14.66,14.66,0,0,0,7.75-2.2,11.26,11.26,0,0,1,1.71-.94,4.21,4.21,0,0,1,1.71-.23,3.29,3.29,0,0,1,2,.8,2.61,2.61,0,0,1,1,2,5.33,5.33,0,0,1-.25,2.08c-.22.58-.56,1.37-1,2.38a12.78,12.78,0,0,0-1.75,5.56,4.21,4.21,0,0,0,2.39,3.51,9.7,9.7,0,0,0,4.62,1.06,35.29,35.29,0,0,0,7.54-.6,64.82,64.82,0,0,0,9-2.27A47.28,47.28,0,0,0,195.8,284a39.1,39.1,0,0,0,8.26-6.46A1.9,1.9,0,0,1,205.41,277Zm-58-3.55a33.3,33.3,0,0,0,2-6A6.15,6.15,0,0,0,147.42,273.42Z"></path><path class="cls-1" d="M170.28,295.64a16.41,16.41,0,0,1-7.14-1.66,10.55,10.55,0,0,1-2.8-2.33,6.37,6.37,0,0,1-1.39-2.83,16.77,16.77,0,0,1-.33-2.61,8.25,8.25,0,0,1,.49-2.79c.33-1,.61-1.74.83-2.29s.45-1.07.78-1.78a3.16,3.16,0,0,0-.31.16,15.42,15.42,0,0,1-8.68,2.12,8.8,8.8,0,0,1-3.93-.8,2.42,2.42,0,0,1-2.89-2.5,8.67,8.67,0,0,1-1.47-3.13,11.09,11.09,0,0,1,3.81-11.63c2.25-1.42,4-1.45,5.36-.11,1.74,1.74,1.26,5.75-1.46,12.27,0,0-.05.15.19.58.1.18.25.39.42.39a14.35,14.35,0,0,0,7.49-2.12,11.76,11.76,0,0,1,1.78-1,4.68,4.68,0,0,1,1.92-.27,3.81,3.81,0,0,1,2.29.91,3.15,3.15,0,0,1,1.18,2.32,5.78,5.78,0,0,1-.28,2.28c-.22.6-.56,1.39-1,2.42a12.47,12.47,0,0,0-1.7,5.34,3.72,3.72,0,0,0,2.15,3.1,9.29,9.29,0,0,0,4.38,1,35,35,0,0,0,7.44-.59,64.47,64.47,0,0,0,8.89-2.26,46.33,46.33,0,0,0,9.3-4.3,38.92,38.92,0,0,0,8.15-6.38,2.35,2.35,0,0,1,3.4.09,2.55,2.55,0,0,1,.66,1.73,2.45,2.45,0,0,1-.71,1.74,46.57,46.57,0,0,1-17.19,11.05,53.41,53.41,0,0,1-18.68,3.85Zm-9.34-17.36a1,1,0,0,1,.82.45.81.81,0,0,1,0,.79q-.56,1.2-.87,2c-.22.53-.49,1.29-.81,2.24a7.26,7.26,0,0,0-.44,2.44,15,15,0,0,0,.31,2.45,5.47,5.47,0,0,0,1.18,2.39,9.77,9.77,0,0,0,2.5,2.08,15.34,15.34,0,0,0,7.54,1.51,52.62,52.62,0,0,0,18.36-3.78A45.67,45.67,0,0,0,206.33,280a1.46,1.46,0,0,0,.43-1,1.61,1.61,0,0,0-.41-1.07,1.34,1.34,0,0,0-1.95,0,39.69,39.69,0,0,1-8.34,6.53,47.5,47.5,0,0,1-9.5,4.39,63.3,63.3,0,0,1-9,2.29,35.73,35.73,0,0,1-7.65.61,10.16,10.16,0,0,1-4.87-1.13,4.71,4.71,0,0,1-2.62-3.93,13.11,13.11,0,0,1,1.8-5.8c.46-1,.8-1.77,1-2.32a4.72,4.72,0,0,0,.22-1.88,2.14,2.14,0,0,0-.82-1.61,2.77,2.77,0,0,0-1.69-.68,3.72,3.72,0,0,0-1.5.19,11.46,11.46,0,0,0-1.63.91,15.36,15.36,0,0,1-8,2.27,1.46,1.46,0,0,1-1.29-.91,1.67,1.67,0,0,1-.25-1.43c3.13-7.51,2.64-10.23,1.68-11.19s-2.29-.91-4.07.22A10.08,10.08,0,0,0,144.41,275a7.63,7.63,0,0,0,1.41,2.92l.12.16,0,.2a1.32,1.32,0,0,0,.73,1.47,1.29,1.29,0,0,0,1,.12l.19-.06.18.08a7.8,7.8,0,0,0,3.68.79,14.48,14.48,0,0,0,8.16-2A2.11,2.11,0,0,1,160.94,278.28Zm0,1Zm-13.75-4.2-.29-1.6a6.68,6.68,0,0,1,2.15-6.43l1.19-1.09-.36,1.57a32.79,32.79,0,0,1-2,6.07Zm1-5.2a4.77,4.77,0,0,0-.28.83C148,270.45,148.13,270.17,148.22,269.9Z"></path><path class="cls-1" d="M204.34,271.07a1.71,1.71,0,0,1-1.78-1.51,1.89,1.89,0,0,1,.93-2.27,12.85,12.85,0,0,0,3.55-2.8,1.77,1.77,0,0,1,1.32-.6,1.83,1.83,0,0,1,1.32.57,2,2,0,0,1,.6,1.36,1.87,1.87,0,0,1-.53,1.4,17.29,17.29,0,0,1-4.49,3.55A1.56,1.56,0,0,1,204.34,271.07Zm44.15,5.37a1.81,1.81,0,0,1,1.32.57,1.87,1.87,0,0,1,.57,1.39,2.19,2.19,0,0,1-.5,1.44c-.57.61-1.31,1.35-2.21,2.23s-2.55,2.32-4.94,4.31a74.94,74.94,0,0,1-7.15,5.29,43.82,43.82,0,0,1-8.4,4.12,26,26,0,0,1-9.11,1.82,18,18,0,0,1-11.74-4.08,8.2,8.2,0,0,1-2.84-4,13.11,13.11,0,0,1-.79-4.61,21.06,21.06,0,0,1,.71-4.54,31.63,31.63,0,0,1,1-3.4c.26-.66.48-1.19.67-1.59a2.16,2.16,0,0,1,1.14-.91,1.67,1.67,0,0,1,1.39.16,1.92,1.92,0,0,1,.92,1.13,1.8,1.8,0,0,1-.1,1.44c-.1.25-.25.61-.47,1.09a22.8,22.8,0,0,0-.85,2.53,17.87,17.87,0,0,0-.68,3.41,9.88,9.88,0,0,0,.32,3.36,4.86,4.86,0,0,0,1.75,2.76,14.78,14.78,0,0,0,7,3,18.47,18.47,0,0,0,7.36-.34,34.85,34.85,0,0,0,7.26-2.84,50.8,50.8,0,0,0,6.55-4c1.87-1.36,3.67-2.79,5.41-4.31s2.95-2.63,3.66-3.36,1.19-1.22,1.42-1.48A1.77,1.77,0,0,1,248.49,276.44Z"></path><path class="cls-1" d="M217.84,298.11A18.49,18.49,0,0,1,206,293.92a8.83,8.83,0,0,1-3-4.24,13.61,13.61,0,0,1-.81-4.79,21.38,21.38,0,0,1,.73-4.65c.44-1.64.78-2.77,1-3.46s.5-1.2.69-1.61a2.59,2.59,0,0,1,1.44-1.17,2.15,2.15,0,0,1,1.78.19,2.47,2.47,0,0,1,1.16,1.41,2.28,2.28,0,0,1-.14,1.83c-.07.2-.23.58-.45,1.07a22.42,22.42,0,0,0-.83,2.47,17,17,0,0,0-.66,3.3,9.15,9.15,0,0,0,.31,3.19,4.35,4.35,0,0,0,1.56,2.49,14.24,14.24,0,0,0,6.74,2.89,17.9,17.9,0,0,0,7.17-.33,34.31,34.31,0,0,0,7.15-2.79,52.46,52.46,0,0,0,6.49-3.93c1.84-1.35,3.65-2.79,5.37-4.28s2.94-2.62,3.63-3.34l1.42-1.47a2.28,2.28,0,0,1,3.35-.05,2.43,2.43,0,0,1,.72,1.75,2.66,2.66,0,0,1-.62,1.76c-.59.63-1.33,1.38-2.24,2.27s-2.54,2.31-5,4.34a76.34,76.34,0,0,1-7.2,5.32,44.47,44.47,0,0,1-8.49,4.17A27.25,27.25,0,0,1,217.84,298.11Zm-11.05-23.22a1.31,1.31,0,0,0-.38.06,1.6,1.6,0,0,0-.87.7c-.15.34-.37.86-.63,1.5s-.59,1.76-1,3.35a20,20,0,0,0-.7,4.42,12.6,12.6,0,0,0,.76,4.44,7.76,7.76,0,0,0,2.67,3.77,17.56,17.56,0,0,0,11.44,4,25.66,25.66,0,0,0,8.93-1.78,43.37,43.37,0,0,0,8.3-4.08,74.39,74.39,0,0,0,7.11-5.25c2.38-2,4-3.42,4.91-4.29s1.63-1.61,2.19-2.21a1.68,1.68,0,0,0,.37-1.1,1.39,1.39,0,0,0-.43-1,1.26,1.26,0,0,0-1.91,0l-1.43,1.48c-.72.73-2,1.87-3.69,3.39s-3.57,3-5.45,4.34a51.74,51.74,0,0,1-6.61,4,35.76,35.76,0,0,1-7.36,2.87,18.93,18.93,0,0,1-7.56.35,15.42,15.42,0,0,1-7.21-3.08,5.38,5.38,0,0,1-1.92-3,10.19,10.19,0,0,1-.33-3.54,17.55,17.55,0,0,1,.69-3.5,22.1,22.1,0,0,1,.88-2.59c.2-.47.35-.82.45-1.07a1.34,1.34,0,0,0,.1-1.1,1.47,1.47,0,0,0-.7-.86A1.28,1.28,0,0,0,206.79,274.89Zm-2.45-3.32a2.19,2.19,0,0,1-2.27-1.9,2.4,2.4,0,0,1,1.16-2.81,12.61,12.61,0,0,0,3.44-2.7,2.28,2.28,0,0,1,3.36-.06,2.49,2.49,0,0,1,.75,1.69,2.36,2.36,0,0,1-.67,1.77,17.52,17.52,0,0,1-4.61,3.65A2,2,0,0,1,204.34,271.57Zm4-7.18a1.26,1.26,0,0,0-1,.45,13.53,13.53,0,0,1-3.69,2.89,1.38,1.38,0,0,0-.67,1.71c.18.78.58,1.13,1.29,1.13a1.06,1.06,0,0,0,.63-.21,17,17,0,0,0,4.41-3.48,1.36,1.36,0,0,0,.4-1,1.51,1.51,0,0,0-.46-1A1.32,1.32,0,0,0,208.36,264.39Z"></path><path class="cls-1" d="M294.91,275.91a1.75,1.75,0,0,1,1.32.57,2,2,0,0,1,.53,1.4,2.13,2.13,0,0,1-.5,1.43,54.74,54.74,0,0,1-16.08,11.42q-9.89,4.83-18.5,4.84a27,27,0,0,1-3.55-.23,13.57,13.57,0,0,1-6.55-2.31,14.71,14.71,0,0,1-4.77-5.25,2.1,2.1,0,0,1-.18-1.44,2.07,2.07,0,0,1,.82-1.21,1.61,1.61,0,0,1,1.39-.26,1.9,1.9,0,0,1,1.17.87,10.1,10.1,0,0,0,6.16,4.2,9.48,9.48,0,0,0,7.22-1.18,3.78,3.78,0,0,0,1.82-2.68,3.59,3.59,0,0,0-.89-3.14,13.37,13.37,0,0,0-2.71-2.34,16.77,16.77,0,0,1-5-4.84,1.1,1.1,0,0,0-.85-.61,1,1,0,0,0-.93.31l-5.4,5.44a1.9,1.9,0,0,1-3.17-1,2,2,0,0,1,.6-2l10.89-10.89a23.91,23.91,0,0,1,4.2-4.15,1.73,1.73,0,0,1,1.32-.38,1.81,1.81,0,0,1,1.24.68,1.9,1.9,0,0,1,.43,1.4,2.16,2.16,0,0,1-.57,1.32l-3.92,3.86a4.36,4.36,0,0,0-1,2.64,3.22,3.22,0,0,0,1.1,2.31,29.07,29.07,0,0,0,3.17,2.61,13.39,13.39,0,0,1,3.77,3.47,8.46,8.46,0,0,1,1.39,4.05,7.87,7.87,0,0,1-.82,4.2,1,1,0,0,0,.1,1.13,1,1,0,0,0,1,.38,52.1,52.1,0,0,0,24.4-14.06A1.57,1.57,0,0,1,294.91,275.91Z"></path><path class="cls-1" d="M261.68,296.07a28.36,28.36,0,0,1-3.62-.23,14.24,14.24,0,0,1-6.76-2.39,15.26,15.26,0,0,1-4.93-5.43,2.53,2.53,0,0,1-.22-1.79,2.5,2.5,0,0,1,1-1.5,2.12,2.12,0,0,1,1.8-.35,2.43,2.43,0,0,1,1.48,1.09,9.6,9.6,0,0,0,5.84,4,9.08,9.08,0,0,0,6.86-1.12,3.23,3.23,0,0,0,1.57-2.34,3,3,0,0,0-.77-2.72,12.9,12.9,0,0,0-2.6-2.25,17.36,17.36,0,0,1-5.12-5,.65.65,0,0,0-.51-.39.48.48,0,0,0-.49.15l-5.42,5.45a2.39,2.39,0,0,1-4-1.23,2.53,2.53,0,0,1,.74-2.43l10.89-10.88a24.44,24.44,0,0,1,4.24-4.2,2.34,2.34,0,0,1,3.26.38,2.43,2.43,0,0,1,.54,1.76,2.65,2.65,0,0,1-.71,1.62l-3.92,3.87a3.84,3.84,0,0,0-.85,2.32,2.71,2.71,0,0,0,.95,1.92,27.62,27.62,0,0,0,3.11,2.56,13.93,13.93,0,0,1,3.88,3.59,8.9,8.9,0,0,1,1.48,4.3,8.17,8.17,0,0,1-.87,4.46.53.53,0,0,0,.07.61.41.41,0,0,0,.51.19,51.75,51.75,0,0,0,24.17-13.93,2.06,2.06,0,0,1,1.63-.75,2.21,2.21,0,0,1,1.68.72,2.46,2.46,0,0,1,.67,1.75,2.65,2.65,0,0,1-.61,1.75,55.77,55.77,0,0,1-16.25,11.55C273.77,294.42,267.47,296.07,261.68,296.07Zm-13.27-10.76a1.18,1.18,0,0,0-.67.23,1.52,1.52,0,0,0-.62.92,1.48,1.48,0,0,0,.14,1.09,14.13,14.13,0,0,0,4.6,5.07,13.17,13.17,0,0,0,6.31,2.22c6.47.86,13.91-.7,21.79-4.56A54.68,54.68,0,0,0,295.9,279a1.65,1.65,0,0,0,.36-1.09,1.49,1.49,0,0,0-.39-1.06,1.22,1.22,0,0,0-1.85,0,52.85,52.85,0,0,1-24.67,14.23,1.44,1.44,0,0,1-1.56-.56,1.54,1.54,0,0,1-.15-1.65,7.33,7.33,0,0,0,.77-3.94,7.87,7.87,0,0,0-1.31-3.81,13.06,13.06,0,0,0-3.62-3.33,28.62,28.62,0,0,1-3.25-2.68,3.71,3.71,0,0,1-1.25-2.66,4.88,4.88,0,0,1,1.11-3l4-3.9a1.64,1.64,0,0,0,.42-1,1.41,1.41,0,0,0-.32-1,1.33,1.33,0,0,0-.91-.5,1.3,1.3,0,0,0-1,.28,24,24,0,0,0-4.12,4.07l-10.92,10.94a1.48,1.48,0,0,0-.47,1.5,1.26,1.26,0,0,0,1,1.06,1.29,1.29,0,0,0,1.37-.33l5.4-5.44a1.51,1.51,0,0,1,1.34-.44,1.58,1.58,0,0,1,1.23.86,16.44,16.44,0,0,0,4.81,4.66,14.11,14.11,0,0,1,2.81,2.43,4,4,0,0,1,1,3.56,4.29,4.29,0,0,1-2.05,3,10,10,0,0,1-7.59,1.23,10.58,10.58,0,0,1-6.45-4.39,1.45,1.45,0,0,0-.89-.68A1.76,1.76,0,0,0,248.41,285.31Z"></path><path class="cls-1" d="M340.88,276.29a1.85,1.85,0,0,1,1.35.57,1.87,1.87,0,0,1,.57,1.39,2,2,0,0,1-.57,1.44c-.52.61-1.22,1.35-2.1,2.23s-2.49,2.31-4.84,4.27a74.74,74.74,0,0,1-7,5.22,45.68,45.68,0,0,1-8,4.12,22.9,22.9,0,0,1-8.57,1.85,15.59,15.59,0,0,1-5.77-1.13q-6.4-2.58-9.46-11.42t-2.28-22.38a1.48,1.48,0,0,0-.5-1,1.19,1.19,0,0,0-1-.3q-3,.22-6.12.49l-5.41.45c-1.52.13-2.91.23-4.16.3l-2.89.19-1.06.08h-.14a1.61,1.61,0,0,1-1.36-.49,1.91,1.91,0,0,1-.57-1.4,2.21,2.21,0,0,1,.5-1.44,1.59,1.59,0,0,1,1.28-.6l1.14-.08,3-.22,4.34-.34,5.65-.46,6.41-.49c.85-.1,1.37-.81,1.56-2.12q.64-4.68,1.67-9.14t2.39-8.55a28.84,28.84,0,0,1,3.09-6.73q1.74-2.64,3.6-3c1.89-.35,3.39.65,4.48,3,.71,1.52.64,4.5-.21,9a118.3,118.3,0,0,1-4.13,15.16,1.62,1.62,0,0,0-.11.95,1,1,0,0,0,.25.45.53.53,0,0,0,.36.11q16.29-1,23.48-1.06a1.68,1.68,0,0,1,1.31.61,2.08,2.08,0,0,1,0,2.8,1.67,1.67,0,0,1-1.31.6q-11.1,0-24.76,1.14a1.84,1.84,0,0,0-.89.15,1.42,1.42,0,0,0-.47.68q-1.77,5.52-5.33,15,1.77,13.38,9,16.33a11.8,11.8,0,0,0,4.49.83,16.45,16.45,0,0,0,4.73-.68,32.06,32.06,0,0,0,4.84-1.89,43.51,43.51,0,0,0,4.66-2.57q2.13-1.35,4.3-3c1.45-1.11,2.68-2.1,3.7-3s2-1.77,2.92-2.68l1.92-1.89c.36-.35.61-.61.75-.76A1.59,1.59,0,0,1,340.88,276.29Zm-43.12-9.53c.43,0,1-.93,1.6-2.8s.82-3,.53-3.32a1.58,1.58,0,0,0-1.85.15,3.7,3.7,0,0,0-.53,1.85,15.79,15.79,0,0,0-.11,2.8Q297.48,266.76,297.76,266.76Zm.92-11.79c-.19,1.16,0,1.74.5,1.74a8.74,8.74,0,0,0,1.14-.08,1.34,1.34,0,0,0,1.28-1.28q6.48-20.11,5.19-22.91a.79.79,0,0,0-.56-.57.68.68,0,0,0-.72.19q-1.63,1.89-3.7,8.35A84.54,84.54,0,0,0,298.68,255Z"></path><path class="cls-1" d="M311.71,297.88a15.92,15.92,0,0,1-5.95-1.17C301.36,295,298.08,291,296,285s-2.82-13.52-2.3-22.57a1.05,1.05,0,0,0-.33-.58.73.73,0,0,0-.6-.18l-6.14.5-5.41.45q-2.28.19-4.17.3l-2.88.19-1.1.08h-.14a2.11,2.11,0,0,1-1.71-.64,2.4,2.4,0,0,1-.72-1.75,2.66,2.66,0,0,1,.62-1.75,2,2,0,0,1,1.66-.79l1.11-.08,3-.22,4.34-.34,5.65-.46,6.41-.49c.2,0,.88-.1,1.11-1.69.42-3.11,1-6.21,1.68-9.19s1.49-5.86,2.39-8.59a29,29,0,0,1,3.16-6.84c1.23-1.87,2.54-3,3.91-3.24,2.15-.4,3.84.71,5,3.3.77,1.63.71,4.66-.17,9.27a120.2,120.2,0,0,1-4.15,15.22,1.13,1.13,0,0,0-.1.64c.05.17.09.22.1.22,10.82-.71,18.73-1.07,23.51-1.07a2.18,2.18,0,0,1,1.69.78,2.6,2.6,0,0,1,0,3.46,2.17,2.17,0,0,1-1.69.77c-7.35,0-15.67.38-24.72,1.13a1.83,1.83,0,0,0-.67.08s-.11.07-.26.45c-1.17,3.62-2.95,8.65-5.29,14.91,1.17,8.62,4.07,13.94,8.64,15.81a14,14,0,0,0,8.89.14,32.87,32.87,0,0,0,4.76-1.87,41.65,41.65,0,0,0,4.61-2.54c1.4-.89,2.84-1.9,4.27-3s2.67-2.1,3.67-3,2-1.77,2.9-2.67l1.92-1.89c.35-.34.59-.59.73-.74a2,2,0,0,1,1.65-.76,2.44,2.44,0,0,1,2.42,2.46,2.49,2.49,0,0,1-.71,1.78c-.52.61-1.23,1.37-2.1,2.24s-2.54,2.35-4.88,4.31a78,78,0,0,1-7,5.25,47,47,0,0,1-8.12,4.16A23.52,23.52,0,0,1,311.71,297.88ZM292.9,260.65a1.69,1.69,0,0,1,1.13.44,2,2,0,0,1,.67,1.31c-.52,9,.24,16.46,2.25,22.27s5.07,9.46,9.18,11.11a15,15,0,0,0,5.58,1.1,22.64,22.64,0,0,0,8.38-1.81,45.7,45.7,0,0,0,8-4.08,74.17,74.17,0,0,0,6.93-5.18c2.32-1.94,3.94-3.37,4.81-4.24s1.55-1.6,2.07-2.21a1.52,1.52,0,0,0,.45-1.11,1.4,1.4,0,0,0-.42-1,1.26,1.26,0,0,0-1.9,0c-.16.18-.42.44-.78.8l-1.92,1.89c-.94.91-1.92,1.82-2.94,2.7s-2.27,1.89-3.72,3-2.92,2.13-4.34,3.05a47.39,47.39,0,0,1-4.72,2.6,33.6,33.6,0,0,1-4.91,1.91,14.93,14.93,0,0,1-9.54-.16c-4.95-2-8.07-7.66-9.28-16.73l0-.13.05-.11c2.35-6.31,4.15-11.36,5.33-15a1.79,1.79,0,0,1,.68-.95,2.24,2.24,0,0,1,1.15-.22c9-.76,17.38-1.14,24.76-1.14a1.19,1.19,0,0,0,.94-.43,1.59,1.59,0,0,0,.41-1.07,1.57,1.57,0,0,0-.41-1.07,1.17,1.17,0,0,0-.94-.44c-4.76,0-12.65.36-23.45,1.06h0a1.1,1.1,0,0,1-.69-.22,1.31,1.31,0,0,1-.41-.69,2,2,0,0,1,.11-1.27,116.89,116.89,0,0,0,4.1-15.08c.83-4.34.92-7.25.26-8.65-1-2.16-2.28-3.05-3.94-2.75-1.09.22-2.19,1.17-3.27,2.81a28.41,28.41,0,0,0-3,6.61c-.89,2.7-1.69,5.56-2.37,8.5s-1.24,6-1.66,9.1c-.29,1.95-1.25,2.46-2,2.55q-3.15.22-6.42.49l-5.65.45-4.35.34c-1.3.11-2.31.18-3,.23l-1.18.08a1.08,1.08,0,0,0-.89.42,1.7,1.7,0,0,0-.39,1.12,1.37,1.37,0,0,0,.43,1,1.07,1.07,0,0,0,.95.35h.19l1-.07c.66-.05,1.63-.12,2.89-.19s2.63-.18,4.15-.31l5.4-.45q3.13-.27,6.13-.49Zm4.86,6.61c-.76,0-.82-1.12-.86-1.79a16.81,16.81,0,0,1,.11-2.89,3.84,3.84,0,0,1,.67-2.13,2.07,2.07,0,0,1,2.45-.25l.15.12c.31.39.48,1.12-.45,3.81S298.36,267.26,297.76,267.26Zm.59-6.08a4.22,4.22,0,0,0-.34,1.52,15.79,15.79,0,0,0-.11,2.71c0,.24,0,.43.05.57a10.64,10.64,0,0,0,.94-2.18,7.28,7.28,0,0,0,.63-2.79,1.07,1.07,0,0,0-1.17.17Zm.83-4a1,1,0,0,1-.76-.34,2.44,2.44,0,0,1-.23-2,84.6,84.6,0,0,1,3.15-14.63c1.41-4.41,2.65-7.2,3.8-8.53a1.17,1.17,0,0,1,1.21-.34,1.27,1.27,0,0,1,.92.9c.56,1.22.66,5-5.19,23.21a1.82,1.82,0,0,1-1.72,1.63A9,9,0,0,1,299.18,257.21ZM306,232.34a.16.16,0,0,0-.13.06c-1,1.19-2.24,3.94-3.59,8.17A83.37,83.37,0,0,0,299.18,255v0c-.16,1,0,1.17,0,1.17.36,0,.72,0,1.07-.08s.73-.15.86-.88c5.32-16.54,5.78-21.42,5.23-22.61-.07-.22-.14-.27-.24-.3Z"></path><path class="cls-1" d="M339.45,271.07a1.71,1.71,0,0,1-1.78-1.51,1.89,1.89,0,0,1,.93-2.27,12.85,12.85,0,0,0,3.55-2.8,1.77,1.77,0,0,1,1.32-.6,1.81,1.81,0,0,1,1.32.57,1.94,1.94,0,0,1,.6,1.36,1.87,1.87,0,0,1-.53,1.4,17.29,17.29,0,0,1-4.49,3.55A1.56,1.56,0,0,1,339.45,271.07Zm44.15,5.37a1.81,1.81,0,0,1,1.32.57,1.87,1.87,0,0,1,.57,1.39,2.19,2.19,0,0,1-.5,1.44c-.57.61-1.31,1.35-2.21,2.23s-2.55,2.32-4.94,4.31a74.94,74.94,0,0,1-7.15,5.29,43.53,43.53,0,0,1-8.4,4.12,26,26,0,0,1-9.11,1.82,18,18,0,0,1-11.74-4.08,8.27,8.27,0,0,1-2.84-4,13.11,13.11,0,0,1-.79-4.61,21.06,21.06,0,0,1,.71-4.54,31.63,31.63,0,0,1,1-3.4c.26-.66.48-1.19.67-1.59a2.16,2.16,0,0,1,1.14-.91,1.67,1.67,0,0,1,1.39.16,1.92,1.92,0,0,1,.92,1.13,1.8,1.8,0,0,1-.1,1.44c-.1.25-.25.61-.47,1.09a25.18,25.18,0,0,0-.85,2.53,17.87,17.87,0,0,0-.68,3.41,10.13,10.13,0,0,0,.32,3.36,4.86,4.86,0,0,0,1.75,2.76,14.78,14.78,0,0,0,7,3A18.53,18.53,0,0,0,358,293a35,35,0,0,0,7.25-2.84,50.13,50.13,0,0,0,6.55-4c1.87-1.36,3.67-2.79,5.41-4.31s2.95-2.63,3.66-3.36,1.19-1.22,1.42-1.48A1.77,1.77,0,0,1,383.6,276.44Z"></path><path class="cls-1" d="M353,298.11a18.51,18.51,0,0,1-11.82-4.19,8.83,8.83,0,0,1-3-4.24,13.84,13.84,0,0,1-.81-4.79,21.57,21.57,0,0,1,.73-4.65,35.14,35.14,0,0,1,1-3.46c.27-.66.5-1.2.69-1.61a2.59,2.59,0,0,1,1.44-1.17,2.15,2.15,0,0,1,1.78.19,2.47,2.47,0,0,1,1.16,1.41,2.28,2.28,0,0,1-.14,1.83c-.07.2-.23.57-.45,1.06a24.36,24.36,0,0,0-.83,2.48,16.75,16.75,0,0,0-.66,3.3,9.48,9.48,0,0,0,.31,3.2A4.44,4.44,0,0,0,344,290a14.24,14.24,0,0,0,6.74,2.89,17.9,17.9,0,0,0,7.17-.33,34.31,34.31,0,0,0,7.15-2.79,51,51,0,0,0,6.49-3.93c1.85-1.35,3.66-2.79,5.37-4.28s2.94-2.63,3.63-3.34l1.42-1.47a2.28,2.28,0,0,1,3.35-.05,2.39,2.39,0,0,1,.72,1.75,2.66,2.66,0,0,1-.62,1.76c-.59.63-1.33,1.38-2.24,2.27s-2.58,2.35-5,4.34a76.34,76.34,0,0,1-7.2,5.32,43.89,43.89,0,0,1-8.49,4.17A27,27,0,0,1,353,298.11ZM341.9,274.89a1.31,1.31,0,0,0-.38.06,1.54,1.54,0,0,0-.86.7c-.16.34-.38.86-.64,1.5s-.59,1.76-1,3.35a20.09,20.09,0,0,0-.7,4.42,12.6,12.6,0,0,0,.76,4.44,7.76,7.76,0,0,0,2.67,3.77,17.52,17.52,0,0,0,11.44,4,25.66,25.66,0,0,0,8.93-1.78,43.66,43.66,0,0,0,8.3-4.08,76.14,76.14,0,0,0,7.11-5.25c2.37-2,4-3.42,4.91-4.29s1.63-1.61,2.19-2.21a1.68,1.68,0,0,0,.37-1.1,1.39,1.39,0,0,0-.43-1,1.26,1.26,0,0,0-1.91,0l-1.43,1.48c-.72.74-1.93,1.85-3.69,3.39s-3.57,3-5.45,4.34a51.74,51.74,0,0,1-6.61,4,35.76,35.76,0,0,1-7.36,2.87,18.93,18.93,0,0,1-7.56.35,15.42,15.42,0,0,1-7.21-3.08,5.41,5.41,0,0,1-1.92-3,10.44,10.44,0,0,1-.33-3.54,18.14,18.14,0,0,1,.69-3.5,22.67,22.67,0,0,1,.88-2.59c.21-.47.36-.82.45-1.07a1.36,1.36,0,0,0,.1-1.11,1.48,1.48,0,0,0-.7-.85A1.25,1.25,0,0,0,341.9,274.89Zm-2.45-3.32a2.19,2.19,0,0,1-2.27-1.9,2.4,2.4,0,0,1,1.16-2.81,12.61,12.61,0,0,0,3.44-2.7,2.28,2.28,0,0,1,3.36-.06,2.49,2.49,0,0,1,.75,1.69,2.36,2.36,0,0,1-.67,1.77,17.52,17.52,0,0,1-4.61,3.65A2,2,0,0,1,339.45,271.57Zm4-7.18a1.26,1.26,0,0,0-1,.45,13.53,13.53,0,0,1-3.69,2.89,1.38,1.38,0,0,0-.67,1.71c.18.78.58,1.13,1.29,1.13a1.09,1.09,0,0,0,.64-.21,17.16,17.16,0,0,0,4.4-3.48,1.36,1.36,0,0,0,.4-1,1.51,1.51,0,0,0-.46-1A1.32,1.32,0,0,0,343.47,264.39Z"></path><path class="cls-1" d="M443.33,278.1a1.95,1.95,0,0,1,2,1.89,1.91,1.91,0,0,1-.54,1.44c-.28.35-.68.81-1.2,1.36s-1.5,1.46-2.92,2.72-2.87,2.45-4.34,3.56a42.46,42.46,0,0,1-5.37,3.36,35.68,35.68,0,0,1-6.23,2.65A21,21,0,0,1,418,296a18.16,18.16,0,0,1-6.8-1.44,20.48,20.48,0,0,1-8.61-8.7,2.66,2.66,0,0,0-.32-.6q-.31-.52-.57-.87c-.16-.23-.38-.49-.64-.79a2.55,2.55,0,0,0-.85-.68,1.61,1.61,0,0,0-1-.16q-5.7.17-16.08,13.08a1.64,1.64,0,0,1-2.24.46,1.78,1.78,0,0,1-1-2.19l3.56-16.64a1.87,1.87,0,0,1,.82-1.21,1.69,1.69,0,0,1,1.42-.26,1.73,1.73,0,0,1,1.14.91,2.13,2.13,0,0,1,.25,1.47l-1.64,7.48a.49.49,0,0,0,.29.57.48.48,0,0,0,.64-.11q7.9-7.93,13.31-7.56a5.4,5.4,0,0,1,3.84,2,18.29,18.29,0,0,1,2.13,2.95,16.93,16.93,0,0,0,6.83,7.18,13.24,13.24,0,0,0,4.63,1.14,18.19,18.19,0,0,0,4.59-.27,22.25,22.25,0,0,0,4.44-1.36,31.17,31.17,0,0,0,4.17-2.08q1.88-1.12,3.77-2.49c1.26-.91,2.31-1.74,3.17-2.5s1.68-1.51,2.49-2.26,1.34-1.29,1.6-1.59l.6-.68A1.6,1.6,0,0,1,443.33,278.1Z"></path><path class="cls-1" d="M381.89,297a2.43,2.43,0,0,1-1.15-.31,2.25,2.25,0,0,1-1.22-2.75l3.55-16.62a2.32,2.32,0,0,1,1-1.52,2.23,2.23,0,0,1,1.83-.34,2.28,2.28,0,0,1,1.45,1.15,2.65,2.65,0,0,1,.3,1.81l-1.64,7.5c5.51-5.46,10-8,13.78-7.71a5.9,5.9,0,0,1,4.19,2.14,18.71,18.71,0,0,1,2.18,3,16.66,16.66,0,0,0,6.65,7,12.86,12.86,0,0,0,4.41,1.07,17.63,17.63,0,0,0,4.46-.26,22,22,0,0,0,4.35-1.33,31.33,31.33,0,0,0,4.1-2c1.24-.75,2.5-1.58,3.74-2.48s2.28-1.72,3.12-2.46,1.68-1.51,2.48-2.26,1.33-1.27,1.57-1.55.47-.54.62-.7a2.1,2.1,0,0,1,1.64-.76,2.41,2.41,0,0,1,1.69.67,2.36,2.36,0,0,1,.77,1.7,2.4,2.4,0,0,1-.67,1.8c-.27.33-.67.79-1.21,1.36s-1.53,1.5-3,2.76-2.89,2.46-4.37,3.58a42.87,42.87,0,0,1-5.44,3.4,35.07,35.07,0,0,1-6.31,2.68,21.71,21.71,0,0,1-6.81.9,18.68,18.68,0,0,1-7-1.48,21.07,21.07,0,0,1-8.86-8.92l-.06-.15a3.5,3.5,0,0,0-.25-.43,8.67,8.67,0,0,0-.54-.83c-.16-.22-.37-.48-.62-.77a2.17,2.17,0,0,0-.69-.55,1.05,1.05,0,0,0-.67-.11c-3.68.1-9,4.44-15.76,12.9A2.2,2.2,0,0,1,381.89,297Zm3.48-20.61a1.26,1.26,0,0,0-.71.24,1.3,1.3,0,0,0-.61.89l-3.56,16.64a1.28,1.28,0,0,0,.71,1.64,1.14,1.14,0,0,0,1.62-.32c7.08-8.82,12.47-13.16,16.45-13.27a2.08,2.08,0,0,1,1.2.21,3.16,3.16,0,0,1,1,.8c.27.31.49.59.67.82s.37.54.59.91a3.49,3.49,0,0,1,.36.69,20.1,20.1,0,0,0,8.38,8.43,17.74,17.74,0,0,0,6.57,1.38,20.52,20.52,0,0,0,6.49-.85,34.65,34.65,0,0,0,6.14-2.61,42.67,42.67,0,0,0,5.31-3.32c1.45-1.1,2.9-2.29,4.31-3.53s2.37-2.15,2.88-2.69.91-1,1.19-1.33a1.46,1.46,0,0,0,.42-1.11,1.4,1.4,0,0,0-.45-1,1.29,1.29,0,0,0-1.9,0l-.61.69c-.27.31-.81.85-1.64,1.63s-1.65,1.52-2.5,2.28-1.95,1.61-3.21,2.52-2.54,1.76-3.8,2.52a31.47,31.47,0,0,1-4.23,2.11,22.87,22.87,0,0,1-4.55,1.39,18.64,18.64,0,0,1-4.71.28,13.93,13.93,0,0,1-4.8-1.18,17.51,17.51,0,0,1-7.07-7.41,17.93,17.93,0,0,0-2.07-2.84,4.85,4.85,0,0,0-3.5-1.8c-3.44-.26-7.78,2.25-12.92,7.41a1,1,0,0,1-1.23.2,1,1,0,0,1-.54-1.1l1.64-7.5a1.65,1.65,0,0,0-.2-1.13,1.26,1.26,0,0,0-.82-.66A1.76,1.76,0,0,0,385.37,276.39Z"></path><path class="cls-1" d="M500.22,277.27a1.75,1.75,0,0,1,1.24.72,2,2,0,0,1,.43,1.47,1.92,1.92,0,0,1-.71,1.36c-.71.61-1.59,1.32-2.64,2.12s-3.06,2.16-6,4.05a85.79,85.79,0,0,1-8.93,4.95,66.17,66.17,0,0,1-10.71,3.85,44.69,44.69,0,0,1-12,1.74A34.15,34.15,0,0,1,447,294.74a14,14,0,0,1-3.6-2.16,10.61,10.61,0,0,1-2.17-2.42,9,9,0,0,1-1-2.49,8.51,8.51,0,0,1-.28-2.31,10.12,10.12,0,0,1,.25-2,16.54,16.54,0,0,1,3.7-7,22.77,22.77,0,0,1,6.51-5.44,12.3,12.3,0,0,1,6.44-1.81,4.48,4.48,0,0,1,3.31,1.43,5.55,5.55,0,0,1,1.53,3.56q.35,3.63-3.85,6.57a20.92,20.92,0,0,1-13.23,3.56.74.74,0,0,0-.64.15.59.59,0,0,0-.22.6q-.49,3.86,4.7,6a28.87,28.87,0,0,0,10,2.38,38.89,38.89,0,0,0,10-.56,55.77,55.77,0,0,0,9.47-2.8,67.13,67.13,0,0,0,8.29-3.82q3.45-1.94,6.69-4.08t4.41-3.06c.78-.61,1.34-1.06,1.67-1.36A1.81,1.81,0,0,1,500.22,277.27Zm-54.05,2.34c-.61.91-.35,1.32.79,1.21a20.24,20.24,0,0,0,7.61-2.72l1.21-.75c1.47-1.06,2.16-2,2.06-2.88a1.69,1.69,0,0,0-.35-1.09,1.61,1.61,0,0,0-.93-.34,9.22,9.22,0,0,0-5.3,1.74A17.61,17.61,0,0,0,446.17,279.61Z"></path><path class="cls-1" d="M460.54,298a34.62,34.62,0,0,1-13.78-2.84A14.39,14.39,0,0,1,443,293a10.93,10.93,0,0,1-2.27-2.54,9.1,9.1,0,0,1-1.09-2.64,8.71,8.71,0,0,1-.3-2.44,10.85,10.85,0,0,1,.26-2,17.27,17.27,0,0,1,3.8-7.25,23.63,23.63,0,0,1,6.66-5.56,12.79,12.79,0,0,1,6.7-1.87h0a5,5,0,0,1,3.64,1.58,6,6,0,0,1,1.66,3.87c.26,2.59-1.11,4.95-4.05,7a21.56,21.56,0,0,1-13.55,3.65c-.17,0-.23,0-.3,0s0,0,0,.12v.16c-.3,2.34,1.13,4.14,4.4,5.52a28.68,28.68,0,0,0,9.79,2.34,38.44,38.44,0,0,0,9.84-.55,55,55,0,0,0,9.38-2.78,66.67,66.67,0,0,0,8.22-3.79c2.28-1.27,4.52-2.63,6.66-4.06s3.61-2.45,4.38-3,1.32-1,1.64-1.33a2.3,2.3,0,0,1,1.78-.59h0a2.28,2.28,0,0,1,1.59.91,2.59,2.59,0,0,1,.53,1.83,2.38,2.38,0,0,1-.9,1.7c-.71.61-1.6,1.32-2.64,2.13s-3.1,2.18-6.09,4.07a85.76,85.76,0,0,1-9,5A67.37,67.37,0,0,1,473,296.28,46.62,46.62,0,0,1,460.54,298Zm-4.15-28.43a12.36,12.36,0,0,0-5.81,1.76,22.23,22.23,0,0,0-6.37,5.33,16.12,16.12,0,0,0-3.59,6.81,10,10,0,0,0-.24,1.88,8.32,8.32,0,0,0,.27,2.17,8.46,8.46,0,0,0,1,2.35,9.86,9.86,0,0,0,2.07,2.3,13.4,13.4,0,0,0,3.46,2.08A33.89,33.89,0,0,0,460.9,297a44.34,44.34,0,0,0,11.82-1.72,65.79,65.79,0,0,0,10.63-3.82,84.93,84.93,0,0,0,8.88-4.93c3-1.87,5-3.22,6-4s1.91-1.51,2.61-2.11a1.42,1.42,0,0,0,.54-1,1.52,1.52,0,0,0-.32-1.12,1.3,1.3,0,0,0-.9-.53h0a1.34,1.34,0,0,0-1,.34c-.33.3-.9.76-1.69,1.37s-2.25,1.63-4.44,3.08-4.42,2.82-6.72,4.11a68.17,68.17,0,0,1-8.35,3.84,55.84,55.84,0,0,1-9.55,2.83,39.45,39.45,0,0,1-10.09.57,29.62,29.62,0,0,1-10.13-2.42c-3.64-1.54-5.33-3.72-5-6.5a1.05,1.05,0,0,1,.41-1,1.21,1.21,0,0,1,1.05-.25,20.64,20.64,0,0,0,12.86-3.48c2.65-1.87,3.84-3.87,3.62-6.11a5,5,0,0,0-1.39-3.26,4,4,0,0,0-3-1.28Zm-9.75,11.74a1.29,1.29,0,0,1-1.17-.5c-.34-.58.14-1.28.29-1.51h0a17.86,17.86,0,0,1,5.23-5,9.7,9.7,0,0,1,5.6-1.81,2.15,2.15,0,0,1,1.23.47,2.11,2.11,0,0,1,.51,1.42c.12,1.05-.62,2.14-2.27,3.32l-1.23.77a20.87,20.87,0,0,1-7.84,2.8Zm-.28-1a2.71,2.71,0,0,0,.55,0,20.15,20.15,0,0,0,7.42-2.67l1.19-.74c1.26-.91,1.9-1.74,1.83-2.39a1.55,1.55,0,0,0-.2-.79,1.23,1.23,0,0,0-.65-.21,8.85,8.85,0,0,0-5,1.67,17,17,0,0,0-4.94,4.7A1.67,1.67,0,0,0,446.36,280.32Z"></path><path class="cls-1" d="M570.47,294.89a67,67,0,0,1-25.33,5.89q-7.26,0-11.84-2.23c-3.06-1.48-5.12-3.13-6.16-4.95a4.41,4.41,0,0,1,.36-5.59,8.93,8.93,0,0,1,3-2.31,18.68,18.68,0,0,1,3.48-1.32,17.63,17.63,0,0,1,4.52-.42c1.87,0,3.47.09,4.8.19s3.23.38,5.7.83,4.43.83,5.9,1.14,3.68.78,6.62,1.43q5.26,1.21,8.47,1.89a6.52,6.52,0,0,0,4.27-.53l1-.52q13.95-6.74,30.88-26.84a1.51,1.51,0,0,0,.18-1.63,1.35,1.35,0,0,0-1.32-.87,57.68,57.68,0,0,1-11.84-1,34.83,34.83,0,0,1-8.58-2.69,21.44,21.44,0,0,1-5.65-4,18,18,0,0,1-5.31-8.69,23.35,23.35,0,0,1,.15-12.51,34.85,34.85,0,0,1,17.36-21.51,1.84,1.84,0,0,1,1.42,0,1.9,1.9,0,0,1,1.07,1,2.06,2.06,0,0,1-.85,2.69,29.58,29.58,0,0,0-9.58,7.82A30.08,30.08,0,0,0,577.45,231a18.93,18.93,0,0,0-.22,10.63q2,7.24,10.25,10.69T609,254.89a6,6,0,0,0,4.48-2.42q3.06-3.93,7.61-9.9,12.81-16.71,18.79-23.06,12.31-13,21.91-12.93a14.94,14.94,0,0,1,3.7.45,2.66,2.66,0,0,1,1,.38,8.2,8.2,0,0,1,1.06.87,3.79,3.79,0,0,1,1,1.7,7.54,7.54,0,0,1,.29,2.65,21.15,21.15,0,0,1-1.92,7,59.35,59.35,0,0,1-4.84,8.81,63.5,63.5,0,0,1-7.72,9.49,87.12,87.12,0,0,1-10.07,8.88,59.83,59.83,0,0,1-12.42,7.11A56,56,0,0,1,617.58,258l-1.28.15a7.09,7.09,0,0,0-4.63,2.65q-16.08,19.81-29.24,28a1.57,1.57,0,0,0-.68,1.66,1.35,1.35,0,0,0,1.25,1.21A110,110,0,0,0,597.3,293a84,84,0,0,0,13.91-1,54.06,54.06,0,0,0,14.12-4.2,55.6,55.6,0,0,0,12.95-8.17,1.84,1.84,0,0,1,1.39-.45,1.77,1.77,0,0,1,1.25.72,1.93,1.93,0,0,1,.39,1.47,2.14,2.14,0,0,1-.68,1.36A55.78,55.78,0,0,1,628,290.77a63.13,63.13,0,0,1-13.13,4.5,72.7,72.7,0,0,1-13.69,1.51,108,108,0,0,1-13.38-.49q-6-.65-13.06-1.93A7.3,7.3,0,0,0,570.47,294.89Zm-31.59-7a23.08,23.08,0,0,0-6,.72c-1.78.48-2.67,1.17-2.67,2.08A3,3,0,0,0,532,293.3q11.17,6.81,30.74.23c.61-.2.78-.51.5-.91a4.18,4.18,0,0,0-2.49-1.14A97.81,97.81,0,0,0,538.88,287.93Zm122.88-77.42a13,13,0,0,0-3.87.64A27.38,27.38,0,0,0,654,212.7a23.7,23.7,0,0,0-4.09,2.76c-1.52,1.24-2.84,2.35-4,3.33a48.4,48.4,0,0,0-4.27,4.35c-1.71,1.91-3.11,3.49-4.2,4.72s-2.58,3.07-4.48,5.49-3.37,4.29-4.41,5.63-2.61,3.39-4.7,6.16q-2.07,2.72-4.27,5.52a1.66,1.66,0,0,0-.1,1.89,1.34,1.34,0,0,0,1.6.75,55.48,55.48,0,0,0,12.59-4.61,57.59,57.59,0,0,0,10.78-6.95,83.23,83.23,0,0,0,8.57-8.17,62,62,0,0,0,6.48-8.35,53.46,53.46,0,0,0,4-7.37,16.14,16.14,0,0,0,1.5-5.45c0-1-.1-1.46-.43-1.51A10.6,10.6,0,0,0,661.76,210.51Z"></path><path class="cls-1" d="M545.16,301.28c-4.91,0-9-.76-12.08-2.28s-5.28-3.25-6.37-5.15a4.92,4.92,0,0,1,.42-6.19,9.61,9.61,0,0,1,3.14-2.41,19.45,19.45,0,0,1,3.57-1.35,17.7,17.7,0,0,1,4.66-.44c1.88,0,3.5.09,4.83.19s3.28.39,5.75.84,4.44.83,5.91,1.14,3.68.78,6.63,1.44c3.47.79,6.32,1.43,8.46,1.88a6.08,6.08,0,0,0,3.95-.49l1-.52c9.2-4.44,19.54-13.43,30.73-26.72a1,1,0,0,0,.1-1.1.85.85,0,0,0-.86-.57,58,58,0,0,1-11.94-1,35.38,35.38,0,0,1-8.7-2.73,22.48,22.48,0,0,1-5.79-4.06,20.55,20.55,0,0,1-3.6-4.5,20.31,20.31,0,0,1-1.83-4.41,24,24,0,0,1,.14-12.78,35.44,35.44,0,0,1,17.62-21.83,2.41,2.41,0,0,1,3.17,1.17,2.45,2.45,0,0,1,.13,1.88,2.42,2.42,0,0,1-1.2,1.47,30.56,30.56,0,0,0-15.05,18.33,18.46,18.46,0,0,0-.22,10.34c1.29,4.67,4.63,8.16,10,10.38s12.56,3.12,21.27,2.57a5.57,5.57,0,0,0,4.12-2.22q3-3.93,7.61-9.9c8.51-11.11,14.84-18.88,18.82-23.1,8.22-8.69,15.68-13.09,22.17-13.09a16.45,16.45,0,0,1,3.93.47,2.89,2.89,0,0,1,1.18.44,9.39,9.39,0,0,1,1.14.93,4.37,4.37,0,0,1,1.09,1.91,8.28,8.28,0,0,1,.31,2.82,21.7,21.7,0,0,1-2,7.17,59.4,59.4,0,0,1-4.88,8.88,64.52,64.52,0,0,1-7.78,9.57,88.25,88.25,0,0,1-10.13,8.93A60.16,60.16,0,0,1,632,254.37a57.41,57.41,0,0,1-14.39,4.12l-1.29.15a6.48,6.48,0,0,0-4.3,2.47c-10.71,13.18-20.59,22.66-29.37,28.15a1.06,1.06,0,0,0-.44,1.16.85.85,0,0,0,.82.8,110.8,110.8,0,0,0,14.24,1.24,82.85,82.85,0,0,0,13.82-1,53.9,53.9,0,0,0,14-4.16A54.89,54.89,0,0,0,638,279.23a2.36,2.36,0,0,1,1.76-.57,2.26,2.26,0,0,1,1.59.91,2.4,2.4,0,0,1,.49,1.85,2.6,2.6,0,0,1-.83,1.66,56.44,56.44,0,0,1-12.76,8.14A63.48,63.48,0,0,1,615,295.75a73,73,0,0,1-13.79,1.53,107,107,0,0,1-13.44-.5c-4-.42-8.41-1.07-13.1-1.93a6.86,6.86,0,0,0-4,.49,67.89,67.89,0,0,1-25.52,5.94Zm-7.09-16.82a15.86,15.86,0,0,0-4,.4,19.09,19.09,0,0,0-3.4,1.29,8.72,8.72,0,0,0-2.82,2.18,3.75,3.75,0,0,0-1.06,2.43,3.81,3.81,0,0,0,.73,2.55c1,1.76,3,3.36,6,4.79a26.81,26.81,0,0,0,11.63,2.18,66.73,66.73,0,0,0,25.13-5.85h0a7.93,7.93,0,0,1,4.56-.57c4.67.86,9,1.5,13,1.93a107.06,107.06,0,0,0,13.32.49,72.67,72.67,0,0,0,13.6-1.5,62.7,62.7,0,0,0,13-4.47,55.69,55.69,0,0,0,12.52-8,1.61,1.61,0,0,0,.5-1,1.39,1.39,0,0,0-.29-1.1,1.28,1.28,0,0,0-.9-.53,1.36,1.36,0,0,0-1,.34,56.34,56.34,0,0,1-13.06,8.24,55,55,0,0,1-14.25,4.23,84.94,84.94,0,0,1-14,1,113,113,0,0,1-14.37-1.25,1.84,1.84,0,0,1-1.66-1.63,2.06,2.06,0,0,1,.88-2.15c8.71-5.45,18.51-14.85,29.14-28a7.58,7.58,0,0,1,5-2.82l1.29-.15a56.56,56.56,0,0,0,14.13-4.05,59.56,59.56,0,0,0,12.31-7,87.05,87.05,0,0,0,10-8.83,64.14,64.14,0,0,0,7.66-9.41,58.88,58.88,0,0,0,4.8-8.74,20.64,20.64,0,0,0,1.88-6.82,7.53,7.53,0,0,0-.26-2.47,3.33,3.33,0,0,0-.83-1.48,7.43,7.43,0,0,0-1-.82,1.88,1.88,0,0,0-.82-.3,16,16,0,0,0-3.74-.45c-6.21,0-13.42,4.3-21.45,12.77-4,4.2-10.26,11.94-18.75,23q-4.56,6-7.61,9.91a6.59,6.59,0,0,1-4.84,2.61c-8.87.56-16.18-.33-21.72-2.64s-9.17-6.06-10.54-11a19.39,19.39,0,0,1,.22-10.89,31.62,31.62,0,0,1,15.55-19,1.41,1.41,0,0,0,.71-.88,1.46,1.46,0,0,0-.08-1.14,1.41,1.41,0,0,0-.79-.73,1.39,1.39,0,0,0-1.06,0,34.44,34.44,0,0,0-17.07,21.18,22.85,22.85,0,0,0-.14,12.24,18.86,18.86,0,0,0,1.73,4.2,19.49,19.49,0,0,0,3.44,4.28,21.38,21.38,0,0,0,5.53,3.88,35,35,0,0,0,8.44,2.64,57.64,57.64,0,0,0,11.75,1,1.85,1.85,0,0,1,1.78,1.16,2,2,0,0,1-.24,2.14c-11.3,13.42-21.74,22.49-31.06,27l-1,.52a7.09,7.09,0,0,1-4.61.57c-2.14-.45-5-1.09-8.47-1.89q-4.41-1-6.61-1.43c-1.47-.31-3.43-.68-5.9-1.13a56.93,56.93,0,0,0-5.64-.83c-1.3-.1-2.91-.16-4.77-.19Zm7.45,12.78a26.09,26.09,0,0,1-13.8-3.51,3.51,3.51,0,0,1-2-3c0-1.16,1-2,3-2.56a23.64,23.64,0,0,1,6.14-.74h0a99.19,99.19,0,0,1,22,3.57c1.52.34,2.41.77,2.78,1.35a1,1,0,0,1,.17.89,1.3,1.3,0,0,1-.94.76A55.18,55.18,0,0,1,545.52,297.24Zm-6.65-8.81a22.93,22.93,0,0,0-5.87.7c-1,.29-2.3.79-2.3,1.6a2.54,2.54,0,0,0,1.53,2.14c7.29,4.44,17.49,4.5,30.33.18a.74.74,0,0,0,.31-.15c-.17-.17-.57-.56-2.25-.93A97.78,97.78,0,0,0,538.87,288.43Zm81.89-34.59a1.82,1.82,0,0,1-1.66-1.05,2.18,2.18,0,0,1,.13-2.42c1.49-1.88,2.91-3.72,4.28-5.53,2.12-2.82,3.66-4.84,4.7-6.17l4.41-5.63c1.89-2.41,3.41-4.26,4.51-5.51s2.49-2.81,4.2-4.72a48.29,48.29,0,0,1,4.31-4.4c1.15-1,2.49-2.11,4-3.33a23.78,23.78,0,0,1,4.18-2.82,26.74,26.74,0,0,1,3.92-1.58,12.18,12.18,0,0,1,7-.27c.88.13.81,1.5.79,2A16.55,16.55,0,0,1,664,218a52.82,52.82,0,0,1-4,7.44,62.18,62.18,0,0,1-6.53,8.43,84.14,84.14,0,0,1-8.62,8.21,58.41,58.41,0,0,1-10.87,7,57,57,0,0,1-12.71,4.65A2.09,2.09,0,0,1,620.76,253.84Zm41-42.83a12.43,12.43,0,0,0-3.72.62,26.26,26.26,0,0,0-3.77,1.52,23.23,23.23,0,0,0-4,2.7c-1.5,1.22-2.84,2.34-4,3.32a50.1,50.1,0,0,0-4.22,4.3l-4.19,4.72c-1.09,1.23-2.59,3.07-4.47,5.46L629,239.28c-1,1.33-2.57,3.35-4.69,6.16-1.38,1.82-2.8,3.66-4.28,5.53a1.17,1.17,0,0,0-.06,1.34.87.87,0,0,0,1.06.51,55.89,55.89,0,0,0,12.47-4.57,57.48,57.48,0,0,0,10.69-6.9,82.16,82.16,0,0,0,8.52-8.11,61.65,61.65,0,0,0,6.43-8.29,52.35,52.35,0,0,0,3.94-7.3,15.79,15.79,0,0,0,1.46-5.26,2.67,2.67,0,0,0-.08-1A10.7,10.7,0,0,0,661.76,211Zm2.74.36h0Z"></path><path class="cls-1" d="M760.52,274.55q-13.66,22.08-27,22.08-7.62,0-17-4a89.51,89.51,0,0,1-17.61-9.94A114,114,0,0,1,684,269.86a54.91,54.91,0,0,1-9.6-12.55q-3.84-7.41-1.07-11.94,3.35-5.44,15.23-4.47a115.89,115.89,0,0,1,16,2.61q8.72,2,18.4,5.22T740.66,255q8,3.06,18.29,7.22a3.78,3.78,0,0,0,2.95,0,4.41,4.41,0,0,0,2.25-2.12q3-6.27,6-13.69a383.51,383.51,0,0,0,15.59-47.32,1.72,1.72,0,0,1,1.7-1.44,1.62,1.62,0,0,1,1.85,1.21,26.69,26.69,0,0,1,.68,6.39q.18,5,.25,18.48.21,33.12,1.35,48.84a4.25,4.25,0,0,0,.85,2.39,4.44,4.44,0,0,0,2,1.47,55.75,55.75,0,0,0,16.79,4.16,1.8,1.8,0,0,1,1.28.56,2,2,0,0,1,.6,1.37,1.88,1.88,0,0,1-.49,1.39,1.69,1.69,0,0,1-1.32.61,46.08,46.08,0,0,1-15.15-3.33,2.33,2.33,0,0,0-2.46.57,2.73,2.73,0,0,0-.89,2.53q1.21,7.49,2.92,8.17a2.08,2.08,0,0,1,1.07,1,1.88,1.88,0,0,1,.1,1.47,1.91,1.91,0,0,1-.92,1.14,1.7,1.7,0,0,1-1.39.15q-4.12-1.44-5.91-15.27a4,4,0,0,0-2.7-3.48q-5.55-2.19-15.44-6.28l-1.64-.41c-.71-.18-1.21-.29-1.49-.34s-.7-.12-1.25-.19a3,3,0,0,0-1.21,0,10.51,10.51,0,0,0-1.06.38,3,3,0,0,0-1.14.75,15.9,15.9,0,0,0-1.07,1.29A14.11,14.11,0,0,0,760.52,274.55Zm-75.43-29.86q-7,0-8.68,2.79-1.56,2.58,1.21,7.94a50.86,50.86,0,0,0,9.54,12.36,106,106,0,0,0,14.48,12.1A90.73,90.73,0,0,0,718.18,289q8.69,3.66,15.3,3.66,11.73,0,24.33-21a4.45,4.45,0,0,0,.47-3.75,4.15,4.15,0,0,0-2.46-2.76q-21-8.54-37.71-13.91t-29.89-6.42C687.13,244.74,686.09,244.69,685.09,244.69Zm100-29A310,310,0,0,1,765.85,265l2.85,1.21q9.88,4.08,14.3,5.82a3,3,0,0,0,3.2-.49,3.43,3.43,0,0,0,1.36-3.13q-.85-14.6-1.07-44.69c0-3.47,0-6-.07-7.63a2.3,2.3,0,0,0-.25-1.21c-.17-.25-.36-.32-.57-.19S785.21,215.18,785.06,215.73Z"></path><path class="cls-1" d="M733.48,297.13c-5.12,0-10.92-1.37-17.24-4.05a90.84,90.84,0,0,1-17.71-10,114,114,0,0,1-14.93-12.87,55.53,55.53,0,0,1-9.7-12.67c-2.63-5.08-3-9.26-1-12.43,2.33-3.79,7.62-5.37,15.7-4.7A113.83,113.83,0,0,1,704.67,243c5.8,1.33,12,3.09,18.43,5.23s12.42,4.25,17.74,6.28,11.45,4.44,18.3,7.22a3.19,3.19,0,0,0,2.57,0,3.83,3.83,0,0,0,2-1.88c2-4.16,4.06-8.75,6-13.64A384.89,384.89,0,0,0,785.29,199a2.22,2.22,0,0,1,2.17-1.81,2.11,2.11,0,0,1,2.34,1.54,26.4,26.4,0,0,1,.71,6.54c.12,3.34.2,9.57.25,18.5.14,22,.6,38.39,1.35,48.81a3.65,3.65,0,0,0,.75,2.11,3.91,3.91,0,0,0,1.77,1.31,55.49,55.49,0,0,0,16.66,4.13h0a2.23,2.23,0,0,1,1.58.71,2.49,2.49,0,0,1,.75,1.69,2.42,2.42,0,0,1-.62,1.76,2.17,2.17,0,0,1-1.69.77A46.85,46.85,0,0,1,796,281.67a1.79,1.79,0,0,0-1.93.47,2.24,2.24,0,0,0-.73,2.09c1,6.26,2.06,7.56,2.6,7.77a2.57,2.57,0,0,1,1.33,1.27,2.38,2.38,0,0,1,.14,1.85,2.47,2.47,0,0,1-1.16,1.41,2.15,2.15,0,0,1-1.78.19c-3-1-5-6.16-6.25-15.68a3.58,3.58,0,0,0-2.39-3.08c-3.7-1.46-8.89-3.57-15.45-6.28l-1.57-.39c-.69-.17-1.18-.28-1.46-.33l-1.23-.19a2.74,2.74,0,0,0-1,0q-.37.11-1,.36a2.67,2.67,0,0,0-1,.63,14.69,14.69,0,0,0-1,1.25,12.86,12.86,0,0,0-1.13,1.79l0,0C751.78,289.62,742.54,297.13,733.48,297.13ZM685.1,241.26c-5.78,0-9.61,1.46-11.39,4.37s-1.38,6.7,1.08,11.45a55,55,0,0,0,9.52,12.43,113.58,113.58,0,0,0,14.81,12.76,89.61,89.61,0,0,0,17.51,9.89c6.19,2.63,11.86,4,16.85,4,8.69,0,17.64-7.35,26.6-21.83a15.79,15.79,0,0,1,1.21-1.91c.41-.53.78-1,1.1-1.32a3.64,3.64,0,0,1,1.32-.88c.47-.18.84-.31,1.12-.39a3.54,3.54,0,0,1,1.41,0l1.26.19c.3.06.81.17,1.53.35l1.65.42c6.61,2.73,11.81,4.84,15.49,6.29a4.55,4.55,0,0,1,3,3.88c1.44,11.18,3.82,14.26,5.57,14.86a1.14,1.14,0,0,0,1-.11,1.48,1.48,0,0,0,.7-.85,1.4,1.4,0,0,0-.08-1.1,1.56,1.56,0,0,0-.82-.78c-.83-.33-2.09-1.59-3.21-8.55a3.22,3.22,0,0,1,1-3,2.81,2.81,0,0,1,3-.67,46.08,46.08,0,0,0,15,3.3,1.16,1.16,0,0,0,.92-.44,1.43,1.43,0,0,0,.38-1,1.49,1.49,0,0,0-.46-1,1.31,1.31,0,0,0-.93-.42,56.54,56.54,0,0,1-17-4.2,4.91,4.91,0,0,1-2.19-1.63,4.63,4.63,0,0,1-1-2.66c-.75-10.43-1.21-26.87-1.35-48.86,0-8.93-.13-15.14-.25-18.48-.15-4.08-.43-5.64-.65-6.23a1.12,1.12,0,0,0-1.32-.88,1.25,1.25,0,0,0-1.28,1.06,386.28,386.28,0,0,1-15.6,47.39c-2,4.92-4,9.53-6.07,13.72a4.88,4.88,0,0,1-2.49,2.36,4.3,4.3,0,0,1-3.34,0c-6.84-2.78-13-5.21-18.27-7.22s-11.26-4.13-17.7-6.27-12.58-3.87-18.35-5.2a114.66,114.66,0,0,0-16-2.6C687.28,241.31,686.16,241.26,685.1,241.26Zm48.38,51.93c-4.46,0-9.67-1.24-15.49-3.7a90.86,90.86,0,0,1-16.64-9.2,108.21,108.21,0,0,1-14.55-12.15,51.1,51.1,0,0,1-9.62-12.49c-2-3.78-2.35-6.54-1.19-8.43s4.22-3,9.1-3q1.51,0,3.18.15a136.13,136.13,0,0,1,30,6.45c11.11,3.57,23.81,8.25,37.75,13.92a4.58,4.58,0,0,1,2.74,3.08,4.92,4.92,0,0,1-.51,4.15C749.79,286,741.46,293.19,733.48,293.19Zm-48.39-48c-4.44,0-7.21.86-8.25,2.55s-.53,4.06,1.23,7.45a50.32,50.32,0,0,0,9.44,12.24,106.93,106.93,0,0,0,14.41,12,90.07,90.07,0,0,0,16.45,9.1c5.7,2.4,10.78,3.62,15.11,3.62,7.6,0,15.64-7,23.9-20.77a3.89,3.89,0,0,0,.42-3.34,3.58,3.58,0,0,0-2.17-2.44C741.72,260,729,255.3,718,251.74a135.41,135.41,0,0,0-29.78-6.41C687.1,245.23,686.06,245.19,685.09,245.19Zm99.14,27.62a3.82,3.82,0,0,1-1.41-.29c-2.94-1.16-7.75-3.12-14.31-5.83l-3.34-1.41.23-.48a311.94,311.94,0,0,0,19.18-49.2,2,2,0,0,1,.76-1.32.87.87,0,0,1,1.24.34,2.65,2.65,0,0,1,.34,1.49c0,1.62.07,4.19.07,7.63.14,19.95.5,35,1.06,44.66a3.92,3.92,0,0,1-1.54,3.56A3.67,3.67,0,0,1,784.23,272.81Zm-17.69-8,2.35,1c6.55,2.71,11.36,4.66,14.29,5.82a2.55,2.55,0,0,0,2.71-.42,2.94,2.94,0,0,0,1.17-2.71c-.57-9.71-.93-24.75-1.07-44.71,0-3.44,0-6-.07-7.63a2.1,2.1,0,0,0-.14-.89,2.3,2.3,0,0,0-.23.62v0A313.54,313.54,0,0,1,766.54,264.77Z"></path><path class="cls-1" d="M51.14,337.73V340H44V364.2h-2.2V340H34.63v-2.23Z"></path><path class="cls-1" d="M45,365.2h-4.2V341H33.63v-4.23H52.14V341H45Zm-2.2-2H43V339h7.15v-.23H35.63V339h7.16Z"></path><path class="cls-1" d="M87.92,337.73h2.2V364.2h-2.2V352.32H74.39V364.2h-2.2V337.73h2.2v12.4H87.92Z"></path><path class="cls-1" d="M91.12,365.2h-4.2V353.32H75.39V365.2h-4.2V336.73h4.2v12.4H86.92v-12.4h4.2Zm-2.2-2h.2V338.73h-.2v12.4H73.39v-12.4h-.2V363.2h.2V351.32H88.92Z"></path><path class="cls-1" d="M114.08,362h12.27v2.23H111.87V337.73H126V340h-12v9.87h9.39V352h-9.39Z"></path><path class="cls-1" d="M127.35,365.2H110.87V336.73H127V341h-12v7.87h9.39V353h-9.39v8h12.27Zm-14.48-2h12.48V363H113.08V351h9.39v-.15h-9.39V339h12v-.23H112.87Z"></path><path class="cls-1" d="M194.34,361.36a12.12,12.12,0,0,1-17.11-.68,14.14,14.14,0,0,1,0-19.4,12.08,12.08,0,0,1,17-.79l-1.38,1.7a9.9,9.9,0,0,0-6.66-2.57,10.22,10.22,0,0,0-7.37,3.25,11.83,11.83,0,0,0,0,16.18,10.23,10.23,0,0,0,7.37,3.26,9.9,9.9,0,0,0,6.69-2.58Z"></path><path class="cls-1" d="M186.05,365.57a13.17,13.17,0,0,1-9.53-4.18A14.39,14.39,0,0,1,172.38,351a14.23,14.23,0,0,1,4.14-10.38,13.08,13.08,0,0,1,18.41-.85l.73.64L193,343.62l-.78-.68a8.85,8.85,0,0,0-6-2.32,9.18,9.18,0,0,0-6.66,3,10.81,10.81,0,0,0,0,14.77,9.14,9.14,0,0,0,6.65,3,8.88,8.88,0,0,0,6-2.33l.76-.66,2.73,3.12-.74.66A13,13,0,0,1,186.05,365.57Zm0-27.22a11.08,11.08,0,0,0-8.11,3.64,12.15,12.15,0,0,0-3.56,9,12.31,12.31,0,0,0,3.56,9,11.06,11.06,0,0,0,8.11,3.59,10.85,10.85,0,0,0,6.87-2.32l-.12-.14a10.76,10.76,0,0,1-6.57,2.2,11.23,11.23,0,0,1-8.07-3.55,12.81,12.81,0,0,1,0-17.59,11.23,11.23,0,0,1,8.08-3.55,10.75,10.75,0,0,1,6.51,2.17l.13-.16A11,11,0,0,0,186.05,338.35Z"></path><path class="cls-1" d="M227.34,337.35a12,12,0,0,1,8.79,3.89,14.12,14.12,0,0,1,0,19.44,11.93,11.93,0,0,1-8.79,3.89,12.09,12.09,0,0,1-8.82-3.89,14.19,14.19,0,0,1,0-19.44A12.13,12.13,0,0,1,227.34,337.35Zm0,25a9.8,9.8,0,0,0,7.19-3.22,11.88,11.88,0,0,0,0-16.22,9.79,9.79,0,0,0-7.19-3.25,10,10,0,0,0-7.22,3.25,12,12,0,0,0,0,16.22A9.89,9.89,0,0,0,227.34,362.31Z"></path><path class="cls-1" d="M227.34,365.57a13.13,13.13,0,0,1-9.53-4.19,15.2,15.2,0,0,1,0-20.84,13.18,13.18,0,0,1,9.54-4.19,13,13,0,0,1,9.51,4.19,15.13,15.13,0,0,1,0,20.85A13,13,0,0,1,227.34,365.57Zm0-27.22a11.11,11.11,0,0,0-8.12,3.6,13.21,13.21,0,0,0,0,18,11.06,11.06,0,0,0,8.11,3.59,10.9,10.9,0,0,0,8.08-3.59,13.11,13.11,0,0,0,0-18A10.88,10.88,0,0,0,227.34,338.35Zm0,25a10.91,10.91,0,0,1-7.94-3.52,13,13,0,0,1,0-17.62,11,11,0,0,1,7.94-3.55,10.8,10.8,0,0,1,7.91,3.55,12.89,12.89,0,0,1,0,17.63A10.8,10.8,0,0,1,227.34,363.31Zm0-22.69a9,9,0,0,0-6.52,3,11,11,0,0,0,0,14.81,8.85,8.85,0,0,0,6.51,2.92,8.73,8.73,0,0,0,6.47-2.92,10.88,10.88,0,0,0,0-14.82A8.77,8.77,0,0,0,227.34,340.62Z"></path><path class="cls-1" d="M261.23,364.2V337.73h2.2l15.34,22.38H279V337.73h2.21V364.2H279l-15.34-22.39h-.25V364.2Z"></path><path class="cls-1" d="M282.23,365.2h-3.74l-14.06-20.52V365.2h-4.2V336.73H264L278,357.25V336.73h4.21Zm-2.68-2h.68V338.73H280v22.38h-1.78L262.9,338.73h-.67V363.2h.2V340.81h1.78Z"></path><path class="cls-1" d="M315.13,338.92a8.52,8.52,0,0,1,2.9,4l-1.67.9q-1.89-4.38-6-4.38a5.37,5.37,0,0,0-3.67,1.24,4.17,4.17,0,0,0-1.42,3.29q0,3.18,4.41,5l1.82.72a22.5,22.5,0,0,1,5.09,2.76,5.73,5.73,0,0,1,2.06,4.65,6.77,6.77,0,0,1-2.38,5.37,8.63,8.63,0,0,1-5.73,2,9,9,0,0,1-5.45-1.77,8.15,8.15,0,0,1-3-4.69l1.85-.87a6.93,6.93,0,0,0,2.42,3.74,6.59,6.59,0,0,0,4.2,1.4,6.32,6.32,0,0,0,4.16-1.44,4.62,4.62,0,0,0,1.71-3.78,3.81,3.81,0,0,0-1.6-3.36,11.48,11.48,0,0,0-1.57-1c-.21-.13-.94-.46-2.17-1l-2-.83q-6-2.46-6-7a6,6,0,0,1,2.07-4.77,8.15,8.15,0,0,1,10-.28Z"></path><path class="cls-1" d="M310.56,365.57a10,10,0,0,1-6-2,9.2,9.2,0,0,1-3.41-5.26l-.18-.79,3.66-1.72.31,1.15A6,6,0,0,0,307,360.2a5.59,5.59,0,0,0,3.58,1.18,5.32,5.32,0,0,0,3.52-1.21,3.63,3.63,0,0,0,1.35-3,2.81,2.81,0,0,0-1.17-2.54,11,11,0,0,0-1.45-.91,23,23,0,0,0-2.11-1l-2-.83c-4.38-1.8-6.6-4.47-6.6-7.95a7,7,0,0,1,2.41-5.52,8.53,8.53,0,0,1,5.89-2.1,8.65,8.65,0,0,1,5.36,1.77h0a9.57,9.57,0,0,1,3.24,4.49l.27.8-3.38,1.83-.43-1c-1.1-2.55-2.75-3.78-5.06-3.78a4.33,4.33,0,0,0-3,1,3.17,3.17,0,0,0-1.08,2.53c0,1.69,1.24,3,3.8,4.11l1.8.71a23.23,23.23,0,0,1,5.35,2.92,6.69,6.69,0,0,1,2.43,5.42,7.8,7.8,0,0,1-2.73,6.13A9.6,9.6,0,0,1,310.56,365.57Zm-7.28-6.92a7.17,7.17,0,0,0,2.44,3.36,7.91,7.91,0,0,0,4.84,1.56,7.58,7.58,0,0,0,5.08-1.8,5.8,5.8,0,0,0,2-4.61,4.74,4.74,0,0,0-1.7-3.88,22,22,0,0,0-4.84-2.61l-1.79-.71c-3.36-1.4-5-3.41-5-6a5.15,5.15,0,0,1,1.76-4,6.38,6.38,0,0,1,4.33-1.49,6.82,6.82,0,0,1,6,3.34,7.54,7.54,0,0,0-1.89-2.1h0a6.58,6.58,0,0,0-4.14-1.36,6.48,6.48,0,0,0-4.56,1.6,5,5,0,0,0-1.74,4c0,2.62,1.76,4.62,5.36,6.1l2,.84c1.7.73,2.12.94,2.3,1a12.32,12.32,0,0,1,1.64,1,4.75,4.75,0,0,1,2,4.17,5.61,5.61,0,0,1-2.08,4.56,7.33,7.33,0,0,1-4.79,1.66,7.59,7.59,0,0,1-4.82-1.61,7.74,7.74,0,0,1-2.38-3.15Z"></path><path class="cls-1" d="M360,361.36a12,12,0,0,1-8.29,3.21,12.13,12.13,0,0,1-8.83-3.89,14.17,14.17,0,0,1,0-19.4,12.09,12.09,0,0,1,17.05-.79l-1.39,1.7a9.9,9.9,0,0,0-6.66-2.57,10.2,10.2,0,0,0-7.36,3.25,11.83,11.83,0,0,0,0,16.18,10.21,10.21,0,0,0,7.36,3.26,9.9,9.9,0,0,0,6.7-2.58Z"></path><path class="cls-1" d="M351.67,365.57a13.2,13.2,0,0,1-9.54-4.18A14.43,14.43,0,0,1,338,351a14.26,14.26,0,0,1,4.13-10.38,13.1,13.1,0,0,1,18.42-.85l.72.64-2.65,3.25-.78-.68a8.85,8.85,0,0,0-6-2.32,9.19,9.19,0,0,0-6.66,3,10.84,10.84,0,0,0,0,14.77,9.15,9.15,0,0,0,6.65,3,8.9,8.9,0,0,0,6-2.33l.75-.66,2.73,3.12-.73.66A13,13,0,0,1,351.67,365.57Zm0-27.22a11.11,11.11,0,0,0-8.12,3.64,12.14,12.14,0,0,0-3.55,9,12.27,12.27,0,0,0,3.56,9,11,11,0,0,0,8.11,3.59,10.82,10.82,0,0,0,6.86-2.32l-.12-.14a10.74,10.74,0,0,1-6.57,2.2,11.25,11.25,0,0,1-8.07-3.55,12.83,12.83,0,0,1,0-17.59,11.21,11.21,0,0,1,8.07-3.55,10.73,10.73,0,0,1,6.51,2.17l.13-.16A11,11,0,0,0,351.67,338.35Z"></path><path class="cls-1" d="M383,337.73V364.2h-2.21V337.73Z"></path><path class="cls-1" d="M384,365.2h-4.21V336.73H384Zm-2.21-2H382V338.73h-.21Z"></path><path class="cls-1" d="M416.92,337.35a12,12,0,0,1,8.79,3.89,14.12,14.12,0,0,1,0,19.44,11.93,11.93,0,0,1-8.79,3.89,12.13,12.13,0,0,1-8.83-3.89,14.22,14.22,0,0,1,0-19.44A12.17,12.17,0,0,1,416.92,337.35Zm0,25a9.8,9.8,0,0,0,7.19-3.22,11.88,11.88,0,0,0,0-16.22,9.8,9.8,0,0,0-7.19-3.25,10,10,0,0,0-7.23,3.25,12,12,0,0,0,0,16.22A9.9,9.9,0,0,0,416.92,362.31Z"></path><path class="cls-1" d="M416.92,365.57a13.17,13.17,0,0,1-9.54-4.19,15.21,15.21,0,0,1,0-20.84,13.17,13.17,0,0,1,9.54-4.19,13,13,0,0,1,9.5,4.19,15.12,15.12,0,0,1,0,20.85A13,13,0,0,1,416.92,365.57Zm0-27.22a11.09,11.09,0,0,0-8.12,3.6,13.21,13.21,0,0,0,0,18,11,11,0,0,0,8.11,3.59A10.86,10.86,0,0,0,425,360a13.1,13.1,0,0,0,0-18A10.88,10.88,0,0,0,416.92,338.35Zm0,25a10.91,10.91,0,0,1-7.94-3.52,13,13,0,0,1,0-17.62,11,11,0,0,1,7.94-3.55,10.8,10.8,0,0,1,7.9,3.55,12.86,12.86,0,0,1,0,17.63A10.77,10.77,0,0,1,416.92,363.31Zm0-22.69a9,9,0,0,0-6.52,3,11,11,0,0,0,0,14.81,8.85,8.85,0,0,0,6.51,2.92,8.75,8.75,0,0,0,6.47-2.92,10.86,10.86,0,0,0,0-14.82A8.75,8.75,0,0,0,416.92,340.62Z"></path><path class="cls-1" d="M466.24,337.73h2.21v16.75q0,4.8-2.46,7.45a8.29,8.29,0,0,1-6.37,2.64,8.4,8.4,0,0,1-6.37-2.64q-2.44-2.65-2.45-7.45V337.73H453v16.71a8.52,8.52,0,0,0,1.8,5.8,6.66,6.66,0,0,0,9.65,0,8.57,8.57,0,0,0,1.79-5.8Z"></path><path class="cls-1" d="M459.62,365.57a9.31,9.31,0,0,1-7.09-3c-1.82-1.95-2.73-4.68-2.73-8.13V336.73H454v17.71a7.64,7.64,0,0,0,1.56,5.15,5.66,5.66,0,0,0,8.13,0,7.65,7.65,0,0,0,1.55-5.15V336.73h4.21v17.75c0,3.44-.92,6.18-2.72,8.13A9.3,9.3,0,0,1,459.62,365.57Zm-7.82-26.84v15.75c0,2.92.74,5.2,2.19,6.77a8,8,0,0,0,11.27,0c1.45-1.57,2.19-3.85,2.19-6.77V338.73h-.21v15.71a9.51,9.51,0,0,1-2,6.46,7.65,7.65,0,0,1-11.15,0,9.52,9.52,0,0,1-2.05-6.46V338.73Z"></path><path class="cls-1" d="M502.35,338.92a8.39,8.39,0,0,1,2.9,4l-1.67.9q-1.89-4.38-6-4.38a5.36,5.36,0,0,0-3.66,1.24,4.18,4.18,0,0,0-1.43,3.29c0,2.12,1.48,3.8,4.42,5l1.81.72a22.5,22.5,0,0,1,5.09,2.76,5.71,5.71,0,0,1,2.07,4.65,6.78,6.78,0,0,1-2.39,5.37,8.59,8.59,0,0,1-5.73,2,9,9,0,0,1-5.44-1.77,8.12,8.12,0,0,1-3-4.69l1.85-.87a7,7,0,0,0,2.42,3.74,6.62,6.62,0,0,0,4.2,1.4,6.37,6.37,0,0,0,4.17-1.44,4.64,4.64,0,0,0,1.7-3.78,3.78,3.78,0,0,0-1.6-3.36,10.87,10.87,0,0,0-1.56-1c-.22-.13-.94-.46-2.17-1l-2-.83q-6-2.46-6-7a6.06,6.06,0,0,1,2.06-4.77,8.15,8.15,0,0,1,10-.28Z"></path><path class="cls-1" d="M497.78,365.57a10,10,0,0,1-6-2,9.13,9.13,0,0,1-3.4-5.26l-.19-.79,3.66-1.72.32,1.15a5.94,5.94,0,0,0,2.07,3.22,5.61,5.61,0,0,0,3.58,1.18,5.35,5.35,0,0,0,3.53-1.21,3.65,3.65,0,0,0,1.34-3,2.83,2.83,0,0,0-1.16-2.54,11,11,0,0,0-1.45-.91c-.12-.07-.46-.25-2.12-1l-2-.83c-4.38-1.8-6.6-4.47-6.6-7.95a7,7,0,0,1,2.4-5.52,8.55,8.55,0,0,1,5.89-2.1,8.63,8.63,0,0,1,5.36,1.77h0a9.43,9.43,0,0,1,3.24,4.49l.28.8-3.38,1.83-.44-1c-1.09-2.55-2.75-3.78-5.06-3.78a4.3,4.3,0,0,0-3,1,3.18,3.18,0,0,0-1.09,2.53c0,1.69,1.25,3,3.8,4.11l1.8.71a23,23,0,0,1,5.35,2.92,6.67,6.67,0,0,1,2.44,5.42,7.8,7.8,0,0,1-2.73,6.13A9.64,9.64,0,0,1,497.78,365.57Zm-7.27-6.92A7,7,0,0,0,493,362a7.9,7.9,0,0,0,4.83,1.56,7.6,7.6,0,0,0,5.09-1.8,5.8,5.8,0,0,0,2-4.61,4.74,4.74,0,0,0-1.7-3.88,21.87,21.87,0,0,0-4.85-2.61l-1.79-.71c-3.35-1.4-5.05-3.41-5.05-6a5.16,5.16,0,0,1,1.77-4,6.35,6.35,0,0,1,4.32-1.49,6.81,6.81,0,0,1,6,3.34,7.5,7.5,0,0,0-1.88-2.1h0a6.63,6.63,0,0,0-4.15-1.36A6.5,6.5,0,0,0,493,340a5,5,0,0,0-1.73,4c0,2.62,1.75,4.62,5.36,6.1l2,.84c1.71.73,2.13.94,2.3,1a13,13,0,0,1,1.65,1,4.74,4.74,0,0,1,2,4.17,5.6,5.6,0,0,1-2.07,4.56,7.37,7.37,0,0,1-4.8,1.66,7.63,7.63,0,0,1-4.82-1.61,7.83,7.83,0,0,1-2.38-3.15Z"></path><path class="cls-1" d="M561,337.73a8.45,8.45,0,0,1,6.37,2.38,8,8,0,0,1,2.35,6,8.23,8.23,0,0,1-2.31,6.05,8.61,8.61,0,0,1-6.41,2.31h-5.69v9.76H553.1V337.73Zm0,14.55a6.65,6.65,0,0,0,4.77-1.64,6,6,0,0,0,1.74-4.56,5.82,5.82,0,0,0-1.76-4.48A6.69,6.69,0,0,0,561,340h-5.69v12.32Z"></path><path class="cls-1" d="M556.31,365.2H552.1V336.73H561a9.48,9.48,0,0,1,7.09,2.68,9,9,0,0,1,2.63,6.67,9.25,9.25,0,0,1-2.6,6.76,9.63,9.63,0,0,1-7.12,2.6h-4.69Zm-2.21-2h.21v-9.76H561a7.61,7.61,0,0,0,5.7-2,7.23,7.23,0,0,0,2-5.35,7,7,0,0,0-2.05-5.26,7.47,7.47,0,0,0-5.67-2.09h-6.9Zm6.9-9.92h-6.69V339H561a7.68,7.68,0,0,1,5.44,1.91,6.81,6.81,0,0,1,2.07,5.21,7,7,0,0,1-2,5.29A7.68,7.68,0,0,1,561,353.28Zm-4.69-2H561a5.66,5.66,0,0,0,4.09-1.37,5,5,0,0,0,1.42-3.83,4.85,4.85,0,0,0-1.44-3.75A5.7,5.7,0,0,0,561,341h-4.69Z"></path><path class="cls-1" d="M608.45,364.2H606l-6.65-9.8a4.87,4.87,0,0,1-.85,0h-5.7v9.76h-2.2V337.73h7.9a8.48,8.48,0,0,1,6.37,2.38,8,8,0,0,1,2.34,6,8.51,8.51,0,0,1-1.49,5.09,7.61,7.61,0,0,1-4.24,2.89ZM592.79,340v12.32h5.7a6.64,6.64,0,0,0,4.76-1.64,6,6,0,0,0,1.75-4.56,5.85,5.85,0,0,0-1.76-4.48,6.72,6.72,0,0,0-4.75-1.64Z"></path><path class="cls-1" d="M610.35,365.2h-4.89l-6.63-9.76h-5v9.76h-4.2V336.73h8.9a9.45,9.45,0,0,1,7.08,2.68,9,9,0,0,1,2.63,6.67,9.51,9.51,0,0,1-1.68,5.67,8.27,8.27,0,0,1-3.49,2.81Zm-3.83-2h0l-1.88-2.74Zm-14.93,0h.2v-9.76h6.7a5.12,5.12,0,0,0,.66,0l.62-.09.12.15,1.31-.38a6.59,6.59,0,0,0,3.7-2.51,7.67,7.67,0,0,0,1.3-4.51,7,7,0,0,0-2-5.26,7.49,7.49,0,0,0-5.67-2.09h-6.9Zm6.9-9.92h-6.7V339h6.7a7.67,7.67,0,0,1,5.43,1.91,6.82,6.82,0,0,1,2.08,5.21,6.94,6.94,0,0,1-2.06,5.29A7.66,7.66,0,0,1,598.49,353.28Zm-4.7-2h4.7a5.65,5.65,0,0,0,4.08-1.37,5,5,0,0,0,1.43-3.83,4.82,4.82,0,0,0-1.45-3.75,5.69,5.69,0,0,0-4.06-1.37h-4.7Z"></path><path class="cls-1" d="M648.85,364.2l-2.7-6.73H632.76l-2.7,6.73h-2.35l10.78-26.47h1.93L651.2,364.2Zm-15.27-8.74h11.75l-5.87-14.52Z"></path><path class="cls-1" d="M652.69,365.2h-4.52l-2.7-6.73h-12l-2.7,6.73h-4.52l11.6-28.47h3.27Zm-3.16-2h.18l-10-24.47h-.1l7.17,17.73H632.1l7.17-17.73h-.1l-10,24.47h.18l2.71-6.73h14.73Zm-14.46-8.74h8.77l-4.38-10.85Z"></path><path class="cls-1" d="M692,361.36a12.12,12.12,0,0,1-17.11-.68,14.14,14.14,0,0,1,0-19.4,12.08,12.08,0,0,1,17-.79l-1.39,1.7a9.87,9.87,0,0,0-6.65-2.57,10.2,10.2,0,0,0-7.37,3.25,11.83,11.83,0,0,0,0,16.18,10.21,10.21,0,0,0,7.37,3.26,9.9,9.9,0,0,0,6.69-2.58Z"></path><path class="cls-1" d="M683.66,365.57a13.16,13.16,0,0,1-9.53-4.18,15.16,15.16,0,0,1,0-20.81,13.1,13.1,0,0,1,18.42-.85l.73.64-2.65,3.25-.78-.68a8.85,8.85,0,0,0-6-2.32,9.16,9.16,0,0,0-6.66,3,10.83,10.83,0,0,0,0,14.77,9.16,9.16,0,0,0,6.66,3,8.88,8.88,0,0,0,6-2.33l.75-.66,2.73,3.12-.73.66A13,13,0,0,1,683.66,365.57Zm0-27.22a11.12,11.12,0,0,0-8.12,3.64,12.18,12.18,0,0,0-3.55,9,12.31,12.31,0,0,0,3.56,9,11.06,11.06,0,0,0,8.11,3.59,10.85,10.85,0,0,0,6.87-2.32l-.12-.14a10.78,10.78,0,0,1-6.57,2.2,11.22,11.22,0,0,1-8.07-3.55,12.81,12.81,0,0,1,0-17.59,11.21,11.21,0,0,1,8.08-3.55,10.72,10.72,0,0,1,6.5,2.17l.13-.16A11,11,0,0,0,683.66,338.35Z"></path><path class="cls-1" d="M728.61,337.73V340h-7.15V364.2h-2.21V340H712.1v-2.23Z"></path><path class="cls-1" d="M722.46,365.2h-4.21V341H711.1v-4.23h18.51V341h-7.15Zm-2.21-2h.21V339h7.15v-.23H713.1V339h7.15Z"></path><path class="cls-1" d="M751.86,337.73V364.2h-2.21V337.73Z"></path><path class="cls-1" d="M752.86,365.2h-4.21V336.73h4.21Zm-2.21-2h.21V338.73h-.21Z"></path><path class="cls-1" d="M789.42,337.73V340h-7.16V364.2h-2.2V340H772.9v-2.23Z"></path><path class="cls-1" d="M783.26,365.2h-4.2V341H771.9v-4.23h18.52V341h-7.16Zm-2.2-2h.2V339h7.16v-.23H773.9V339h7.16Z"></path><path class="cls-1" d="M812.66,337.73V364.2h-2.21V337.73Z"></path><path class="cls-1" d="M813.66,365.2h-4.21V336.73h4.21Zm-2.21-2h.21V338.73h-.21Z"></path><path class="cls-1" d="M846.55,337.35a12,12,0,0,1,8.79,3.89,14.12,14.12,0,0,1,0,19.44,11.93,11.93,0,0,1-8.79,3.89,12.13,12.13,0,0,1-8.83-3.89,14.22,14.22,0,0,1,0-19.44A12.17,12.17,0,0,1,846.55,337.35Zm0,25a9.8,9.8,0,0,0,7.19-3.22,11.88,11.88,0,0,0,0-16.22,9.79,9.79,0,0,0-7.19-3.25,10,10,0,0,0-7.23,3.25,12,12,0,0,0,0,16.22A9.92,9.92,0,0,0,846.55,362.31Z"></path><path class="cls-1" d="M846.55,365.57a13.17,13.17,0,0,1-9.54-4.19,15.21,15.21,0,0,1,0-20.84,13.17,13.17,0,0,1,9.54-4.19,13,13,0,0,1,9.5,4.19,15.12,15.12,0,0,1,0,20.85A13,13,0,0,1,846.55,365.57Zm0-27.22a11.09,11.09,0,0,0-8.12,3.6,13.21,13.21,0,0,0,0,18,11,11,0,0,0,8.11,3.59,10.86,10.86,0,0,0,8.07-3.59,13.1,13.1,0,0,0,0-18A10.88,10.88,0,0,0,846.55,338.35Zm0,25a10.91,10.91,0,0,1-7.94-3.52,13,13,0,0,1,0-17.62,11,11,0,0,1,7.94-3.55,10.78,10.78,0,0,1,7.9,3.55,12.88,12.88,0,0,1,0,17.63A10.8,10.8,0,0,1,846.55,363.31Zm0-22.69a9,9,0,0,0-6.52,3,11,11,0,0,0,0,14.81,8.85,8.85,0,0,0,6.51,2.92,8.73,8.73,0,0,0,6.47-2.92,10.86,10.86,0,0,0,0-14.82A8.73,8.73,0,0,0,846.55,340.62Z"></path><path class="cls-1" d="M880.43,364.2V337.73h2.21L898,360.11h.25V337.73h2.2V364.2h-2.2l-15.34-22.39h-.25V364.2Z"></path><path class="cls-1" d="M901.43,365.2H897.7l-14.06-20.52V365.2h-4.21V336.73h3.74l14.06,20.52V336.73h4.2Zm-2.68-2h.68V338.73h-.2v22.38h-1.78l-15.34-22.38h-.68V363.2h.21V340.81h1.78Z"></path><path class="cls-1" d="M924.39,362h12.28v2.23H922.18V337.73h14.17V340h-12v9.87h9.4V352h-9.4Z"></path><path class="cls-1" d="M937.67,365.2H921.18V336.73h16.17V341h-12v7.87h9.4V353h-9.4v8h12.28Zm-14.49-2h12.49V363H923.39V351h9.4v-.15h-9.4V339h12v-.23H923.18Z"></path><path class="cls-1" d="M975.75,364.2h-2.46l-6.65-9.8a4.94,4.94,0,0,1-.86,0h-5.69v9.76h-2.21V337.73h7.9a8.45,8.45,0,0,1,6.37,2.38,8,8,0,0,1,2.35,6,8.58,8.58,0,0,1-1.49,5.09,7.61,7.61,0,0,1-4.24,2.89ZM960.09,340v12.32h5.69a6.65,6.65,0,0,0,4.77-1.64,6,6,0,0,0,1.75-4.56,5.85,5.85,0,0,0-1.76-4.48,6.73,6.73,0,0,0-4.76-1.64Z"></path><path class="cls-1" d="M977.65,365.2h-4.89l-6.63-9.76h-5v9.76h-4.21V336.73h8.9a9.46,9.46,0,0,1,7.09,2.68,9,9,0,0,1,2.63,6.67,9.51,9.51,0,0,1-1.68,5.67,8.33,8.33,0,0,1-3.49,2.81Zm-3.83-2h0L972,360.46Zm-14.94,0h.21v-9.76h6.69a5.22,5.22,0,0,0,.67,0l.62-.09.12.15,1.31-.38a6.59,6.59,0,0,0,3.69-2.51,7.61,7.61,0,0,0,1.31-4.51,7,7,0,0,0-2-5.26,7.47,7.47,0,0,0-5.67-2.09h-6.9Zm6.9-9.92h-6.69V339h6.69a7.68,7.68,0,0,1,5.44,1.91,6.82,6.82,0,0,1,2.08,5.21,7,7,0,0,1-2.06,5.29A7.66,7.66,0,0,1,965.78,353.28Zm-4.69-2h4.69a5.66,5.66,0,0,0,4.09-1.37,5,5,0,0,0,1.43-3.83,4.86,4.86,0,0,0-1.45-3.75,5.7,5.7,0,0,0-4.07-1.37h-4.69Z"></path></svg>