<svg xmlns="http://www.w3.org/2000/svg" id="Layer_1" data-name="Layer 1" viewBox="0 0 753.7 290.37"><defs><style>.cls-1{fill:#e1c681;}</style></defs><rect class="cls-1" x="67.03" y="82.65" width="6" height="177.62"></rect><path class="cls-1" d="M126.3,260.27h-6V79.65H303.65L192.08,13.58,17.2,115.51V78.42H68.93L192.11,6.63l123.31,73h51.34V117l-53-31.37H126.3ZM325.56,85.65l35.2,20.84V85.65ZM23.2,84.42v20.65L58.63,84.42Z"></path><rect class="cls-1" x="310.71" y="115.9" width="6" height="144.36"></rect><path class="cls-1" d="M224.14,266.12H159.53V184.7h64.61Zm-58.61-6h52.61V190.7H165.53Z"></path><rect class="cls-1" x="58.72" y="256.96" width="677.79" height="26.79" rx="13.39"></rect><path class="cls-1" d="M395.16,190.81a4.3,4.3,0,0,0-.53-1.24,4.23,4.23,0,0,0-1-1.1,5.28,5.28,0,0,0-1.53-.81,6.36,6.36,0,0,0-2.08-.31,5.83,5.83,0,0,0-2.82.62,5,5,0,0,0-1.79,1.7,7.41,7.41,0,0,0-.94,2.52,18.14,18.14,0,0,0,0,6.12,7.41,7.41,0,0,0,.94,2.52,5,5,0,0,0,1.79,1.7,5.71,5.71,0,0,0,2.82.63,6.35,6.35,0,0,0,2.08-.32,5.26,5.26,0,0,0,1.53-.8,4.44,4.44,0,0,0,1-1.11,4.24,4.24,0,0,0,.53-1.23h3.4a6.9,6.9,0,0,1-.73,2.35,6.33,6.33,0,0,1-1.62,2,8,8,0,0,1-2.6,1.4A11.07,11.07,0,0,1,390,206a10.33,10.33,0,0,1-4.47-.85,7.58,7.58,0,0,1-2.88-2.3,8.76,8.76,0,0,1-1.54-3.4,20.17,20.17,0,0,1,0-8.38,8.82,8.82,0,0,1,1.54-3.4,7.68,7.68,0,0,1,2.88-2.3,10.48,10.48,0,0,1,4.47-.85,11.07,11.07,0,0,1,3.64.54,8.44,8.44,0,0,1,2.6,1.4,6.4,6.4,0,0,1,1.62,2,7,7,0,0,1,.73,2.34Z"></path><path class="cls-1" d="M390,207a11.39,11.39,0,0,1-4.9-1,8.54,8.54,0,0,1-3.25-2.59,10,10,0,0,1-1.71-3.78,21,21,0,0,1,0-8.83,9.83,9.83,0,0,1,1.71-3.78,8.64,8.64,0,0,1,3.25-2.6,11.39,11.39,0,0,1,4.9-1,12.29,12.29,0,0,1,4,.59,9.33,9.33,0,0,1,2.9,1.58,7.39,7.39,0,0,1,1.89,2.33,8.6,8.6,0,0,1,.83,2.67l.14,1.13h-5.33l-.18-.77a2.91,2.91,0,0,0-.41-.93,3.53,3.53,0,0,0-.79-.86,4.23,4.23,0,0,0-1.24-.64,5.2,5.2,0,0,0-1.75-.26,4.79,4.79,0,0,0-2.33.5,3.86,3.86,0,0,0-1.43,1.35,6.13,6.13,0,0,0-.8,2.18,16.66,16.66,0,0,0,0,5.75,6.15,6.15,0,0,0,.8,2.17,3.89,3.89,0,0,0,1.43,1.36,4.79,4.79,0,0,0,2.33.5,5.46,5.46,0,0,0,1.75-.26,4.2,4.2,0,0,0,1.25-.65,3.46,3.46,0,0,0,.78-.85,3,3,0,0,0,.41-.94l.18-.76h5.32l-.13,1.12a8.17,8.17,0,0,1-.84,2.69,7.39,7.39,0,0,1-1.88,2.31,9.33,9.33,0,0,1-2.9,1.58A12.29,12.29,0,0,1,390,207Zm0-21.48a9.45,9.45,0,0,0-4,.76,6.58,6.58,0,0,0-2.51,2,7.87,7.87,0,0,0-1.36,3,19,19,0,0,0,0,7.94,7.73,7.73,0,0,0,1.36,3,6.7,6.7,0,0,0,2.51,2,9.46,9.46,0,0,0,4,.75,10.25,10.25,0,0,0,3.32-.48,7.36,7.36,0,0,0,2.28-1.23,5.31,5.31,0,0,0,1.37-1.68,6.91,6.91,0,0,0,.38-.9h-1.44a5.2,5.2,0,0,1-.41.77,5.26,5.26,0,0,1-1.24,1.35,6.23,6.23,0,0,1-1.83,1,7.51,7.51,0,0,1-2.4.37,6.68,6.68,0,0,1-3.3-.76,5.77,5.77,0,0,1-2.15-2,8.08,8.08,0,0,1-1.08-2.87,18.89,18.89,0,0,1,0-6.48,8.08,8.08,0,0,1,1.08-2.87,5.85,5.85,0,0,1,2.15-2,6.68,6.68,0,0,1,3.3-.75,7.51,7.51,0,0,1,2.4.36,6.23,6.23,0,0,1,1.83,1,5.63,5.63,0,0,1,1.24,1.35,5.85,5.85,0,0,1,.41.78h1.43a6.2,6.2,0,0,0-.37-.89,5.28,5.28,0,0,0-1.37-1.7,7.34,7.34,0,0,0-2.28-1.22A10.23,10.23,0,0,0,390,185.51Z"></path><path class="cls-1" d="M422.07,184.51a10.61,10.61,0,0,1,4.49.85,7.64,7.64,0,0,1,2.89,2.3,9,9,0,0,1,1.55,3.4,18.91,18.91,0,0,1,0,8.38,8.92,8.92,0,0,1-1.55,3.4,7.54,7.54,0,0,1-2.89,2.3,12.26,12.26,0,0,1-9,0,7.55,7.55,0,0,1-2.87-2.3,8.76,8.76,0,0,1-1.54-3.4,19.73,19.73,0,0,1,0-8.38,8.82,8.82,0,0,1,1.54-3.4,7.64,7.64,0,0,1,2.87-2.3A10.56,10.56,0,0,1,422.07,184.51Zm0,2.81a5.87,5.87,0,0,0-2.83.62,4.93,4.93,0,0,0-1.81,1.7,7.21,7.21,0,0,0-.94,2.52,17.47,17.47,0,0,0,0,6.12,7.21,7.21,0,0,0,.94,2.52,4.85,4.85,0,0,0,1.81,1.7,6.65,6.65,0,0,0,5.65,0,5,5,0,0,0,1.79-1.7,7.42,7.42,0,0,0,1-2.52,16.29,16.29,0,0,0,0-6.12,7.42,7.42,0,0,0-1-2.52,5,5,0,0,0-1.79-1.7A5.83,5.83,0,0,0,422.1,187.32Z"></path><path class="cls-1" d="M422.07,207a11.39,11.39,0,0,1-4.9-1,8.54,8.54,0,0,1-3.25-2.59,9.82,9.82,0,0,1-1.71-3.78,20.54,20.54,0,0,1,0-8.83,9.69,9.69,0,0,1,1.71-3.78,8.57,8.57,0,0,1,3.25-2.6,13.14,13.14,0,0,1,9.81,0,8.56,8.56,0,0,1,3.27,2.6,10,10,0,0,1,1.73,3.77,20.18,20.18,0,0,1,0,8.84,10,10,0,0,1-1.73,3.77,8.58,8.58,0,0,1-3.27,2.61A11.62,11.62,0,0,1,422.07,207Zm0-21.48a9.53,9.53,0,0,0-4.05.76,6.66,6.66,0,0,0-2.51,2,8.18,8.18,0,0,0-1.36,3,19,19,0,0,0,0,7.94,8,8,0,0,0,1.36,3,6.78,6.78,0,0,0,2.51,2,11.34,11.34,0,0,0,8.11,0,6.65,6.65,0,0,0,2.52-2,8.18,8.18,0,0,0,1.38-3,18,18,0,0,0,0-7.92,8.18,8.18,0,0,0-1.38-3,6.54,6.54,0,0,0-2.52-2A9.58,9.58,0,0,0,422.07,185.51Zm0,18.62a6.9,6.9,0,0,1-3.32-.75,5.93,5.93,0,0,1-2.17-2,8.19,8.19,0,0,1-1.07-2.87,18.24,18.24,0,0,1,0-6.48,8.19,8.19,0,0,1,1.07-2.87,6,6,0,0,1,2.17-2,7.7,7.7,0,0,1,6.63,0,6,6,0,0,1,2.15,2,8.42,8.42,0,0,1,1.08,2.86,17.19,17.19,0,0,1,0,6.5,8.42,8.42,0,0,1-1.08,2.86,5.93,5.93,0,0,1-2.15,2A6.75,6.75,0,0,1,422.1,204.13Zm0-15.81a4.88,4.88,0,0,0-2.35.5,3.9,3.9,0,0,0-1.44,1.35,6.34,6.34,0,0,0-.81,2.18,16.66,16.66,0,0,0,0,5.75,6.21,6.21,0,0,0,.81,2.17,3.74,3.74,0,0,0,1.44,1.35,5.67,5.67,0,0,0,4.68,0,3.89,3.89,0,0,0,1.43-1.36,6.34,6.34,0,0,0,.82-2.18,14.64,14.64,0,0,0,.27-2.87,14.47,14.47,0,0,0-.27-2.86,6.4,6.4,0,0,0-.82-2.19,3.86,3.86,0,0,0-1.43-1.35A4.79,4.79,0,0,0,422.1,188.32Z"></path><path class="cls-1" d="M463.86,205.69H460.1l-9.42-14.2a8.82,8.82,0,0,1-.5-.74c-.13-.22-.23-.41-.31-.57v15.51h-3.31V184.81h3.76l9.42,14.2c.2.28.37.53.5.75s.23.4.31.56V184.81h3.31Z"></path><path class="cls-1" d="M464.86,206.69h-5.29l-8.7-13.1v13.1h-5.31V183.81h5.29l8.7,13.1v-13.1h5.31Zm-4.22-2h2.22V185.81h-1.31v18.73l-1.89-3.77c-.08-.14-.17-.31-.29-.51s-.26-.42-.44-.67l-9.15-13.78h-2.22v18.88h1.31V186l1.89,3.77c.07.14.17.31.28.51s.27.42.45.67Z"></path><path class="cls-1" d="M487.66,187.62v18.07h-3.49V187.62H478v-2.81h15.84v2.81Z"></path><path class="cls-1" d="M488.66,206.69h-5.49V188.62H477v-4.81h17.84v4.81h-6.18Zm-3.49-2h1.49V186.62h6.18v-.81H479v.81h6.17Z"></path><path class="cls-1" d="M511.44,197.52v8.17H508V184.81h8.92a8.78,8.78,0,0,1,3.13.51,6.42,6.42,0,0,1,2.24,1.37,5.67,5.67,0,0,1,1.34,2,6.91,6.91,0,0,1,.13,4.53,5.58,5.58,0,0,1-.94,1.79,5.83,5.83,0,0,1-1.56,1.39,6.9,6.9,0,0,1-2.19.85l5.22,8.41h-3.73l-5-8.17Zm5.25-2.83a3.53,3.53,0,1,0,0-7h-5.25v7.06Z"></path><path class="cls-1" d="M526,206.69h-6.09l-5-8.17h-2.55v8.17H507V183.81h9.92a9.8,9.8,0,0,1,3.48.57,7.51,7.51,0,0,1,2.58,1.59,6.61,6.61,0,0,1,1.58,2.39,8,8,0,0,1,.16,5.2,6.94,6.94,0,0,1-1.11,2.1,6.83,6.83,0,0,1-1.83,1.62,6.17,6.17,0,0,1-1.18.58Zm-5-2h1.37l-5-8.09,1.39-.3a5.7,5.7,0,0,0,1.87-.72,5,5,0,0,0,1.31-1.15,4.75,4.75,0,0,0,.77-1.48,6,6,0,0,0-.11-3.87,4.49,4.49,0,0,0-1.11-1.67,5.45,5.45,0,0,0-1.89-1.16,8,8,0,0,0-2.78-.44H509v18.88h1.49v-8.17h5.68Zm-10.63-9v-9.07h6.25a4.53,4.53,0,1,1,0,9Zm2-7.07v5.06l4.25,0a2.6,2.6,0,0,0,2-.71,2.76,2.76,0,0,0,0-3.63,2.63,2.63,0,0,0-2-.7Z"></path><path class="cls-1" d="M542,201l-1.85,4.71h-3.54l8.29-20.88h3.4l8.26,20.88h-3.52L551.2,201Zm4.9-10.71c-.12-.34-.23-.72-.33-1.13-.1.41-.21.79-.33,1.13l-3.13,7.91h7Z"></path><path class="cls-1" d="M558.07,206.69H552.4L550.52,202h-7.79l-1.85,4.71h-5.71l9.09-22.88H549Zm-4.31-2h1.37l-7.47-18.88h-.81l.73,3.1c.09.37.19.71.29,1l3.71,9.26h-9.9l3.67-9.28c.1-.27.19-.61.29-1l.73-3.09h-.75l-7.5,18.88h1.39l1.85-4.71h10.52Zm-9.14-7.51h4l-2-5Z"></path><path class="cls-1" d="M583.15,190.81a4.07,4.07,0,0,0-.54-1.24,4.19,4.19,0,0,0-1-1.1,5.21,5.21,0,0,0-1.54-.81,6.3,6.3,0,0,0-2.07-.31,5.83,5.83,0,0,0-2.82.62,5,5,0,0,0-1.79,1.7,7.21,7.21,0,0,0-.94,2.52,17.47,17.47,0,0,0,0,6.12,7.21,7.21,0,0,0,.94,2.52,4.87,4.87,0,0,0,1.79,1.7,5.71,5.71,0,0,0,2.82.63,6.29,6.29,0,0,0,2.07-.32,5.2,5.2,0,0,0,1.54-.8,4.39,4.39,0,0,0,1-1.11,4,4,0,0,0,.54-1.23h3.4a6.9,6.9,0,0,1-.73,2.35,6.22,6.22,0,0,1-1.63,2,8,8,0,0,1-2.59,1.4A11.11,11.11,0,0,1,578,206a10.41,10.41,0,0,1-4.48-.85,7.55,7.55,0,0,1-2.87-2.3,8.76,8.76,0,0,1-1.54-3.4,19.73,19.73,0,0,1,0-8.38,8.82,8.82,0,0,1,1.54-3.4,7.64,7.64,0,0,1,2.87-2.3,10.56,10.56,0,0,1,4.48-.85,11.11,11.11,0,0,1,3.64.54,8.38,8.38,0,0,1,2.59,1.4,6.29,6.29,0,0,1,1.63,2,7,7,0,0,1,.73,2.34Z"></path><path class="cls-1" d="M578,207a11.39,11.39,0,0,1-4.9-1,8.54,8.54,0,0,1-3.25-2.59,10,10,0,0,1-1.72-3.78,21,21,0,0,1,0-8.83,9.85,9.85,0,0,1,1.72-3.78,8.57,8.57,0,0,1,3.25-2.6,11.39,11.39,0,0,1,4.9-1,12.29,12.29,0,0,1,4,.59,9.33,9.33,0,0,1,2.9,1.58,7.35,7.35,0,0,1,1.88,2.33,8.1,8.1,0,0,1,.83,2.67l.14,1.13h-5.32l-.18-.77a3.15,3.15,0,0,0-.41-.93,3.53,3.53,0,0,0-.79-.86,4.51,4.51,0,0,0-1.24-.64,5.2,5.2,0,0,0-1.75-.26,4.77,4.77,0,0,0-2.33.5,3.86,3.86,0,0,0-1.43,1.35,6.34,6.34,0,0,0-.81,2.18,16.66,16.66,0,0,0,0,5.75,6.36,6.36,0,0,0,.81,2.17,3.89,3.89,0,0,0,1.43,1.36,4.77,4.77,0,0,0,2.33.5,5.46,5.46,0,0,0,1.75-.26,4.26,4.26,0,0,0,1.24-.65,3.32,3.32,0,0,0,.79-.85,3.2,3.2,0,0,0,.41-.94l.18-.76h5.32l-.14,1.12a7.93,7.93,0,0,1-.83,2.69,7.39,7.39,0,0,1-1.88,2.31,9.33,9.33,0,0,1-2.9,1.58A12.29,12.29,0,0,1,578,207Zm0-21.48a9.53,9.53,0,0,0-4.05.76,6.66,6.66,0,0,0-2.51,2,8.18,8.18,0,0,0-1.36,3,19,19,0,0,0,0,7.94,8,8,0,0,0,1.36,3,6.78,6.78,0,0,0,2.51,2A9.54,9.54,0,0,0,578,205a10.19,10.19,0,0,0,3.31-.48,7.3,7.3,0,0,0,2.29-1.23,5.45,5.45,0,0,0,1.37-1.68,6.91,6.91,0,0,0,.38-.9h-1.44a6.35,6.35,0,0,1-.41.77,5.45,5.45,0,0,1-1.24,1.35,6.35,6.35,0,0,1-1.83,1,7.51,7.51,0,0,1-2.4.37,6.72,6.72,0,0,1-3.31-.76,5.93,5.93,0,0,1-2.15-2,8.26,8.26,0,0,1-1.07-2.87,18.24,18.24,0,0,1,0-6.48,8.26,8.26,0,0,1,1.07-2.87,6,6,0,0,1,2.15-2,6.72,6.72,0,0,1,3.31-.75,7.51,7.51,0,0,1,2.4.36,6.35,6.35,0,0,1,1.83,1,5.63,5.63,0,0,1,1.24,1.35,7.32,7.32,0,0,1,.41.78h1.43a6.2,6.2,0,0,0-.37-.89,5.56,5.56,0,0,0-1.37-1.7,7.29,7.29,0,0,0-2.29-1.22A10.17,10.17,0,0,0,578,185.51Z"></path><path class="cls-1" d="M609.4,187.62v18.07h-3.49V187.62h-6.18v-2.81h15.84v2.81Z"></path><path class="cls-1" d="M610.4,206.69h-5.49V188.62h-6.18v-4.81h17.84v4.81H610.4Zm-3.49-2h1.49V186.62h6.17v-.81H600.73v.81h6.18Z"></path><path class="cls-1" d="M629.68,205.69V184.81h3.49v20.88Z"></path><path class="cls-1" d="M634.17,206.69h-5.49V183.81h5.49Zm-3.49-2h1.49V185.81h-1.49Z"></path><path class="cls-1" d="M666.31,205.69h-3.75l-9.43-14.2a8.5,8.5,0,0,1-.49-.74c-.13-.22-.24-.41-.32-.57v15.51H649V184.81h3.76L662.2,199c.2.28.36.53.49.75s.23.4.31.56V184.81h3.31Z"></path><path class="cls-1" d="M667.31,206.69H662l-8.7-13.1v13.1H648V183.81h5.3l8.69,13.1v-13.1h5.31Zm-4.22-2h2.22V185.81H664v18.77l-1.89-3.81c-.07-.14-.17-.31-.28-.51s-.27-.42-.45-.67l-9.14-13.78H650v18.88h1.31V185.91l1.9,3.83c.07.14.16.3.28.5s.26.42.44.67Z"></path><path class="cls-1" d="M699.46,202.44a6.86,6.86,0,0,1-3.23,2.6,12.61,12.61,0,0,1-5,1,11.36,11.36,0,0,1-4.67-.85,7.77,7.77,0,0,1-3-2.3,8.89,8.89,0,0,1-1.63-3.4,17,17,0,0,1-.49-4.19,18.63,18.63,0,0,1,.45-4.19,8.81,8.81,0,0,1,1.53-3.4,7.76,7.76,0,0,1,2.88-2.3,10.51,10.51,0,0,1,4.47-.85,10.64,10.64,0,0,1,3.69.57,8,8,0,0,1,2.55,1.46,6.15,6.15,0,0,1,1.54,2,6.63,6.63,0,0,1,.61,2.25h-3.37a3.39,3.39,0,0,0-.45-1.24,3.87,3.87,0,0,0-1-1.1,5,5,0,0,0-1.51-.81,6.16,6.16,0,0,0-2.06-.31A5.76,5.76,0,0,0,688,188a4.87,4.87,0,0,0-1.79,1.7,7.21,7.21,0,0,0-.94,2.52,16.75,16.75,0,0,0-.27,3.06,14.35,14.35,0,0,0,.31,3.1,6.94,6.94,0,0,0,1.07,2.51,5.26,5.26,0,0,0,2,1.69,7.37,7.37,0,0,0,3.15.61,8.57,8.57,0,0,0,2.82-.48,4.75,4.75,0,0,0,1.92-1.25v-3.79h-3.19v-2.81h6.41Z"></path><path class="cls-1" d="M691.22,207a12.32,12.32,0,0,1-5.08-.94,8.83,8.83,0,0,1-3.4-2.59,10,10,0,0,1-1.81-3.77,18.08,18.08,0,0,1-.52-4.44,20,20,0,0,1,.47-4.41,10,10,0,0,1,1.71-3.78,8.64,8.64,0,0,1,3.25-2.6,11.4,11.4,0,0,1,4.91-1,11.58,11.58,0,0,1,4,.63,9.16,9.16,0,0,1,2.87,1.65,7.18,7.18,0,0,1,1.78,2.34,7.52,7.52,0,0,1,.7,2.6l.09,1.08h-5.32l-.12-.86a2.37,2.37,0,0,0-.32-.87,3.07,3.07,0,0,0-.74-.84,4,4,0,0,0-1.21-.64,5.31,5.31,0,0,0-1.73-.25,4.82,4.82,0,0,0-2.33.5A3.86,3.86,0,0,0,687,190.2a6.13,6.13,0,0,0-.8,2.18,15.56,15.56,0,0,0-.25,2.87,13.74,13.74,0,0,0,.29,2.89,5.75,5.75,0,0,0,.91,2.14,4.11,4.11,0,0,0,1.65,1.36,6.23,6.23,0,0,0,2.71.52,7.54,7.54,0,0,0,2.47-.42,3.89,3.89,0,0,0,1.27-.73v-2.37h-3.19v-4.81h8.42l0,8.9-.14.24a7.83,7.83,0,0,1-3.68,3A13.52,13.52,0,0,1,691.22,207Zm-.47-21.48a9.47,9.47,0,0,0-4,.76,6.66,6.66,0,0,0-2.51,2,8,8,0,0,0-1.36,3,17.91,17.91,0,0,0-.42,4,16.09,16.09,0,0,0,.46,3.95,8.11,8.11,0,0,0,1.44,3,7,7,0,0,0,2.65,2,10.58,10.58,0,0,0,4.26.76,11.57,11.57,0,0,0,4.62-.87,6.19,6.19,0,0,0,2.62-2l0-6.31h-4.41v.81h3.19v5.17l-.25.28a5.75,5.75,0,0,1-2.32,1.53,9.74,9.74,0,0,1-3.15.54h0a8.28,8.28,0,0,1-3.6-.71,6.25,6.25,0,0,1-2.41-2,7.92,7.92,0,0,1-1.24-2.87,15.84,15.84,0,0,1-.33-3.32,17.77,17.77,0,0,1,.28-3.24,8.27,8.27,0,0,1,1.08-2.87,5.93,5.93,0,0,1,2.15-2,6.68,6.68,0,0,1,3.3-.75,7.1,7.1,0,0,1,2.39.37,6,6,0,0,1,1.81,1,5,5,0,0,1,1.2,1.37,6.4,6.4,0,0,1,.36.75h1.4a6.45,6.45,0,0,0-.32-.83,5.15,5.15,0,0,0-1.29-1.69,7,7,0,0,0-2.24-1.27A9.6,9.6,0,0,0,690.75,185.51Z"></path><path class="cls-1" d="M407.13,162.13H380.64V118h25.47v8.1H390.59v9.83H405V144H390.59v10.11h16.54Z"></path><path class="cls-1" d="M418.24,162.9a5.66,5.66,0,0,1-4-1.48,4.74,4.74,0,0,1-1.6-3.63,4.59,4.59,0,0,1,1.65-3.64,6.11,6.11,0,0,1,4.11-1.42,5.84,5.84,0,0,1,4.08,1.44,5,5,0,0,1,0,7.3A6.13,6.13,0,0,1,418.24,162.9Z"></path><path class="cls-1" d="M470.81,162.13h-10v-18h-18.3v18h-9.95V118h9.95v17.62h18.3V118h10Z"></path><path class="cls-1" d="M484.94,162.9a5.66,5.66,0,0,1-4-1.48,4.74,4.74,0,0,1-1.6-3.63,4.59,4.59,0,0,1,1.65-3.64,6.11,6.11,0,0,1,4.11-1.42,5.84,5.84,0,0,1,4.08,1.44,5,5,0,0,1,0,7.3A6.13,6.13,0,0,1,484.94,162.9Z"></path><path class="cls-1" d="M384.27,239.24a3.6,3.6,0,0,0,.5,1.51,3.52,3.52,0,0,0,1.07,1.07,5.19,5.19,0,0,0,1.57.66,7.89,7.89,0,0,0,1.94.22,5.84,5.84,0,0,0,3.52-.94,2.85,2.85,0,0,0,1.28-2.37,2.14,2.14,0,0,0-.55-1.51,4.43,4.43,0,0,0-1.48-1,15.14,15.14,0,0,0-2.09-.67l-2.38-.58c-.82-.2-1.61-.43-2.39-.7a8.87,8.87,0,0,1-2.09-1,4.92,4.92,0,0,1-1.48-1.6,4.73,4.73,0,0,1-.55-2.36,5.4,5.4,0,0,1,.61-2.58,5.48,5.48,0,0,1,1.67-1.85,8.13,8.13,0,0,1,2.48-1.1,11.81,11.81,0,0,1,3-.37,12.07,12.07,0,0,1,3.37.44,7.65,7.65,0,0,1,2.55,1.29,5.86,5.86,0,0,1,1.64,2,6.56,6.56,0,0,1,.67,2.58h-3.4a3.86,3.86,0,0,0-.42-1.31,3.56,3.56,0,0,0-.91-1.11,4.5,4.5,0,0,0-1.43-.76,6.41,6.41,0,0,0-1.95-.28,6.65,6.65,0,0,0-1.58.18,4.61,4.61,0,0,0-1.32.52,2.74,2.74,0,0,0-.89.87,2.18,2.18,0,0,0-.33,1.2,2,2,0,0,0,.57,1.47,5.08,5.08,0,0,0,1.47,1,13.5,13.5,0,0,0,2.09.68c.79.19,1.58.39,2.39.61s1.6.47,2.39.75a8.49,8.49,0,0,1,2.08,1.07,5.25,5.25,0,0,1,1.48,1.63,4.62,4.62,0,0,1,.57,2.37,5.46,5.46,0,0,1-.67,2.7,5.92,5.92,0,0,1-1.85,2,8.8,8.8,0,0,1-2.81,1.23,13.94,13.94,0,0,1-3.5.41,12.55,12.55,0,0,1-3.57-.47,8.17,8.17,0,0,1-2.64-1.32,5.8,5.8,0,0,1-1.65-2,6.06,6.06,0,0,1-.64-2.52Z"></path><path class="cls-1" d="M389.14,246.53a13.16,13.16,0,0,1-3.86-.52,9,9,0,0,1-3-1.48,6.85,6.85,0,0,1-1.94-2.32,7,7,0,0,1-.74-2.93l-.05-1h5.59l.09.9a2.46,2.46,0,0,0,.34,1.07,2.57,2.57,0,0,0,.77.77,4.45,4.45,0,0,0,1.27.53,6.91,6.91,0,0,0,1.7.19,4.92,4.92,0,0,0,2.93-.75,1.85,1.85,0,0,0,.87-1.56,1.1,1.1,0,0,0-.28-.82,3.46,3.46,0,0,0-1.14-.74,14.64,14.64,0,0,0-1.93-.62l-2.39-.58c-.84-.2-1.67-.45-2.48-.73a9.57,9.57,0,0,1-2.33-1.16,6,6,0,0,1-1.77-1.92,5.61,5.61,0,0,1-.69-2.86,6.19,6.19,0,0,1,2.72-5.25,8.89,8.89,0,0,1,2.79-1.25,12.82,12.82,0,0,1,3.28-.4,12.66,12.66,0,0,1,3.66.49,8.57,8.57,0,0,1,2.88,1.45,7,7,0,0,1,1.91,2.32,7.54,7.54,0,0,1,.78,3l.07,1.06h-5.35l-.11-.87a3.2,3.2,0,0,0-.31-1,2.6,2.6,0,0,0-.66-.79,3.48,3.48,0,0,0-1.12-.59,6,6,0,0,0-3-.08,3.69,3.69,0,0,0-1,.41,1.53,1.53,0,0,0-.56.54,1.22,1.22,0,0,0-.18.67,1,1,0,0,0,.28.76,3.76,3.76,0,0,0,1.17.76,11.09,11.09,0,0,0,1.92.63c.79.19,1.6.4,2.41.62s1.65.48,2.46.77a9.38,9.38,0,0,1,2.34,1.2,6.21,6.21,0,0,1,1.75,1.93,5.62,5.62,0,0,1,.71,2.88,6.35,6.35,0,0,1-.8,3.19,7,7,0,0,1-2.16,2.32,10,10,0,0,1-3.12,1.37A15.48,15.48,0,0,1,389.14,246.53Zm-7.36-6.29a4.88,4.88,0,0,0,.39,1.07,4.79,4.79,0,0,0,1.38,1.64,7,7,0,0,0,2.31,1.15,11.29,11.29,0,0,0,3.28.43,13.35,13.35,0,0,0,3.25-.38,7.78,7.78,0,0,0,2.49-1.08,5,5,0,0,0,1.55-1.66,4.32,4.32,0,0,0,.54-2.2,3.75,3.75,0,0,0-.43-1.87,4.33,4.33,0,0,0-1.2-1.32,7.58,7.58,0,0,0-1.84-.94c-.76-.27-1.54-.51-2.31-.72s-1.58-.42-2.36-.61a13.32,13.32,0,0,1-2.26-.74,5.7,5.7,0,0,1-1.78-1.18,3,3,0,0,1-.86-2.17,3.23,3.23,0,0,1,.48-1.74,3.57,3.57,0,0,1,1.23-1.18,5.25,5.25,0,0,1,1.59-.64,7.94,7.94,0,0,1,4.09.13,5.4,5.4,0,0,1,1.75.93,4.59,4.59,0,0,1,1.16,1.41,5.88,5.88,0,0,1,.33.78H396a5.83,5.83,0,0,0-.41-1.13,5,5,0,0,0-1.37-1.65,6.7,6.7,0,0,0-2.22-1.11,11.76,11.76,0,0,0-5.85-.06,6.72,6.72,0,0,0-2.17,1,4.35,4.35,0,0,0-1.36,1.5,4.4,4.4,0,0,0-.49,2.1,3.66,3.66,0,0,0,.42,1.86,3.87,3.87,0,0,0,1.18,1.27,7.11,7.11,0,0,0,1.85.92c.74.26,1.51.49,2.29.68l2.39.58a15.12,15.12,0,0,1,2.24.72,5.35,5.35,0,0,1,1.81,1.2,3.08,3.08,0,0,1,.83,2.2,3.86,3.86,0,0,1-1.69,3.18,6.85,6.85,0,0,1-4.11,1.13,9.53,9.53,0,0,1-2.19-.25,6.25,6.25,0,0,1-1.86-.79,4.43,4.43,0,0,1-1.38-1.38,4.22,4.22,0,0,1-.46-1Z"></path><path class="cls-1" d="M415.15,233h10.32v2.8H415.15v6.62H426v2.81H411.66V224.35H426v2.81H415.15Z"></path><path class="cls-1" d="M427,246.24H410.66V223.35H427v4.81H416.15V232h10.32v4.8H416.15v4.62H427Zm-14.38-2H425v-.81H414.15v-8.62h10.32V234H414.15v-7.85H425v-.81H412.66Z"></path><path class="cls-1" d="M443.52,237.06v8.18H440V224.35H449a8.82,8.82,0,0,1,3.13.51,6.52,6.52,0,0,1,2.23,1.37,5.65,5.65,0,0,1,1.35,2,6.73,6.73,0,0,1,.44,2.45,6.87,6.87,0,0,1-.31,2.09,5.79,5.79,0,0,1-.94,1.79,6,6,0,0,1-1.56,1.38,6.64,6.64,0,0,1-2.2.85l5.22,8.42h-3.72l-5-8.18Zm5.25-2.83a3.53,3.53,0,1,0,0-7h-5.25v7.07Z"></path><path class="cls-1" d="M458.11,246.24H452l-4.95-8.18h-2.55v8.18H439V223.35H449a9.84,9.84,0,0,1,3.48.58,7.36,7.36,0,0,1,2.58,1.59,6.57,6.57,0,0,1,1.58,2.38,7.82,7.82,0,0,1,.51,2.81,8.13,8.13,0,0,1-.35,2.39,6.73,6.73,0,0,1-2.94,3.72,7.22,7.22,0,0,1-1.18.59Zm-5-2h1.37l-5-8.1,1.38-.29a6,6,0,0,0,1.88-.73,4.84,4.84,0,0,0,1.3-1.15,4.57,4.57,0,0,0,.78-1.48,5.72,5.72,0,0,0,.26-1.78,5.66,5.66,0,0,0-.38-2.09,4.43,4.43,0,0,0-1.1-1.67,5.54,5.54,0,0,0-1.9-1.15,7.7,7.7,0,0,0-2.77-.45H441v18.89h1.49v-8.18h5.68Zm-10.63-9v-9.07h6.25a4.53,4.53,0,1,1,0,9Zm2-7.07v5.06l4.25,0a2.65,2.65,0,0,0,2.05-.7,2.78,2.78,0,0,0,0-3.64,2.65,2.65,0,0,0-2.05-.7Z"></path><path class="cls-1" d="M479.46,245.24H476l-8.26-20.89h3.52l6.14,15.49.17.47a4.15,4.15,0,0,1,.16.63,5.8,5.8,0,0,1,.16-.63l.17-.47,6.11-15.49h3.55Z"></path><path class="cls-1" d="M477.76,246.49l-.05-.25h-2.36l-9.05-22.89H472l5.79,14.6,5.76-14.6h5.71l-9.09,22.89h-2.33Zm.41-2.25h.61l7.5-18.89h-1.4l-6,15.29c-.05.15-.09.31-.13.48Zm-1.46,0h.64l-.57-3.12a2.42,2.42,0,0,0-.13-.48l-.17-.49-5.87-14.8h-1.37Z"></path><path class="cls-1" d="M500.49,245.24V224.35H504v20.89Z"></path><path class="cls-1" d="M505,246.24h-5.49V223.35H505Zm-3.49-2H503V225.35h-1.49Z"></path><path class="cls-1" d="M532.71,230.35a4.07,4.07,0,0,0-.54-1.24,4.74,4.74,0,0,0-1-1.1,5.21,5.21,0,0,0-1.54-.81,6.62,6.62,0,0,0-2.07-.31,5.66,5.66,0,0,0-2.82.63,4.79,4.79,0,0,0-1.79,1.7,7.07,7.07,0,0,0-.94,2.52,17.42,17.42,0,0,0,0,6.11,7.07,7.07,0,0,0,.94,2.52,4.79,4.79,0,0,0,1.79,1.7,5.66,5.66,0,0,0,2.82.63,6.34,6.34,0,0,0,2.07-.31,5.21,5.21,0,0,0,1.54-.81,4.55,4.55,0,0,0,1-1.1,4.07,4.07,0,0,0,.54-1.24h3.4a7.18,7.18,0,0,1-.73,2.36,6.44,6.44,0,0,1-1.63,2,8.5,8.5,0,0,1-2.59,1.4,11.4,11.4,0,0,1-3.64.53,10.41,10.41,0,0,1-4.48-.85,7.64,7.64,0,0,1-2.88-2.29,9,9,0,0,1-1.53-3.4,19.78,19.78,0,0,1,0-8.39,9,9,0,0,1,1.53-3.4,7.64,7.64,0,0,1,2.88-2.29,10.41,10.41,0,0,1,4.48-.85,11.4,11.4,0,0,1,3.64.53,8.31,8.31,0,0,1,2.59,1.41,6.15,6.15,0,0,1,1.63,2,7.3,7.3,0,0,1,.73,2.34Z"></path><path class="cls-1" d="M527.52,246.53a11.44,11.44,0,0,1-4.91-.94,8.63,8.63,0,0,1-3.24-2.6,9.92,9.92,0,0,1-1.72-3.78,21,21,0,0,1,0-8.83,9.92,9.92,0,0,1,1.72-3.78,8.71,8.71,0,0,1,3.24-2.6,11.59,11.59,0,0,1,4.91-.94,12.22,12.22,0,0,1,4,.59,9.1,9.1,0,0,1,2.91,1.58,7.25,7.25,0,0,1,1.88,2.33,8,8,0,0,1,.83,2.67l.14,1.12h-5.32l-.19-.77a3.12,3.12,0,0,0-.4-.93,3.51,3.51,0,0,0-.79-.85,4.2,4.2,0,0,0-1.25-.65,5.36,5.36,0,0,0-1.74-.26,4.77,4.77,0,0,0-2.33.5,3.81,3.81,0,0,0-1.43,1.36,6.21,6.21,0,0,0-.81,2.17,16.66,16.66,0,0,0,0,5.75,6.21,6.21,0,0,0,.81,2.17,3.81,3.81,0,0,0,1.43,1.36,4.77,4.77,0,0,0,2.33.5,5.36,5.36,0,0,0,1.74-.26,4.2,4.2,0,0,0,1.25-.65,3.32,3.32,0,0,0,.79-.85,3.12,3.12,0,0,0,.4-.93l.19-.77h5.32l-.14,1.12a7.86,7.86,0,0,1-.83,2.69,7.28,7.28,0,0,1-1.88,2.31,9,9,0,0,1-2.91,1.58A12.22,12.22,0,0,1,527.52,246.53Zm0-21.47a9.48,9.48,0,0,0-4,.75,6.75,6.75,0,0,0-2.51,2,8.15,8.15,0,0,0-1.36,3,18.93,18.93,0,0,0,0,7.93,8.15,8.15,0,0,0,1.36,3,6.66,6.66,0,0,0,2.51,2,9.48,9.48,0,0,0,4,.75,10.19,10.19,0,0,0,3.31-.48,7.15,7.15,0,0,0,2.28-1.23,5.37,5.37,0,0,0,1.38-1.68,5.87,5.87,0,0,0,.37-.9h-1.44a5.13,5.13,0,0,1-.4.77,5.34,5.34,0,0,1-1.25,1.36,6.28,6.28,0,0,1-1.82,1,7.24,7.24,0,0,1-2.4.37,6.72,6.72,0,0,1-3.31-.75,6,6,0,0,1-2.15-2A8.21,8.21,0,0,1,521,238a18.3,18.3,0,0,1,0-6.49,8.21,8.21,0,0,1,1.07-2.86,6,6,0,0,1,2.15-2.05,6.72,6.72,0,0,1,3.31-.75,7.24,7.24,0,0,1,2.4.37,6.28,6.28,0,0,1,1.82,1,5.13,5.13,0,0,1,1.24,1.36,4.41,4.41,0,0,1,.41.77h1.44a6.26,6.26,0,0,0-.38-.89,5.14,5.14,0,0,0-1.37-1.69,7.15,7.15,0,0,0-2.28-1.23A10.19,10.19,0,0,0,527.52,225.06Z"></path><path class="cls-1" d="M553.62,233h10.32v2.8H553.62v6.62h10.89v2.81H550.13V224.35h14.38v2.81H553.62Z"></path><path class="cls-1" d="M565.51,246.24H549.13V223.35h16.38v4.81H554.62V232h10.32v4.8H554.62v4.62h10.89Zm-14.38-2h12.38v-.81H552.62v-8.62h10.32V234H552.62v-7.85h10.89v-.81H551.13Z"></path><path class="cls-1" d="M580.85,239.24a3.29,3.29,0,0,0,1.57,2.58,5.24,5.24,0,0,0,1.56.66,8,8,0,0,0,1.94.22,5.82,5.82,0,0,0,3.52-.94,2.84,2.84,0,0,0,1.29-2.37,2.1,2.1,0,0,0-.56-1.51,4.38,4.38,0,0,0-1.47-1,15.59,15.59,0,0,0-2.09-.67l-2.39-.58c-.81-.2-1.61-.43-2.38-.7a8.68,8.68,0,0,1-2.09-1,4.92,4.92,0,0,1-1.48-1.6,4.63,4.63,0,0,1-.55-2.36,5.29,5.29,0,0,1,.61-2.58,5.48,5.48,0,0,1,1.67-1.85,8,8,0,0,1,2.48-1.1,11.76,11.76,0,0,1,3-.37,12.07,12.07,0,0,1,3.37.44,7.65,7.65,0,0,1,2.55,1.29,6,6,0,0,1,1.64,2,6.73,6.73,0,0,1,.67,2.58h-3.4a3.86,3.86,0,0,0-.42-1.31,3.56,3.56,0,0,0-.91-1.11,4.62,4.62,0,0,0-1.43-.76,6.48,6.48,0,0,0-2-.28,6.77,6.77,0,0,0-1.58.18,4.66,4.66,0,0,0-1.31.52,2.56,2.56,0,0,0-.89.87,2.18,2.18,0,0,0-.33,1.2,2,2,0,0,0,.56,1.47,5,5,0,0,0,1.48,1,13.16,13.16,0,0,0,2.09.68c.78.19,1.58.39,2.39.61s1.6.47,2.38.75a8.56,8.56,0,0,1,2.09,1.07,5.25,5.25,0,0,1,1.48,1.63,4.72,4.72,0,0,1,.56,2.37,5.36,5.36,0,0,1-.67,2.7,5.83,5.83,0,0,1-1.85,2,8.74,8.74,0,0,1-2.8,1.23,14,14,0,0,1-3.51.41,12.48,12.48,0,0,1-3.56-.47,8.17,8.17,0,0,1-2.64-1.32,5.72,5.72,0,0,1-1.66-2,6.22,6.22,0,0,1-.64-2.52Z"></path><path class="cls-1" d="M585.71,246.53a13.09,13.09,0,0,1-3.85-.52,9,9,0,0,1-3-1.48,6.85,6.85,0,0,1-1.94-2.32,7.18,7.18,0,0,1-.75-2.93l0-1h5.58l.1.9A2.3,2.3,0,0,0,583,241a4.33,4.33,0,0,0,1.27.53,6.89,6.89,0,0,0,1.69.19,4.88,4.88,0,0,0,2.93-.75,1.83,1.83,0,0,0,.88-1.56,1.1,1.1,0,0,0-.28-.82,3.57,3.57,0,0,0-1.14-.74,14.81,14.81,0,0,0-1.94-.62l-2.38-.58a25.32,25.32,0,0,1-2.48-.73,9.57,9.57,0,0,1-2.33-1.16,5.9,5.9,0,0,1-1.77-1.92,5.61,5.61,0,0,1-.69-2.86,6.15,6.15,0,0,1,2.71-5.25,9,9,0,0,1,2.79-1.25,13,13,0,0,1,3.29-.4,12.54,12.54,0,0,1,3.65.49,8.72,8.72,0,0,1,2.89,1.45,7.07,7.07,0,0,1,1.91,2.32,7.54,7.54,0,0,1,.78,3l.06,1.06h-5.34l-.11-.87a3,3,0,0,0-.32-1,2.43,2.43,0,0,0-.65-.79,3.48,3.48,0,0,0-1.12-.59,6,6,0,0,0-3-.08,3.58,3.58,0,0,0-1,.41,1.65,1.65,0,0,0-.57.54,1.31,1.31,0,0,0-.17.67,1,1,0,0,0,.27.76,3.82,3.82,0,0,0,1.18.76,10.43,10.43,0,0,0,1.91.63c.8.19,1.6.4,2.42.62s1.65.48,2.46.77a9,9,0,0,1,2.33,1.2,6.36,6.36,0,0,1,1.76,1.93,5.61,5.61,0,0,1,.7,2.88,6.35,6.35,0,0,1-.8,3.19,6.9,6.9,0,0,1-2.15,2.32,10,10,0,0,1-3.12,1.37A15.57,15.57,0,0,1,585.71,246.53Zm-7.35-6.29a4.76,4.76,0,0,0,1.76,2.71,7.19,7.19,0,0,0,2.32,1.15,11.27,11.27,0,0,0,3.27.43,13.43,13.43,0,0,0,3.26-.38,7.88,7.88,0,0,0,2.49-1.08,5,5,0,0,0,1.54-1.66,4.22,4.22,0,0,0,.54-2.2,3.65,3.65,0,0,0-.43-1.87,4.3,4.3,0,0,0-1.19-1.32,7.58,7.58,0,0,0-1.84-.94c-.76-.27-1.54-.51-2.32-.72s-1.58-.42-2.35-.61a13.32,13.32,0,0,1-2.26-.74,5.7,5.7,0,0,1-1.78-1.18,3,3,0,0,1-.86-2.17,3.23,3.23,0,0,1,.48-1.74,3.73,3.73,0,0,1,1.22-1.18,5.58,5.58,0,0,1,1.6-.64,7.9,7.9,0,0,1,4.08.13,5.21,5.21,0,0,1,1.75.93,4.62,4.62,0,0,1,1.17,1.41,5.13,5.13,0,0,1,.32.78h1.45a4.76,4.76,0,0,0-.41-1.13,4.85,4.85,0,0,0-1.36-1.65,6.8,6.8,0,0,0-2.22-1.11,11.8,11.8,0,0,0-5.86-.06,6.67,6.67,0,0,0-2.16,1,4.17,4.17,0,0,0-1.85,3.6,3.66,3.66,0,0,0,.42,1.86,3.77,3.77,0,0,0,1.18,1.27,7.2,7.2,0,0,0,1.84.92c.75.26,1.52.49,2.3.68l2.39.58a14.61,14.61,0,0,1,2.23.72,5.3,5.3,0,0,1,1.82,1.2,3.08,3.08,0,0,1,.83,2.2,3.85,3.85,0,0,1-1.7,3.18,6.83,6.83,0,0,1-4.11,1.13,9.45,9.45,0,0,1-2.18-.25,6.14,6.14,0,0,1-1.86-.79,4.43,4.43,0,0,1-1.38-1.38,4.25,4.25,0,0,1-.47-1Z"></path><path class="cls-1" d="M626.37,245.24V224.35h3.49v20.89Z"></path><path class="cls-1" d="M630.86,246.24h-5.49V223.35h5.49Zm-3.49-2h1.49V225.35h-1.49Z"></path><path class="cls-1" d="M662.11,245.24h-3.76L648.92,231c-.2-.28-.36-.53-.49-.75s-.23-.41-.31-.57v15.52h-3.31V224.35h3.75l9.43,14.2c.2.28.36.53.49.75s.24.41.32.57V224.35h3.31Z"></path><path class="cls-1" d="M663.11,246.24h-5.3l-8.69-13.1v13.1h-5.31V223.35h5.29l8.7,13.1v-13.1h5.31Zm-4.23-2h2.23V225.35H659.8v18.78l-1.9-3.82a5.66,5.66,0,0,0-.28-.5c-.11-.2-.26-.42-.44-.68L648,225.35h-2.22v18.89h1.31V225.45l1.89,3.83c.07.14.17.31.28.5s.27.42.45.67Z"></path><path class="cls-1" d="M690.86,230.35a4.3,4.3,0,0,0-.53-1.24,4.58,4.58,0,0,0-1-1.1,5.28,5.28,0,0,0-1.53-.81,6.64,6.64,0,0,0-2.08-.31,5.71,5.71,0,0,0-2.82.63,4.87,4.87,0,0,0-1.79,1.7,7.26,7.26,0,0,0-.94,2.52,18.08,18.08,0,0,0,0,6.11,7.26,7.26,0,0,0,.94,2.52,4.87,4.87,0,0,0,1.79,1.7,5.71,5.71,0,0,0,2.82.63,6.36,6.36,0,0,0,2.08-.31,5.28,5.28,0,0,0,1.53-.81,4.4,4.4,0,0,0,1-1.1,4.3,4.3,0,0,0,.53-1.24h3.4a7,7,0,0,1-.73,2.36,6.41,6.41,0,0,1-1.62,2,8.44,8.44,0,0,1-2.6,1.4,11.36,11.36,0,0,1-3.64.53,10.33,10.33,0,0,1-4.47-.85,7.56,7.56,0,0,1-2.88-2.29,8.89,8.89,0,0,1-1.54-3.4,20.22,20.22,0,0,1,0-8.39,8.89,8.89,0,0,1,1.54-3.4,7.56,7.56,0,0,1,2.88-2.29,10.33,10.33,0,0,1,4.47-.85,11.36,11.36,0,0,1,3.64.53,8.25,8.25,0,0,1,2.6,1.41,6.12,6.12,0,0,1,1.62,2,7.06,7.06,0,0,1,.73,2.34Z"></path><path class="cls-1" d="M685.67,246.53a11.39,11.39,0,0,1-4.9-.94,8.66,8.66,0,0,1-3.25-2.6,9.9,9.9,0,0,1-1.71-3.78,21,21,0,0,1,0-8.83,9.9,9.9,0,0,1,1.71-3.78,8.74,8.74,0,0,1,3.25-2.6,11.39,11.39,0,0,1,4.9-.94,12.29,12.29,0,0,1,4,.59,9.13,9.13,0,0,1,2.9,1.58,7.28,7.28,0,0,1,1.89,2.33,8.44,8.44,0,0,1,.83,2.67l.14,1.12h-5.33l-.18-.77a2.91,2.91,0,0,0-.41-.93,3.34,3.34,0,0,0-.79-.86,4.23,4.23,0,0,0-1.24-.64,5.46,5.46,0,0,0-1.75-.26,4.79,4.79,0,0,0-2.33.5,3.89,3.89,0,0,0-1.43,1.36,6,6,0,0,0-.8,2.17,16.66,16.66,0,0,0,0,5.75,6,6,0,0,0,.8,2.17,3.89,3.89,0,0,0,1.43,1.36,4.79,4.79,0,0,0,2.33.5,5.46,5.46,0,0,0,1.75-.26,4.2,4.2,0,0,0,1.25-.65,3.28,3.28,0,0,0,.78-.85,2.91,2.91,0,0,0,.41-.93l.18-.77h5.32l-.13,1.12a8.1,8.1,0,0,1-.84,2.69,7.43,7.43,0,0,1-1.88,2.32,9.12,9.12,0,0,1-2.9,1.57A12.29,12.29,0,0,1,685.67,246.53Zm0-21.47a9.46,9.46,0,0,0-4,.75,6.6,6.6,0,0,0-2.51,2,7.73,7.73,0,0,0-1.36,3,18.93,18.93,0,0,0,0,7.93,7.85,7.85,0,0,0,1.36,3,6.58,6.58,0,0,0,2.51,2,9.46,9.46,0,0,0,4,.75,10.25,10.25,0,0,0,3.32-.48,7.56,7.56,0,0,0,2.28-1.22,5.35,5.35,0,0,0,1.37-1.69,5.92,5.92,0,0,0,.38-.9h-1.44a5.2,5.2,0,0,1-.41.77,5.3,5.3,0,0,1-1.24,1.36,6.21,6.21,0,0,1-1.83,1,7.24,7.24,0,0,1-2.4.37,6.68,6.68,0,0,1-3.3-.75,5.8,5.8,0,0,1-2.15-2,8,8,0,0,1-1.08-2.86,18.89,18.89,0,0,1,0-6.48,8,8,0,0,1,1.08-2.87,5.8,5.8,0,0,1,2.15-2.05,6.68,6.68,0,0,1,3.3-.75,7.24,7.24,0,0,1,2.4.37,6.21,6.21,0,0,1,1.83,1,5.49,5.49,0,0,1,1.24,1.36,5.2,5.2,0,0,1,.41.77H693a6.2,6.2,0,0,0-.37-.89,5.14,5.14,0,0,0-1.37-1.69,7.36,7.36,0,0,0-2.28-1.23A10.25,10.25,0,0,0,685.67,225.06Z"></path><path class="cls-1" d="M708,245.24v-4.15h3.82v4.15Z"></path><path class="cls-1" d="M712.8,246.24H707v-6.15h5.81Zm-3.81-2h1.81v-2.15H709Z"></path></svg>