<svg xmlns="http://www.w3.org/2000/svg" xmlns:xlink="http://www.w3.org/1999/xlink" id="Layer_1" x="0px" y="0px" viewBox="0 0 2522.26 272.16" style="enable-background:new 0 0 2522.26 272.16;" xml:space="preserve"><style type="text/css">	.st0{fill:#A8894D;}	.st1{fill:#80C1C0;}	.st2{fill:#64B3B2;}	.st3{fill:#329A99;}	.st4{fill:#198E8D;}	.st5{fill:#08889E;}	.st6{fill:#0C1319;}	.st7{fill:#FFFFFF;}	.st8{fill:#101010;}</style><g>	<g>		<g>			<polygon class="st4" points="839.93,178.25 939.68,178.25 894.88,51.55    "></polygon>			<path class="st4" d="M531.23,72.21c0-17.73-4.9-31.33-14.7-40.78s-24.38-14.17-43.75-14.17c-13.54,0-27.77,0.82-42.7,2.45v119.7    h51.8C514.78,138,531.23,115.6,531.23,72.21z"></path>			<path class="st4" d="M8.95,2.88v266.4h1190.16V2.88H8.95z M103.53,212.55c0,18.44-3.73,30.75-11.2,36.92    c-7.47,6.19-18.73,9.28-33.78,9.28s-28.41-2.21-40.08-6.65l1.05-2.8c11.2,4.44,22.75,6.65,34.65,6.65    c7.93,0,13.24-3.38,15.92-10.15c2.68-6.76,4.03-17.73,4.03-32.9V17.25h-32.9v-3.5h62.3V212.55z M331.73,227.96    c-20.54,21.47-47.95,32.2-82.25,32.2c-29.63,0-53.9-8.52-72.8-25.55c-9.8-8.86-17.45-21.17-22.92-36.92    c-5.49-15.75-8.23-34.24-8.23-55.47c0-42.46,10.33-74.73,30.98-96.78c20.65-22.05,47.19-33.08,79.63-33.08    c32.43,0,58.27,9.57,77.52,28.7c19.25,19.14,28.88,49.7,28.88,91.7S352.26,206.49,331.73,227.96z M543.83,258.75l-68.6-115.85    h-45.15v115.85h-29.05V16.55c27.06-1.86,50.98-2.8,71.75-2.8c57.63,0,86.45,19.25,86.45,57.75c0,16.33-3.97,30.92-11.9,43.75    c-7.93,12.83-21.58,21.35-40.95,25.55l70,117.95H543.83z M776.75,195.93c-6.88,16.69-16.28,29.46-28.17,38.33    c-23.1,17.27-50.99,25.9-83.65,25.9c-11.43,0-23.45-0.47-36.05-1.4h-17.5V14.1h28c10.26-0.46,20.35-0.7,30.28-0.7    c9.91,0,20.41,1.05,31.5,3.15c11.08,2.1,22.05,6.01,32.9,11.73C744.9,34,754.12,41.35,761.7,50.33    c7.58,8.99,13.7,20.83,18.38,35.52c4.67,14.7,7,32.55,7,53.55S783.63,179.25,776.75,195.93z M968.03,258.75l-27.3-77h-102.2    l-33.25,77h-4.2l104.65-245l3.85-1.75l88.2,246.75H968.03z M1189.58,258.75h-25.55l-131.95-203v203h-4.55v-245h11.9l145.6,226.45    V13.75h4.55V258.75z"></path>			<path class="st4" d="M731.6,44.21c-6.88-7.7-15.22-13.83-25.02-18.38s-17.62-7.17-23.45-7.88c-5.83-0.7-12.6-1.05-20.3-1.05    s-15.17,0.35-22.4,1.05v238c4.9,0.47,11.08,0.7,18.55,0.7c7.46,0,13.07-0.12,16.8-0.35c3.73-0.23,8.86-1.22,15.4-2.97    c6.53-1.75,12.6-4.14,18.2-7.17c5.6-3.03,11.49-7.53,17.67-13.48c6.18-5.95,11.49-13,15.92-21.17    c10.03-19.13,15.05-44.1,15.05-74.9c0-21.93-2.69-40.89-8.05-56.88C744.61,63.75,738.48,51.91,731.6,44.21z"></path>			<path class="st4" d="M255.08,15.85c-23.57,0-42.88,10.5-57.92,31.5s-22.58,51.8-22.58,92.4s7.12,70.24,21.35,88.9    c14.23,18.67,33.19,28,56.88,28c23.68,0,43.05-10.55,58.1-31.68c15.05-21.11,22.58-51.8,22.58-92.05s-7.17-69.83-21.53-88.72    C297.61,25.3,278.65,15.85,255.08,15.85z"></path>		</g>		<g>			<path class="st4" d="M1242.47,16.55c27.06-1.86,50.98-2.8,71.75-2.8c57.63,0,86.45,19.25,86.45,57.75    c0,16.33-3.97,30.92-11.9,43.75c-7.93,12.83-21.58,21.35-40.95,25.55l70,117.95h-32.55l-68.6-115.85h-45.15v115.85h-29.05V16.55z     M1314.22,17.25c-13.54,0-27.77,0.82-42.7,2.45v119.7h51.8c32.9-1.4,49.35-23.8,49.35-67.2c0-17.73-4.9-31.33-14.7-40.78    S1333.59,17.25,1314.22,17.25z"></path>			<path class="st4" d="M1592.12,13.75v3.5h-110.25v105h102.2v3.5h-102.2v129.5h117.95v3.5h-147v-245H1592.12z"></path>			<path class="st4" d="M1639.37,258.75h-4.55v-245h11.9l145.6,226.45V13.75h4.55v245h-25.55l-131.95-203V258.75z"></path>			<path class="st4" d="M1919.71,258.75h-29.05V17.25h-60.55v-3.5h150.5v3.5h-60.9V258.75z"></path>			<path class="st4" d="M1977.81,258.75h-4.2l104.65-245l3.85-1.75l88.2,246.75h-29.75l-27.3-77h-102.2L1977.81,258.75z     M2067.41,51.55l-54.95,126.7h99.75L2067.41,51.55z"></path>			<path class="st4" d="M2334.81,258.75h-133v-245h29.05v241.5h103.95V258.75z"></path>			<path class="st4" d="M2498.96,28.45c-21.24-8.17-41.25-12.25-60.03-12.25c-18.79,0-33.42,3.97-43.92,11.9    c-10.5,7.94-15.75,18.9-15.75,32.9c0,17.04,8.86,30.22,26.6,39.55c7.93,3.97,16.63,7.65,26.08,11.03    c9.45,3.38,18.96,7.17,28.53,11.38c9.56,4.2,18.31,8.99,26.25,14.35c7.93,5.37,14.35,12.78,19.25,22.23    c4.9,9.45,7.35,21.47,7.35,36.05c0,14.58-4.08,27.01-12.25,37.27c-8.17,10.27-18.03,17.21-29.58,20.83    c-11.55,3.62-25.02,5.42-40.42,5.42c-28.7,0-53.2-7.11-73.5-21.35l1.75-2.8c7.7,6.07,17.67,11.02,29.92,14.88    c12.25,3.85,24.79,5.77,37.63,5.77c18.9,0,35.05-4.38,48.48-13.13c13.41-8.75,20.13-21.64,20.13-38.67    c0-18.67-8.87-33.25-26.6-43.75c-7.93-4.67-16.63-8.98-26.08-12.95c-9.45-3.96-18.96-8.1-28.52-12.42    c-9.57-4.31-18.32-9.15-26.25-14.52c-17.74-11.67-26.6-28.23-26.6-49.7c0-17.03,5.71-30.85,17.15-41.48    c11.43-10.61,28.64-15.92,51.63-15.92c22.98,0,46.38,3.97,70.17,11.9L2498.96,28.45z"></path>		</g>	</g></g></svg>