<svg width="203" height="50" viewBox="0 0 203 50" fill="none" xmlns="http://www.w3.org/2000/svg">
<rect width="50" height="50" fill="#181818"/>
<path d="M36.7243 11.8106C36.7243 10.7632 37.5734 9.91406 38.6208 9.91406C39.6682 9.91406 40.5174 10.7632 40.5174 11.8106V12.6662L40.5135 12.7939C40.512 12.8187 40.5103 12.8435 40.5086 12.8683C40.2147 17.0269 36.7541 20.2589 32.5759 20.2589H18.1036C17.0561 20.2589 16.207 19.4098 16.207 18.3623C16.207 17.3149 17.0561 16.4658 18.1036 16.4658H32.5759C34.7523 16.4658 36.5564 14.7892 36.723 12.6269C36.7238 12.6159 36.7243 12.6049 36.7243 12.5938V11.8106Z" fill="white"/>
<path d="M9.91391 18.3623C9.91391 13.9345 13.5034 10.3451 17.9312 10.3451H32.6725C33.8152 10.3451 34.7415 11.2714 34.7415 12.4141C34.7415 13.5567 33.8152 14.483 32.6725 14.483H17.9312C15.7887 14.483 14.0518 16.2199 14.0518 18.3623C14.0518 20.5048 15.7887 22.2416 17.9312 22.2416H31.9398C36.439 22.2416 40.0863 25.889 40.0863 30.3882C40.0863 34.8874 36.439 38.5347 31.9398 38.5347H16.9829C15.8402 38.5347 14.9139 37.6084 14.9139 36.4658C14.9139 35.3231 15.8402 34.3968 16.9829 34.3968H31.9398C34.1537 34.3968 35.9484 32.6021 35.9484 30.3882C35.9484 28.1743 34.1537 26.3796 31.9398 26.3796H17.9312C13.5034 26.3796 9.91391 22.7901 9.91391 18.3623Z" fill="white"/>
<path d="M9.40545 35.8391C9.69929 31.6805 13.1599 28.4485 17.3381 28.4485H31.8105C32.8579 28.4485 33.707 29.2977 33.707 30.3451C33.707 31.3925 32.8579 32.2416 31.8105 32.2416H17.3381C15.1618 32.2416 13.3577 33.9182 13.191 36.0805C13.1902 36.0915 13.1898 36.1026 13.1898 36.1136V36.8968C13.1898 37.9443 12.3407 38.7934 11.2932 38.7934C10.2458 38.7934 9.39667 37.9443 9.39667 36.8968V36.0413L9.40053 35.9136C9.40206 35.8887 9.4037 35.8639 9.40545 35.8391Z" fill="white"/>
<path d="M65.904 16.338C67.38 16.338 68.568 16.71 69.468 17.454C70.38 18.186 70.854 19.194 70.89 20.478L68.046 20.622C68.034 20.046 67.842 19.59 67.47 19.254C67.098 18.918 66.594 18.75 65.958 18.75C65.334 18.75 64.842 18.9 64.482 19.2C64.134 19.488 63.96 19.878 63.96 20.37C63.96 20.85 64.146 21.204 64.518 21.432C64.89 21.648 65.58 21.876 66.588 22.116C68.136 22.512 69.282 22.992 70.026 23.556C70.782 24.12 71.16 24.96 71.16 26.076C71.16 27.432 70.692 28.458 69.756 29.154C68.832 29.85 67.65 30.198 66.21 30.198C64.614 30.198 63.318 29.82 62.322 29.064C61.326 28.308 60.822 27.246 60.81 25.878L63.636 25.734C63.66 26.346 63.912 26.844 64.392 27.228C64.872 27.6 65.478 27.786 66.21 27.786C67.626 27.786 68.334 27.27 68.334 26.238C68.334 25.758 68.118 25.392 67.686 25.14C67.266 24.888 66.558 24.636 65.562 24.384C64.842 24.204 64.26 24.036 63.816 23.88C63.372 23.712 62.916 23.484 62.448 23.196C61.992 22.896 61.656 22.524 61.44 22.08C61.224 21.624 61.116 21.084 61.116 20.46C61.116 19.284 61.53 18.306 62.358 17.526C63.186 16.734 64.368 16.338 65.904 16.338ZM75.5895 24.006L78.5955 20.694H81.7815L78.2715 24.672L82.0335 30H78.8475L76.4175 26.634L75.5895 27.534V30H72.9615V16.014H75.5895V24.006ZM86.1201 34.59H83.2581L85.6341 29.172L81.9981 20.694H84.8961L87.0381 26.238L89.1621 20.694H92.0781L86.1201 34.59ZM95.8445 30H93.2165V16.014H95.8445V30ZM99.4987 16.068C99.9427 16.068 100.315 16.224 100.615 16.536C100.927 16.836 101.083 17.208 101.083 17.652C101.083 18.084 100.927 18.456 100.615 18.768C100.315 19.068 99.9427 19.218 99.4987 19.218C99.0547 19.218 98.6827 19.068 98.3827 18.768C98.0827 18.456 97.9327 18.084 97.9327 17.652C97.9327 17.22 98.0887 16.848 98.4007 16.536C98.7127 16.224 99.0787 16.068 99.4987 16.068ZM100.813 30H98.1847V20.694H100.813V30ZM108.139 20.514C109.231 20.514 110.107 20.85 110.767 21.522C111.439 22.194 111.775 23.124 111.775 24.312V30H109.147V24.816C109.147 24.228 108.997 23.772 108.697 23.448C108.409 23.124 108.013 22.962 107.509 22.962C106.993 22.962 106.573 23.136 106.249 23.484C105.937 23.82 105.781 24.27 105.781 24.834V30H103.153V20.694H105.637V21.648C106.117 20.892 106.951 20.514 108.139 20.514ZM122.686 26.184H116.296C116.32 26.772 116.5 27.234 116.836 27.57C117.184 27.906 117.652 28.074 118.24 28.074C119.176 28.074 119.746 27.732 119.95 27.048L122.596 27.174C122.428 28.062 121.942 28.788 121.138 29.352C120.346 29.916 119.404 30.198 118.312 30.198C116.872 30.198 115.708 29.76 114.82 28.884C113.944 28.008 113.506 26.832 113.506 25.356C113.506 23.868 113.944 22.692 114.82 21.828C115.696 20.952 116.836 20.514 118.24 20.514C119.596 20.514 120.676 20.928 121.48 21.756C122.284 22.572 122.686 23.7 122.686 25.14V26.184ZM118.222 22.566C117.658 22.566 117.202 22.734 116.854 23.07C116.518 23.394 116.332 23.85 116.296 24.438H120.04C120.016 23.85 119.848 23.394 119.536 23.07C119.236 22.734 118.798 22.566 118.222 22.566ZM129.07 16.356C130.414 16.356 131.512 16.692 132.364 17.364C133.216 18.024 133.666 18.936 133.714 20.1L132.04 20.208C131.992 19.452 131.704 18.864 131.176 18.444C130.648 18.012 129.958 17.796 129.106 17.796C128.17 17.796 127.45 18.012 126.946 18.444C126.442 18.876 126.19 19.434 126.19 20.118C126.19 20.85 126.436 21.366 126.928 21.666C127.432 21.966 128.278 22.248 129.466 22.512C130.27 22.704 130.924 22.89 131.428 23.07C131.944 23.25 132.418 23.484 132.85 23.772C133.294 24.048 133.612 24.396 133.804 24.816C134.008 25.224 134.11 25.716 134.11 26.292C134.11 27.576 133.66 28.548 132.76 29.208C131.872 29.856 130.726 30.18 129.322 30.18C127.87 30.18 126.67 29.832 125.722 29.136C124.774 28.44 124.27 27.48 124.21 26.256L125.866 26.166C125.926 26.946 126.28 27.57 126.928 28.038C127.576 28.506 128.374 28.74 129.322 28.74C130.27 28.74 131.026 28.548 131.59 28.164C132.154 27.78 132.436 27.198 132.436 26.418C132.436 26.106 132.376 25.83 132.256 25.59C132.148 25.35 132.01 25.158 131.842 25.014C131.686 24.858 131.428 24.708 131.068 24.564C130.72 24.42 130.402 24.312 130.114 24.24C129.838 24.156 129.424 24.048 128.872 23.916C128.152 23.748 127.576 23.592 127.144 23.448C126.712 23.292 126.268 23.076 125.812 22.8C125.368 22.524 125.038 22.17 124.822 21.738C124.618 21.306 124.516 20.784 124.516 20.172C124.516 19.08 124.906 18.174 125.686 17.454C126.478 16.722 127.606 16.356 129.07 16.356ZM137.276 21.972C138.176 21.096 139.304 20.658 140.66 20.658C142.016 20.658 143.138 21.096 144.026 21.972C144.926 22.836 145.376 23.982 145.376 25.41C145.376 26.838 144.926 27.99 144.026 28.866C143.138 29.742 142.016 30.18 140.66 30.18C139.304 30.18 138.176 29.742 137.276 28.866C136.388 27.99 135.944 26.838 135.944 25.41C135.944 23.982 136.388 22.836 137.276 21.972ZM142.91 22.926C142.322 22.314 141.572 22.008 140.66 22.008C139.748 22.008 138.992 22.314 138.392 22.926C137.804 23.538 137.51 24.366 137.51 25.41C137.51 26.454 137.804 27.288 138.392 27.912C138.992 28.524 139.748 28.83 140.66 28.83C141.572 28.83 142.322 28.524 142.91 27.912C143.51 27.288 143.81 26.454 143.81 25.41C143.81 24.366 143.51 23.538 142.91 22.926ZM149.19 30H147.642V16.014H149.19V30ZM159.571 30H158.095V28.632C157.903 29.052 157.573 29.418 157.105 29.73C156.637 30.03 156.049 30.18 155.341 30.18C154.321 30.18 153.505 29.844 152.893 29.172C152.293 28.488 151.993 27.594 151.993 26.49V20.82H153.541V26.274C153.541 27.03 153.727 27.63 154.099 28.074C154.483 28.506 155.017 28.722 155.701 28.722C156.409 28.722 156.973 28.476 157.393 27.984C157.813 27.492 158.023 26.892 158.023 26.184V20.82H159.571V30ZM165.958 28.722C166.198 28.722 166.498 28.692 166.858 28.632V30.018C166.45 30.09 166.036 30.126 165.616 30.126C164.74 30.126 164.044 29.892 163.528 29.424C163.024 28.944 162.778 28.218 162.79 27.246L162.808 22.17H161.098V20.82H162.808L162.826 17.652H164.392L164.374 20.82H166.84V22.17H164.374L164.338 26.94C164.338 28.128 164.878 28.722 165.958 28.722ZM168.666 16.788C168.87 16.584 169.11 16.482 169.386 16.482C169.662 16.482 169.902 16.584 170.106 16.788C170.31 16.98 170.412 17.22 170.412 17.508C170.412 17.784 170.31 18.024 170.106 18.228C169.902 18.42 169.662 18.516 169.386 18.516C169.098 18.516 168.852 18.42 168.648 18.228C168.456 18.024 168.36 17.784 168.36 17.508C168.36 17.22 168.462 16.98 168.666 16.788ZM170.142 30H168.594V20.82H170.142V30ZM173.737 21.972C174.637 21.096 175.765 20.658 177.121 20.658C178.477 20.658 179.599 21.096 180.487 21.972C181.387 22.836 181.837 23.982 181.837 25.41C181.837 26.838 181.387 27.99 180.487 28.866C179.599 29.742 178.477 30.18 177.121 30.18C175.765 30.18 174.637 29.742 173.737 28.866C172.849 27.99 172.405 26.838 172.405 25.41C172.405 23.982 172.849 22.836 173.737 21.972ZM179.371 22.926C178.783 22.314 178.033 22.008 177.121 22.008C176.209 22.008 175.453 22.314 174.853 22.926C174.265 23.538 173.971 24.366 173.971 25.41C173.971 26.454 174.265 27.288 174.853 27.912C175.453 28.524 176.209 28.83 177.121 28.83C178.033 28.83 178.783 28.524 179.371 27.912C179.971 27.288 180.271 26.454 180.271 25.41C180.271 24.366 179.971 23.538 179.371 22.926ZM188.44 20.658C189.484 20.658 190.336 21 190.996 21.684C191.668 22.368 192.004 23.28 192.004 24.42V30H190.438V24.618C190.438 23.862 190.222 23.256 189.79 22.8C189.37 22.332 188.812 22.098 188.116 22.098C187.396 22.098 186.802 22.344 186.334 22.836C185.878 23.328 185.65 23.928 185.65 24.636V30H184.102V20.82H185.578V22.188C185.818 21.744 186.184 21.378 186.676 21.09C187.168 20.802 187.756 20.658 188.44 20.658ZM197.627 20.676C198.611 20.664 199.391 20.916 199.967 21.432C200.543 21.936 200.885 22.602 200.993 23.43L199.445 23.52C199.325 22.5 198.701 21.996 197.573 22.008C197.009 21.996 196.577 22.11 196.277 22.35C195.977 22.59 195.827 22.92 195.827 23.34C195.827 23.448 195.833 23.544 195.845 23.628C195.869 23.712 195.905 23.79 195.953 23.862C196.001 23.934 196.043 24 196.079 24.06C196.127 24.108 196.199 24.156 196.295 24.204C196.403 24.252 196.487 24.294 196.547 24.33C196.619 24.354 196.721 24.384 196.853 24.42C196.997 24.456 197.111 24.486 197.195 24.51C197.279 24.522 197.411 24.552 197.591 24.6C197.771 24.636 197.909 24.666 198.005 24.69C199.097 24.954 199.901 25.272 200.417 25.644C200.933 26.016 201.191 26.58 201.191 27.336C201.191 28.236 200.879 28.938 200.255 29.442C199.631 29.934 198.785 30.18 197.717 30.18C196.685 30.18 195.851 29.94 195.215 29.46C194.579 28.968 194.201 28.278 194.081 27.39L195.629 27.282C195.773 28.314 196.481 28.83 197.753 28.83C198.329 28.83 198.785 28.716 199.121 28.488C199.469 28.248 199.643 27.906 199.643 27.462C199.643 27.018 199.487 26.706 199.175 26.526C198.875 26.334 198.275 26.13 197.375 25.914C196.931 25.806 196.589 25.722 196.349 25.662C196.109 25.59 195.833 25.488 195.521 25.356C195.209 25.224 194.975 25.08 194.819 24.924C194.675 24.756 194.543 24.54 194.423 24.276C194.315 24.012 194.261 23.706 194.261 23.358C194.261 22.542 194.555 21.888 195.143 21.396C195.743 20.904 196.571 20.664 197.627 20.676Z" fill="#181818"/>
</svg>
