<svg xmlns="http://www.w3.org/2000/svg" xmlns:xlink="http://www.w3.org/1999/xlink" id="Layer_1" data-name="Layer 1" viewBox="0 0 175.07 31.73"><defs><style>.cls-1{fill:none;}.cls-2{fill:#231f20;}.cls-3{clip-path:url(#clip-path);}.cls-4{fill:url(#linear-gradient);}.cls-5{fill:url(#linear-gradient-2);}</style><clipPath id="clip-path"><rect class="cls-1" x="1.26" width="31.23" height="31.21"></rect></clipPath><linearGradient id="linear-gradient" x1="16.88" y1="3.58" x2="16.88" y2="27.26" gradientUnits="userSpaceOnUse"><stop offset="0.06" stop-color="#523300"></stop><stop offset="0.21" stop-color="#754916"></stop><stop offset="0.27" stop-color="#855421"></stop><stop offset="0.28" stop-color="#905e1f"></stop><stop offset="0.34" stop-color="#bf8d14"></stop><stop offset="0.39" stop-color="#e2af0c"></stop><stop offset="0.43" stop-color="#f7c308"></stop><stop offset="0.46" stop-color="#ffcb06"></stop><stop offset="0.53" stop-color="#e7b605"></stop><stop offset="0.67" stop-color="#ab8103"></stop><stop offset="0.85" stop-color="#523300"></stop></linearGradient><linearGradient id="linear-gradient-2" x1="16.88" y1="31.21" x2="16.88" y2="-0.03" gradientUnits="userSpaceOnUse"><stop offset="0.04" stop-color="#4e3300"></stop><stop offset="0.1" stop-color="#826001"></stop><stop offset="0.24" stop-color="#ffcb05"></stop><stop offset="0.24" stop-color="#feca05"></stop><stop offset="0.34" stop-color="#ca9711"></stop><stop offset="0.43" stop-color="#a5731a"></stop><stop offset="0.51" stop-color="#8d5c1f"></stop><stop offset="0.55" stop-color="#855421"></stop><stop offset="0.57" stop-color="#8d5c1f"></stop><stop offset="0.71" stop-color="#dfab0d"></stop><stop offset="0.77" stop-color="#ffcb06"></stop><stop offset="0.84" stop-color="#d09d10"></stop><stop offset="0.93" stop-color="#96651b"></stop><stop offset="0.98" stop-color="#804f20"></stop></linearGradient></defs><title>NEW_COLOUR_Cigar Experience_Vector LOGO_Sept 2023</title><path class="cls-2" d="M45.63,7.38c0,.16.07.53-.16.53s-.32-.34-.41-.55c-.69-1.56-1.89-3-3.47-3-2,0-3.12,2.27-3.12,4.45s1.1,5.51,3.7,5.51c2.12,0,3-2.13,3.41-2.13.06,0,.19.08.19.18a4.45,4.45,0,0,1-4.36,3.1c-4,0-4.62-4.16-4.62-5.44,0-2.73,1.41-6.32,4.85-6.32,1.65,0,2.71,1,3.12,1s.27-.54.46-.54.16,0,.16.1Z"></path><path class="cls-2" d="M49.81,13.37c0,2,1.53,1.25,1.53,1.77,0,.18-.13.25-.44.25-.5,0-1-.07-2.08-.07-.58,0-1.17.07-1.53.07-.12,0-.15-.12-.15-.2,0-.57,1-.14,1-1.69V5.7c0-1.48-1.55-1-1.55-1.59,0-.28.35-.23.47-.23.53,0,1.06.07,1.54.07s1-.07,1.76-.07c.41,0,.48,0,.48.23,0,.55-1,0-1,1.51Z"></path><path class="cls-2" d="M61,7.67c0,.21-.08.29-.34.29s-.3-3.54-3.9-3.54c-1.27,0-3.07,1-3.07,5.1,0,2.23,1,5.19,3.17,5.19,2.46,0,2.5-1.37,2.5-2.31,0-2.54-1.63-1.43-1.63-2.05,0-.47.44-.34.67-.34.65,0,1.27.06,1.92.06s1-.06,1.47-.06c.07,0,.15.06.15.23,0,.7-.94-.18-.94,1.9,0,.66,0,1.12,0,1.35s0,.34-.14.42a8.33,8.33,0,0,1-4.3,1.59c-4,0-4.62-4.16-4.62-5.44,0-2.73,1.41-6.32,4.85-6.32,1.9,0,3,1,3.42,1s.33-.45.54-.45S61,4.7,61,5Z"></path><path class="cls-2" d="M65.68,11.39c-.24,0-.52.07-.84,1.14a5.58,5.58,0,0,0-.28,1.28c0,1.17,1.47.91,1.47,1.35s-.42.23-.71.23-.85-.07-1.28-.07-.81.07-1.2.07c-.2,0-.41,0-.41-.18,0-.37.69-.28,1-1.19l3.7-9.83c.1-.26.17-.57.35-.57s.15,0,.32.52l3.69,10c.44,1.15,1.17.52,1.17,1.05,0,.28-.12.25-.49.25s-.86-.07-1.76-.07c-.6,0-1.1.07-1.5.07-.25,0-.42,0-.42-.2,0-.47,1-.29,1-1.28a3.25,3.25,0,0,0-.25-1.09c-.45-1.27-.52-1.43-.87-1.43Zm2.26-.88c.25,0,.44,0,.44-.14a1.66,1.66,0,0,0-.15-.6L67.11,6.82c-.08-.13,0-.13-.11-.13s-.08,0-.15.2l-1,2.88a1.66,1.66,0,0,0-.15.6c0,.16.19.14.44.14Z"></path><path class="cls-2" d="M74.44,5.93c0-1.82-1.49-1.22-1.49-1.8,0-.17.14-.25.3-.25.63,0,.74.07,1.6.07s1.85-.07,2.76-.07a2.91,2.91,0,0,1,3.26,3,2.65,2.65,0,0,1-.79,2c-.39.38-.79.52-.79.68s1.16,2.46,2.14,4.51a.51.51,0,0,0,.5.26c.13,0,.27-.1.41-.1a.21.21,0,0,1,.2.23c0,.5-.9.86-1.45.86-1.08,0-1.51-1-1.94-2L78,10.85c-.32-.71-.56-.86-1.25-.86s-.64.12-.64.69v2.81c0,1.73,1.35,1.07,1.35,1.65,0,.15-.11.25-.42.25s-.6-.07-1.17-.07c-.74,0-1.42.07-2.11.07-.15,0-.43,0-.43-.28,0-.52,1.1,0,1.1-2Zm1.68,2.91c0,.41.51.41.92.41,2.07,0,2.15-.92,2.15-1.87,0-1.6-.76-2.8-2.14-2.8-.5,0-.93,0-.93,1Z"></path><path class="cls-2" d="M89.75,8.06c0,.7,0,.81.59.81h.86c1.17,0,1.21-1.49,1.49-1.49.09,0,.24,0,.26.4l.09,2.9c0,.21.1.79-.23.79s-.06-1.72-1.48-1.72h-1c-.62,0-.57.19-.57,1.14V13c0,1,0,1.59.93,1.59,3.39,0,3.2-2.13,3.71-2.13.06,0,.15.05.15.36,0,1.26-.8,2.6-1.92,2.6-2.08,0-2.9-.07-3.58-.07-.42,0-1,.07-1.75.07-.18,0-.26-.08-.26-.18,0-.75,1,.13,1-1.85V5.75c0-1.46-1.54-.94-1.54-1.59a.28.28,0,0,1,.3-.28c.56,0,1.54.07,3.63.07,1,0,1.91-.07,3.11-.07a.29.29,0,0,1,.28.31L93.9,5.8c0,.21.08.75-.23.75-.64,0,.42-1.9-2.21-1.9-1.66,0-1.71,0-1.71,1.13Z"></path><path class="cls-2" d="M98.63,10.69A2.94,2.94,0,0,0,99,10a3.44,3.44,0,0,0-.43-.88L97.12,6.5C95.74,4,95,4.71,95,4.11c0-.16.07-.23.31-.23s.78.07,1.82.07,1.37-.07,1.73-.07.29.12.29.2c0,.4-.78.34-.78.92a1.78,1.78,0,0,0,.18.56l1.3,2.5c.07.13.15.29.24.29s.21-.23.32-.39l1.12-1.71c.44-.66.53-.91.53-1.2,0-.71-1-.52-1-.91a.23.23,0,0,1,.28-.26c.64,0,1,.07,1.42.07s.82-.07,1.48-.07c.24,0,.31.08.31.26,0,.38-.88.08-1.89,1.63L101,8.24c-.22.32-.46.62-.46.79s.15.44.39.83L103,13.42c.88,1.51,1.57,1.37,1.57,1.72s-.15.25-.71.25c-.31,0-.64-.08-1.29-.07s-1.15.07-1.57.07c-.2,0-.4,0-.4-.23,0-.49.75-.26.75-.88a1.64,1.64,0,0,0-.33-.92l-1.24-2.1c-.2-.34-.34-.6-.4-.6a3.81,3.81,0,0,0-.43.65l-1.12,1.75a2.75,2.75,0,0,0-.47,1.14c0,.86,1.23.42,1.23,1,0,.13-.09.2-.35.2-.67,0-1.05-.07-1.44-.07s-.88.07-1.32.07-.49,0-.49-.18.76-.33,1.35-1.19Z"></path><path class="cls-2" d="M107.92,13.16c0,2,1.38,1.42,1.38,2,0,.28-.13.25-.32.25-1,0-1.56-.07-1.86-.07-.55,0-1.6.07-1.68.07a.24.24,0,0,1-.29-.25c0-.47,1.1-.11,1.1-2.14V5.85c0-1.72-1.42-1.06-1.42-1.66,0-.1,0-.31.38-.31.09,0,.84.07,1.88.07.19,0,1.16-.05,2.13-.07,1.75,0,3.44.78,3.44,3.16a2.94,2.94,0,0,1-2.89,3.26c-1.34,0-1.41-.41-1.41-.47s0-.31.19-.31a4.51,4.51,0,0,0,.65.1c1.65,0,1.77-1.84,1.78-2.26s-.1-2.8-2.22-2.8c-.62,0-.84.33-.84,1.06Z"></path><path class="cls-2" d="M116.3,8.06c0,.7,0,.81.58.81h.86c1.18,0,1.22-1.49,1.49-1.49.1,0,.25,0,.26.4l.1,2.9c0,.21.09.79-.23.79s-.06-1.72-1.48-1.72h-1c-.63,0-.57.19-.57,1.14V13c0,1-.06,1.59.92,1.59,3.39,0,3.2-2.13,3.72-2.13,0,0,.15.05.15.36,0,1.26-.81,2.6-1.93,2.6-2.07,0-2.89-.07-3.57-.07-.43,0-1,.07-1.75.07-.18,0-.26-.08-.26-.18,0-.75,1,.13,1-1.85V5.75c0-1.46-1.55-.94-1.55-1.59a.28.28,0,0,1,.3-.28c.56,0,1.55.07,3.64.07,1,0,1.91-.07,3.11-.07a.28.28,0,0,1,.27.31l.06,1.61c0,.21.08.75-.23.75-.65,0,.42-1.9-2.22-1.9-1.65,0-1.7,0-1.7,1.13Z"></path><path class="cls-2" d="M123,5.93c0-1.82-1.49-1.22-1.49-1.8,0-.17.13-.25.3-.25.63,0,.74.07,1.6.07s1.84-.07,2.76-.07a2.91,2.91,0,0,1,3.26,3,2.69,2.69,0,0,1-.79,2c-.4.38-.8.52-.8.68S129,12.09,130,14.14a.49.49,0,0,0,.49.26c.14,0,.27-.1.41-.1a.21.21,0,0,1,.2.23c0,.5-.9.86-1.44.86-1.08,0-1.52-1-1.94-2l-1.15-2.57c-.31-.71-.56-.86-1.24-.86s-.64.12-.64.69v2.81c0,1.73,1.35,1.07,1.35,1.65,0,.15-.11.25-.43.25s-.6-.07-1.17-.07c-.74,0-1.42.07-2.1.07-.15,0-.44,0-.44-.28,0-.52,1.11,0,1.11-2Zm1.68,2.91c0,.41.5.41.91.41,2.08,0,2.16-.92,2.16-1.87,0-1.6-.77-2.8-2.15-2.8-.5,0-.92,0-.92,1Z"></path><path class="cls-2" d="M134.77,13.37c0,2,1.53,1.25,1.53,1.77,0,.18-.12.25-.44.25-.5,0-1-.07-2.07-.07-.59,0-1.18.07-1.53.07-.12,0-.15-.12-.15-.2,0-.57,1-.14,1-1.69V5.7c0-1.48-1.54-1-1.54-1.59,0-.28.34-.23.46-.23.54,0,1.07.07,1.55.07s1-.07,1.76-.07c.41,0,.48,0,.48.23,0,.55-1,0-1,1.51Z"></path><path class="cls-2" d="M139.81,8.06c0,.7,0,.81.59.81h.86c1.17,0,1.21-1.49,1.49-1.49.09,0,.24,0,.26.4l.09,2.9c0,.21.1.79-.23.79s-.06-1.72-1.48-1.72h-1c-.63,0-.57.19-.57,1.14V13c0,1-.06,1.59.93,1.59,3.39,0,3.19-2.13,3.71-2.13.06,0,.15.05.15.36,0,1.26-.8,2.6-1.92,2.6-2.08,0-2.9-.07-3.58-.07-.42,0-1,.07-1.75.07-.18,0-.26-.08-.26-.18,0-.75,1,.13,1-1.85V5.75c0-1.46-1.54-.94-1.54-1.59a.28.28,0,0,1,.3-.28c.56,0,1.54.07,3.63.07,1,0,1.91-.07,3.11-.07a.29.29,0,0,1,.28.31L144,5.8c0,.21.08.75-.23.75-.64,0,.42-1.9-2.21-1.9-1.66,0-1.71,0-1.71,1.13Z"></path><path class="cls-2" d="M146.54,7c0-3.12-1.53-2.06-1.53-2.84,0-.15.07-.28.24-.28s.5.07.76.07.71-.07,1.43-.07c.44,0,.28.12.52.42l5.49,7.17c.18.23.34.42.43.42s.11-.19.11-.6V5.88c0-1.48-1.67-1.18-1.67-1.72,0-.12,0-.28.22-.28s.61.07,1.55.07,1.34-.07,1.47-.07.26.16.26.21c0,.49-1.17.1-1.17,1.81V15c0,.36,0,.49-.16.49s-.26-.1-.36-.23l-6.56-8.45c-.1-.13-.18-.21-.25-.21s-.11.12-.11.26V12.4c0,3.12,1.75,2,1.75,2.78,0,.22-.34.21-.52.21-.67,0-1.13-.07-1.61-.07s-.81.07-1.18.07c-.15,0-.42.08-.42-.2,0-.65,1.31-.35,1.31-2Z"></path><path class="cls-2" d="M165.48,7.38c0,.16.07.53-.16.53s-.32-.34-.41-.55c-.68-1.56-1.89-3-3.47-3-2,0-3.11,2.27-3.11,4.45s1.09,5.51,3.7,5.51c2.11,0,3-2.13,3.4-2.13a.21.21,0,0,1,.19.18,4.45,4.45,0,0,1-4.36,3.1c-4,0-4.61-4.16-4.61-5.44,0-2.73,1.4-6.32,4.85-6.32,1.65,0,2.7,1,3.11,1,.26,0,.27-.54.46-.54s.17,0,.17.1Z"></path><path class="cls-2" d="M169.39,8.06c0,.7,0,.81.59.81h.86c1.17,0,1.21-1.49,1.48-1.49.1,0,.25,0,.26.4l.1,2.9c0,.21.09.79-.23.79s-.06-1.72-1.48-1.72h-1c-.63,0-.57.19-.57,1.14V13c0,1-.06,1.59.93,1.59,3.38,0,3.19-2.13,3.71-2.13.06,0,.15.05.15.36,0,1.26-.8,2.6-1.92,2.6-2.08,0-2.9-.07-3.58-.07-.43,0-1,.07-1.75.07-.18,0-.26-.08-.26-.18,0-.75,1,.13,1-1.85V5.75c0-1.46-1.54-.94-1.54-1.59a.27.27,0,0,1,.3-.28c.56,0,1.54.07,3.63.07,1,0,1.91-.07,3.11-.07a.29.29,0,0,1,.28.31l0,1.61c0,.21.08.75-.23.75-.64,0,.42-1.9-2.22-1.9-1.65,0-1.7,0-1.7,1.13Z"></path><path class="cls-2" d="M84.46,21.93c0-2-1-1.31-1-1.8a.15.15,0,0,1,.15-.17c.16,0,.32,0,.48,0s.45,0,.91,0c.27,0,.17.07.33.26l3.46,4.53c.11.14.22.26.27.26s.07-.12.07-.38V21.22c0-.93-1-.75-1-1.09,0-.07,0-.17.13-.17s.39,0,1,0,.84,0,.92,0,.16.1.16.13c0,.31-.73.06-.73,1.14V27c0,.23,0,.31-.1.31a.26.26,0,0,1-.23-.14l-4.14-5.34c-.06-.08-.12-.13-.16-.13s-.07.07-.07.16v3.49c0,2,1.11,1.27,1.11,1.75,0,.15-.22.14-.33.14-.43,0-.72,0-1,0s-.51,0-.74,0-.27.05-.27-.13c0-.41.83-.22.83-1.27Z"></path><path class="cls-2" d="M92.91,26c0,1.26,1,.79,1,1.11,0,.12-.08.16-.28.16s-.64,0-1.31,0c-.37,0-.74,0-1,0s-.1-.07-.1-.13c0-.35.62-.09.62-1.06V21.11c0-.94-1-.65-1-1,0-.17.21-.14.29-.14.34,0,.67,0,1,0s.63,0,1.12,0c.26,0,.3,0,.3.14,0,.35-.65,0-.65.95Z"></path><path class="cls-2" d="M96.31,24.7c-.15,0-.33,0-.53.71a3.54,3.54,0,0,0-.18.81c0,.74.93.58.93.85s-.27.15-.45.15-.53,0-.81,0-.51,0-.76,0-.26,0-.26-.12.44-.17.66-.74l2.34-6.21c.06-.16.1-.36.21-.36s.1,0,.21.33L100,26.4c.27.72.74.32.74.66,0,.18-.08.16-.31.16s-.55,0-1.11,0c-.38,0-.7,0-.95,0s-.27,0-.27-.13.61-.18.61-.81a2.1,2.1,0,0,0-.15-.68c-.29-.8-.33-.9-.56-.9Zm1.43-.56c.15,0,.27,0,.27-.09a1.18,1.18,0,0,0-.09-.38l-.71-1.86c0-.08,0-.08-.07-.08s0,0-.09.12l-.67,1.82a1.18,1.18,0,0,0-.09.38c0,.1.12.09.28.09Z"></path><path class="cls-2" d="M106.84,22.35c0,.13,0,.18-.22.18s-.19-2.23-2.45-2.23c-.81,0-2,.62-2,3.22,0,1.4.61,3.27,2,3.27,1.56,0,1.58-.86,1.58-1.46,0-1.6-1-.9-1-1.29s.27-.22.42-.22c.4,0,.8,0,1.21,0s.62,0,.93,0c0,0,.09,0,.09.15,0,.44-.59-.12-.59,1.2,0,.42,0,.7,0,.85s0,.21-.08.26a5.22,5.22,0,0,1-2.72,1c-2.52,0-2.91-2.63-2.91-3.44,0-1.72.89-4,3.06-4a5.42,5.42,0,0,1,2.15.66c.19,0,.21-.29.35-.29s.13.23.13.39Z"></path><path class="cls-2" d="M109.88,24.7c-.14,0-.32,0-.52.71a3.54,3.54,0,0,0-.18.81c0,.74.93.58.93.85s-.27.15-.45.15-.53,0-.81,0-.51,0-.76,0-.26,0-.26-.12.44-.17.66-.74l2.33-6.21c.06-.16.11-.36.22-.36s.09,0,.21.33l2.32,6.28c.28.72.75.32.75.66,0,.18-.08.16-.31.16s-.55,0-1.12,0c-.38,0-.69,0-.94,0s-.27,0-.27-.13.61-.18.61-.81a1.9,1.9,0,0,0-.16-.68c-.28-.8-.32-.9-.55-.9Zm1.44-.56c.15,0,.27,0,.27-.09a1.18,1.18,0,0,0-.09-.38l-.71-1.86c-.05-.08,0-.08-.07-.08s0,0-.09.12L110,23.67a1.18,1.18,0,0,0-.09.38c0,.1.12.09.27.09Z"></path><path class="cls-2" d="M115.5,21.25c0-1.15-.94-.77-.94-1.14,0-.1.09-.15.19-.15.4,0,.47,0,1,0s1.16,0,1.74,0a1.83,1.83,0,0,1,2.06,1.91,1.71,1.71,0,0,1-.5,1.29c-.25.23-.5.32-.5.43s.73,1.55,1.36,2.84a.31.31,0,0,0,.31.16c.08,0,.17-.06.25-.06a.13.13,0,0,1,.13.14c0,.32-.57.55-.91.55-.68,0-1-.65-1.22-1.24l-.73-1.62c-.2-.45-.35-.55-.78-.55s-.41.07-.41.43V26c0,1.1.86.67.86,1,0,.1-.07.16-.27.16s-.38,0-.74,0-.9,0-1.33,0c-.1,0-.28,0-.28-.18s.7,0,.7-1.28Zm1.06,1.83c0,.26.32.26.58.26,1.31,0,1.36-.57,1.36-1.18,0-1-.48-1.76-1.35-1.76-.32,0-.59,0-.59.61Z"></path><path class="cls-2" d="M123,24.7c-.15,0-.33,0-.53.71a3.54,3.54,0,0,0-.18.81c0,.74.93.58.93.85s-.26.15-.44.15-.54,0-.81,0-.51,0-.76,0-.26,0-.26-.12.44-.17.65-.74l2.34-6.21c.06-.16.1-.36.22-.36s.09,0,.2.33l2.33,6.28c.28.72.74.32.74.66,0,.18-.08.16-.31.16s-.54,0-1.11,0c-.38,0-.7,0-.95,0s-.27,0-.27-.13.62-.18.62-.81a1.9,1.9,0,0,0-.16-.68c-.28-.8-.33-.9-.55-.9Zm1.43-.56c.16,0,.28,0,.28-.09a1,1,0,0,0-.1-.38l-.7-1.86c-.06-.08,0-.08-.07-.08s-.06,0-.1.12l-.66,1.82a1,1,0,0,0-.1.38c0,.1.12.09.28.09Z"></path><g class="cls-3"><path class="cls-4" d="M23.88,20.14a8.44,8.44,0,1,1,.79-8H12.24a4.94,4.94,0,0,0-1.09,3.37H28.72v-.07a11.86,11.86,0,1,0-1,4.72Z"></path><path class="cls-5" d="M28.14,20.14a12.21,12.21,0,1,1,.95-4.72s0,.05,0,.07h3.41a15.59,15.59,0,1,0-.67,4.65Z"></path></g></svg>