<svg xmlns="http://www.w3.org/2000/svg" id="Layer_1" data-name="Layer 1" viewBox="0 0 441.6 381.85"><defs><style>.cls-1{fill:#fff;}</style></defs><title>work place logo heart</title><path class="cls-1" d="M14.22,370.77c-1.36-1.93-.51-3.49.39-5q26.66-46.12,53.31-92.26,32.46-56.26,64.9-112.55,32.63-56.52,65.32-113c6.55-11.33,13.05-22.68,19.63-34,2.32-4,4.37-4,6.67-.06q27.69,47.88,55.32,95.78Q312.88,166.94,346,224.26,381.45,285.64,416.85,347q5.22,9,10.42,18.09c.87,1.52,2.14,3,1.19,4.89s-3.06,1.42-4.75,1.42q-113.28,0-226.56,0-89,0-177.94,0C17.58,371.45,15.88,371.78,14.22,370.77Zm6.7-4.89h400.4L221.12,19.13Z"></path><path class="cls-1" d="M271.05,274v64.39c0,6.36-1.76,8.15-8.13,8.15H189.71c-6.09,0-7.93-1.86-7.94-8,0-6.34,0-12.67,0-19a7.42,7.42,0,0,0-.34-3.37c-.95-.9-2.15-.65-3.26-.66-4,0-8.1,0-12.15-.05-16.75-.28-28.72-12.23-29-29.06-.15-10.07,0-20.15-.06-30.22a8.23,8.23,0,0,0-.56-4.16c-3.44-.62-7-.2-10.45-.31-1.56,0-3.12,0-4.67,0-5.24-.26-7.82-4.37-5.62-9.12C119,235.22,122.51,228,126,220.81c1.74-3.65,3.52-7.29,5.3-10.93a102.8,102.8,0,0,0,7.41-21c8.59-35.49,31.07-57.94,66.75-65.23,47.36-9.67,92.37,23.75,98.7,70.53,4.26,31.41-7.1,56.93-30.51,77.59C272.83,272.48,272,273.14,271.05,274Zm-12.59,60.51c1-1.77.74-3.25.74-4.68,0-18,.18-35.94-.08-53.91-.08-5.51,1.8-9.05,6.08-12.63,21-17.55,31-40,27.35-67.52C287.38,157,251,129.55,212,134.43c-32,4-57.76,28.82-62.61,60.51a41.64,41.64,0,0,1-3.88,12.37c-4.81,9.67-9.38,19.46-14,29.21-.43.89-1.19,1.75-.58,3.26,3.38,0,6.89,0,10.4,0,5.51,0,7.5,2,7.51,7.54,0,12.77,0,25.55,0,38.33,0,10.92,7.22,18.14,18.16,18.24,6.34.06,12.67,0,19,0,5.47,0,7.5,2,7.55,7.53.06,6.44,0,12.88,0,19.32,0,1.21-.28,2.52,1,3.72Z"></path><path class="cls-1" d="M282.81,201a57.47,57.47,0,0,1-15.5,39.61c-4.06,4.46-7,4.5-11.26.26l-71.34-71.35c-4.18-4.18-4.29-7.07.13-11,17.26-15.44,37.16-20,59-12.37s34.43,23.73,38.43,46.51a45,45,0,0,1,.55,4.63C282.88,198.55,282.81,199.8,282.81,201ZM237,165.94c-1-.78-1.69-1.39-2.43-1.94-9.63-7.13-22.62-2.6-24.94,8.8-1.31,6.46.89,12.08,4.93,17.06,5.71,7,13.2,11.95,20.47,17.11,1.61,1.15,3.15.55,4.59-.51,4-3,8.15-5.74,12-8.92,4.73-3.91,9.21-8.17,11.57-14s2.3-11.91-2-17c-3.8-4.55-8.72-7-14.89-5.76C242.7,161.42,239.84,163.47,237,165.94Z"></path><path class="cls-1" d="M236.91,201.45c-7-4.83-14-9.46-19.07-16.41-4.14-5.73-4.18-11.76-.37-15.69,4.05-4.17,9.15-4.59,13.66-.91a33.26,33.26,0,0,1,3.68,3.95c2.41,1,3.64.46,4.66-.83a19.48,19.48,0,0,1,1.91-2.05c4.19-4,8.83-4.63,13-1.82,4.52,3.07,5.91,7.76,3.87,13.15-1.62,4.32-4.75,7.5-8,10.57a97.71,97.71,0,0,1-10.06,7.85C239.13,200,238.09,200.65,236.91,201.45Z"></path></svg>