<?xml version="1.0" encoding="utf-8"?>
<!-- Generator: Adobe Illustrator 23.0.0, SVG Export Plug-In . SVG Version: 6.00 Build 0)  -->
<svg version="1.1" id="Layer_1" xmlns="http://www.w3.org/2000/svg" xmlns:xlink="http://www.w3.org/1999/xlink" x="0px" y="0px"
	 viewBox="0 0 140 60" style="enable-background:new 0 0 140 60;" xml:space="preserve">
<style type="text/css">
	.st0{fill:#808080;}
</style>
<g>
	<path class="st0" d="M21.31,20.75c0-1.48,0-2.95,0-4.42c0.28-0.09,14.87-0.11,15.29-0.02c0.12,0.3,0.14,0.63,0.18,0.95
		c0.15,1.47,0.14,2.94-0.05,4.41c-0.23,1.72-0.7,3.36-1.49,4.91c-1.74,3.41-4.45,5.72-8.04,7c-2.39,0.86-4.86,1.11-7.38,0.89
		c-4.34-0.38-8.01-2.16-10.98-5.35c-2.38-2.56-3.85-5.58-4.37-9.05c-0.61-4.07,0.28-7.84,2.5-11.27c2.35-3.65,5.63-6.1,9.82-7.28
		c1.99-0.56,4.03-0.69,6.09-0.49c3.02,0.29,5.76,1.32,8.21,3.09c0.49,0.36,0.97,0.74,1.4,1.18c0.06,0.06,0.11,0.13,0.19,0.22
		c-1.04,1.09-2.08,2.16-3.1,3.23c-0.17-0.02-0.23-0.13-0.32-0.21c-1.99-1.75-4.29-2.76-6.93-2.99c-4.75-0.43-9.4,2-11.69,6.43
		c-0.91,1.76-1.35,3.64-1.38,5.63c-0.03,2.15,0.41,4.2,1.45,6.08c1.87,3.38,4.73,5.43,8.52,6.11c2.66,0.48,5.23,0.12,7.66-1.07
		c2.93-1.44,4.65-3.81,5.19-7.03c0.05-0.28,0.09-0.55,0.08-0.83c-0.16-0.12-0.34-0.07-0.5-0.07c-3.26,0-6.51,0-9.77,0
		C21.7,20.8,21.52,20.82,21.31,20.75z"/>
	<path class="st0" d="M101.87,32.12c-0.17,0.08-0.25,0.22-0.36,0.33c-1.3,1.39-2.92,2.08-4.8,2.17c-3.6,0.17-6.43-1.33-8.62-4.1
		c-1.35-1.71-2.03-3.69-2.21-5.87c-0.33-3.92,1.58-8.02,5.03-10.22c1.75-1.11,3.67-1.64,5.74-1.52c1.92,0.1,3.6,0.81,4.97,2.18
		c0.07,0.07,0.13,0.18,0.31,0.2c0.01-0.57,0.01-1.13,0.02-1.71c1.49,0,2.93,0,4.38,0c0.11,0.18,0.07,0.37,0.07,0.54
		c0,5.73,0,11.46,0,17.19c0,0.93,0.01,1.85-0.03,2.78c-0.07,1.78-0.42,3.51-1.2,5.13c-1.3,2.68-3.42,4.33-6.32,4.95
		c-1.97,0.43-3.95,0.38-5.89-0.24c-2.21-0.71-3.9-2.11-5.21-4c-0.34-0.49-0.64-1.01-0.91-1.54c-0.05-0.1-0.11-0.19-0.12-0.36
		c1.32-0.56,2.66-1.13,3.99-1.69c0.16,0.11,0.19,0.26,0.25,0.39c0.65,1.26,1.54,2.28,2.84,2.9c1.01,0.49,2.09,0.64,3.2,0.51
		c0.66-0.07,1.3-0.22,1.9-0.51c1.5-0.71,2.38-1.93,2.8-3.51c0.15-0.56,0.22-1.12,0.23-1.7c0.01-0.67,0.01-1.34,0.01-2.01
		C101.93,32.33,101.96,32.23,101.87,32.12z M90.54,24c-0.03,1.68,0.61,3.3,1.6,4.39c1.53,1.69,3.43,2.38,5.67,1.84
		c1.94-0.47,3.23-1.74,3.97-3.57c0.55-1.38,0.64-2.82,0.4-4.28c-0.21-1.23-0.68-2.34-1.51-3.28c-1.16-1.31-2.61-2.04-4.38-1.95
		c-1.78,0.09-3.22,0.88-4.32,2.28C90.95,20.72,90.54,22.21,90.54,24z"/>
	<path class="st0" d="M49.61,34.39c-3.15-0.05-5.86-1.11-7.99-3.46c-1.59-1.75-2.47-3.84-2.71-6.19c-0.24-2.25,0.15-4.38,1.24-6.36
		c1.66-2.99,4.2-4.78,7.58-5.35c2.61-0.44,5.08,0.02,7.37,1.34c2.46,1.42,4.07,3.53,4.76,6.3c0.61,2.41,0.54,4.8-0.4,7.11
		c-1.46,3.55-4.13,5.67-7.89,6.42C50.91,34.33,50.25,34.36,49.61,34.39z M43.52,23.14c-0.01,1.64,0.25,2.77,0.8,3.83
		c1.97,3.77,7.1,4.3,9.78,0.99c0.91-1.13,1.37-2.43,1.45-3.87c0.08-1.49-0.2-2.89-0.99-4.16c-2.23-3.56-6.97-3.65-9.45-0.78
		C44.01,20.42,43.53,21.92,43.52,23.14z"/>
	<path class="st0" d="M136.2,20.95c-4.78,1.97-9.57,3.95-14.36,5.93c0,0.06-0.01,0.1,0,0.13c0.8,1.5,1.94,2.59,3.65,2.97
		c1.68,0.37,3.3,0.21,4.8-0.7c0.74-0.45,1.34-1.06,1.84-1.75c0.07-0.1,0.11-0.22,0.28-0.29c1.21,0.8,2.43,1.61,3.66,2.42
		c-0.04,0.08-0.06,0.12-0.09,0.16c-1.71,2.22-3.85,3.81-6.65,4.34c-3.68,0.7-6.98-0.13-9.75-2.72c-1.61-1.51-2.56-3.4-2.94-5.56
		c-0.41-2.3-0.27-4.58,0.65-6.75c1.46-3.44,4.04-5.56,7.75-6.11c3.72-0.55,6.74,0.8,9.06,3.74c0.54,0.68,0.96,1.44,1.31,2.24
		c0.23,0.54,0.46,1.07,0.69,1.61C136.15,20.69,136.22,20.79,136.2,20.95z M130.68,19.31c-0.09-0.24-0.19-0.4-0.31-0.56
		c-1.18-1.49-2.75-1.97-4.56-1.64c-1.76,0.33-3.06,1.38-4,2.89c-0.55,0.88-0.83,1.84-0.8,2.88c0,0.13-0.02,0.27,0.1,0.4
		C124.29,21.96,127.47,20.64,130.68,19.31z"/>
	<path class="st0" d="M83.41,23.65c0.01,2.44-0.67,4.67-2.16,6.61c-1.65,2.15-3.84,3.46-6.51,3.91c-2.49,0.42-4.89,0.11-7.12-1.11
		c-2.59-1.41-4.29-3.58-5.08-6.41c-0.86-3.1-0.53-6.08,1.19-8.82c1.69-2.69,4.14-4.28,7.28-4.79c2.76-0.44,5.34,0.09,7.7,1.59
		c2.52,1.61,4,3.93,4.54,6.86C83.37,22.21,83.42,22.93,83.41,23.65z M78.82,23.49c-0.01-0.15-0.01-0.44-0.04-0.73
		c-0.04-0.36-0.11-0.72-0.2-1.08c-0.79-2.99-3.5-4.87-6.34-4.57c-1.73,0.18-3.16,0.93-4.18,2.34c-1.64,2.29-1.8,4.78-0.63,7.3
		c0.93,2.02,2.6,3.18,4.82,3.39c2.2,0.21,3.98-0.67,5.3-2.43C78.45,26.52,78.83,25.13,78.82,23.49z"/>
	<path class="st0" d="M109.92,2.04c1.53,0,3.07,0,4.61,0c0.08,0.35,0.08,31.43,0,31.75c-0.29,0.07-4.25,0.09-4.62,0.01
		c-0.01-0.01-0.02-0.02-0.02-0.03c-0.01-0.01-0.02-0.02-0.02-0.03c-0.01-0.06-0.02-0.12-0.02-0.18c0-10.42,0-20.85,0-31.27
		c0-0.04,0-0.07,0.01-0.11c0-0.02,0.01-0.05,0.02-0.07C109.88,2.09,109.9,2.07,109.92,2.04z"/>
	<path class="st0" d="M66.11,50.84c0.65-1.32,1.3-2.63,1.98-4.01c0.69,1.39,1.33,2.69,1.99,4.01c1.45,0.21,2.89,0.42,4.42,0.65
		c-1.1,1.08-2.14,2.1-3.19,3.13c0.24,1.44,0.49,2.87,0.75,4.4c-1.37-0.72-2.66-1.39-3.96-2.07c-1.29,0.68-2.57,1.35-3.92,2.06
		c0.07-0.8,0.23-1.51,0.35-2.22c0.12-0.71,0.24-1.42,0.36-2.17c-1.04-1.02-2.09-2.04-3.2-3.12C63.19,51.27,64.63,51.06,66.11,50.84z
		"/>
	<path class="st0" d="M111.88,50.84c0.65-1.31,1.29-2.61,1.98-4c0.71,1.36,1.33,2.69,1.99,4c1.46,0.21,2.89,0.42,4.35,0.64
		c-0.13,0.29-0.39,0.44-0.58,0.65c-0.2,0.21-0.42,0.41-0.63,0.62c-0.22,0.21-0.44,0.42-0.66,0.63c-0.21,0.2-0.42,0.41-0.63,0.62
		c-0.21,0.21-0.43,0.39-0.63,0.66c0.24,1.4,0.48,2.83,0.73,4.29c-0.35-0.04-0.58-0.24-0.83-0.36c-0.26-0.13-0.52-0.27-0.78-0.41
		c-0.25-0.13-0.5-0.26-0.74-0.39c-0.26-0.14-0.52-0.27-0.78-0.41c-0.26-0.14-0.52-0.27-0.81-0.42c-1.3,0.68-2.6,1.36-3.96,2.07
		c0.26-1.51,0.5-2.95,0.75-4.4c-1.05-1.03-2.09-2.05-3.2-3.13C108.97,51.27,110.41,51.06,111.88,50.84z"/>
	<path class="st0" d="M86.56,54.62c0.24,1.44,0.48,2.86,0.73,4.29c-0.03,0.02-0.05,0.04-0.08,0.06c-0.65-0.32-1.28-0.67-1.93-1
		c-0.64-0.33-1.27-0.67-1.93-1.01c-1.29,0.68-2.58,1.35-3.96,2.07c0.26-1.53,0.5-2.96,0.75-4.4c-1.05-1.03-2.09-2.05-3.19-3.13
		c1.52-0.22,2.94-0.43,4.42-0.65c0.64-1.3,1.3-2.62,1.99-4.01c0.68,1.38,1.33,2.68,1.99,4.01c1.45,0.21,2.89,0.43,4.41,0.65
		C88.69,52.58,87.62,53.56,86.56,54.62z"/>
	<path class="st0" d="M92.63,51.48c1.43-0.21,2.86-0.42,4.32-0.63c0.64-1.3,1.29-2.61,1.97-3.99c0.28,0.47,0.46,0.91,0.68,1.33
		c0.23,0.45,0.44,0.9,0.67,1.34c0.22,0.44,0.43,0.87,0.65,1.31c1.46,0.21,2.9,0.43,4.42,0.65c-1.1,1.07-2.14,2.09-3.2,3.12
		c0.12,0.73,0.25,1.45,0.36,2.17c0.11,0.71,0.28,1.42,0.34,2.22c-1.35-0.71-2.63-1.38-3.92-2.05c-1.31,0.69-2.6,1.36-3.96,2.08
		c0.26-1.51,0.5-2.94,0.75-4.41c-1.04-1.02-2.08-2.04-3.13-3.06C92.61,51.53,92.62,51.51,92.63,51.48z"/>
	<path class="st0" d="M126.24,54.62c-1.05-1.03-2.09-2.05-3.19-3.13c1.51-0.22,2.94-0.43,4.42-0.65c0.64-1.3,1.3-2.61,1.99-4.01
		c0.68,1.38,1.33,2.68,1.99,4.01c1.45,0.21,2.89,0.43,4.41,0.65c-1.05,1.09-2.13,2.07-3.17,3.13c0.2,1.43,0.51,2.86,0.72,4.39
		c-1.37-0.68-2.63-1.39-3.95-2.05c-1.29,0.68-2.58,1.35-3.95,2.07C125.73,57.52,126,56.1,126.24,54.62z"/>
	<path class="st0" d="M12.15,58.73c-0.28,0.08-1.43,0.1-1.9,0.02C9.35,57.39,8.42,56,7.5,54.6c-0.41-0.03-0.81-0.03-1.26,0
		c-0.03,1.39,0.01,2.76-0.02,4.16c-0.55,0.06-1.05,0.03-1.55,0.02c-0.09-0.3-0.11-10.16-0.04-10.7c0.09-0.09,0.2-0.06,0.31-0.06
		c1.16,0,2.32-0.01,3.47,0c1.51,0.02,2.77,0.95,3.17,2.31c0.47,1.6-0.3,3.23-1.84,3.89c-0.13,0.06-0.28,0.08-0.4,0.17
		c-0.03,0.17,0.09,0.26,0.16,0.36c0.81,1.2,1.63,2.4,2.44,3.6C12.03,58.47,12.13,58.58,12.15,58.73z M6.25,53.03
		c0.85-0.01,1.66,0.08,2.45-0.06c0.67-0.12,1.15-0.56,1.29-1.24c0.27-1.24-0.66-2.17-1.69-2.13c-0.57,0.02-1.15,0-1.72,0
		c-0.11,0-0.22-0.02-0.34,0.08C6.25,50.76,6.25,51.87,6.25,53.03z"/>
	<path class="st0" d="M41.89,56.55c0.28-0.89,0.55-1.78,0.83-2.67c0.28-0.89,0.55-1.79,0.84-2.7c0.56-0.06,1.1-0.04,1.68-0.01
		c0.55,1.8,1.1,3.59,1.66,5.39c0.18-0.06,0.17-0.2,0.2-0.3c0.4-1.44,0.8-2.89,1.2-4.33c0.07-0.25,0.11-0.5,0.25-0.76
		c0.53-0.04,1.07-0.03,1.61-0.01c-0.02,0.33-2.18,7.26-2.37,7.63c-0.53,0.04-1.08,0.02-1.67,0.01c-0.57-1.81-1.14-3.62-1.71-5.42
		c-0.03,0-0.05,0-0.08-0.01c-0.32,0.88-0.57,1.79-0.85,2.68c-0.29,0.9-0.57,1.81-0.85,2.73c-0.57,0.05-1.11,0.03-1.69,0.02
		c-0.8-2.54-1.58-5.05-2.37-7.57c0.31-0.1,1.31-0.11,1.73-0.02c0.49,1.77,0.99,3.56,1.49,5.35C41.82,56.54,41.86,56.55,41.89,56.55z
		"/>
	<path class="st0" d="M38.44,55.33c-1.92,0-3.81,0-5.69,0c-0.13,0.75,0.43,1.65,1.25,2.03c0.54,0.25,1.11,0.26,1.68,0.1
		c0.47-0.13,0.71-0.33,1.35-1.08c0.42,0.2,0.85,0.41,1.3,0.63c-0.07,0.22-0.18,0.36-0.29,0.5c-1.02,1.34-2.39,1.77-3.99,1.43
		c-1.58-0.34-2.53-1.39-2.86-2.94c-0.32-1.48-0.03-2.84,1.01-3.99c1.48-1.62,4.13-1.41,5.36,0.01c0.55,0.64,0.84,1.39,0.92,2.23
		C38.5,54.59,38.52,54.93,38.44,55.33z M32.79,53.98c0.04,0.1,0.14,0.09,0.22,0.09c1.03,0.07,3.56,0.02,3.81-0.07
		c-0.01-0.88-0.84-1.6-1.68-1.68C33.96,52.22,33.06,52.85,32.79,53.98z"/>
	<path class="st0" d="M18.28,56.37c0.44,0.21,0.87,0.42,1.28,0.62c0.03,0.15-0.05,0.24-0.11,0.32c-0.89,1.32-2.14,1.86-3.71,1.71
		c-1.86-0.18-3.23-1.66-3.38-3.63c-0.07-1,0.12-1.94,0.66-2.79c1.33-2.09,3.82-2.01,5.14-1.13c0.96,0.64,1.43,1.57,1.57,2.68
		c0.05,0.37,0.09,0.75-0.02,1.12c-0.13,0.09-0.29,0.05-0.43,0.05c-1.62,0-3.24,0-4.86,0c-0.14,0-0.29-0.03-0.43,0.05
		c-0.05,0.81,0.5,1.66,1.32,2.01c0.55,0.23,1.12,0.24,1.68,0.07C17.57,57.27,17.95,56.87,18.28,56.37z M18.1,54.06
		c-0.01-1.03-0.91-1.77-2.07-1.74c-0.99,0.02-1.94,0.88-1.92,1.74C15.43,54.06,16.75,54.06,18.1,54.06z"/>
	<path class="st0" d="M56.44,52.56c-0.48,0.21-0.91,0.4-1.31,0.58c-0.14-0.03-0.17-0.12-0.22-0.19c-0.51-0.66-1.64-0.87-2.35-0.43
		c-0.49,0.31-0.51,0.86-0.04,1.2c0.2,0.14,0.43,0.24,0.66,0.3c0.46,0.12,0.92,0.24,1.38,0.37c0.43,0.12,0.82,0.3,1.19,0.54
		c1.17,0.79,1.1,2.4,0.29,3.2c-0.47,0.46-1.04,0.72-1.67,0.84c-0.67,0.13-1.34,0.11-1.99-0.07c-0.87-0.24-1.51-0.76-1.94-1.55
		c-0.06-0.1-0.13-0.21-0.09-0.39c0.42-0.19,0.88-0.39,1.31-0.58c0.14,0.08,0.17,0.19,0.22,0.29c0.66,1.07,1.94,1.08,2.68,0.71
		c0.57-0.28,0.61-0.97,0.08-1.34c-0.23-0.16-0.5-0.26-0.77-0.33c-0.4-0.11-0.8-0.21-1.2-0.31c-0.51-0.13-0.99-0.34-1.39-0.7
		c-0.97-0.83-0.95-2.3,0.04-3.1c0.68-0.55,1.48-0.73,2.33-0.7c0.58,0.02,1.14,0.14,1.65,0.42C55.8,51.58,56.19,51.96,56.44,52.56z"
		/>
	<path class="st0" d="M24.54,58.78c-0.56,0.03-1.08,0.03-1.58,0c-0.24-0.37-3.03-7.31-3.06-7.64c0.57-0.01,1.14-0.03,1.73,0.02
		c0.69,1.83,1.38,3.65,2.06,5.47c0.03,0,0.06,0,0.09,0c0.73-1.81,1.39-3.65,2.12-5.49c0.57-0.02,1.12-0.01,1.75-0.01
		C26.6,53.72,25.58,56.23,24.54,58.78z"/>
	<path class="st0" d="M29.93,58.78c-0.51,0.02-1,0.03-1.48,0c-0.09-0.3-0.11-7.14-0.02-7.62c0.49-0.06,0.99-0.03,1.49-0.02
		C30,51.45,30.02,58.3,29.93,58.78z"/>
	<path class="st0" d="M29.18,49.99c-0.61,0-1.08-0.47-1.09-1.09c-0.01-0.62,0.45-1.11,1.06-1.11c0.63-0.01,1.11,0.48,1.11,1.1
		C30.26,49.51,29.79,49.99,29.18,49.99z"/>
</g>
</svg>
