<?xml version="1.0" encoding="utf-8"?>
<!-- Generator: Adobe Illustrator 27.0.0, SVG Export Plug-In . SVG Version: 6.00 Build 0)  -->
<svg version="1.1" id="Layer_1" xmlns="http://www.w3.org/2000/svg" xmlns:xlink="http://www.w3.org/1999/xlink" x="0px" y="0px"
	 viewBox="0 0 2556 857.1" style="enable-background:new 0 0 2556 857.1;" xml:space="preserve">
<style type="text/css">
	.st0{fill:#232323;}
	.st1{fill:#FFFFFF;}
	.st2{fill:url(#SVGID_1_);}
	.st3{fill:url(#SVGID_00000006671916729956976130000014819528185767820933_);}
	.st4{fill:url(#SVGID_00000043451315143809965740000004802015889368514208_);}
	.st5{fill:url(#SVGID_00000174559798417566170330000008826512893795150218_);}
	.st6{fill:url(#SVGID_00000166647528664131910250000017550987819773688452_);}
	.st7{fill:url(#SVGID_00000150090875579878805000000016027886410624871302_);}
	.st8{fill:url(#SVGID_00000176742341696751789050000006081981670772619452_);}
	.st9{fill:url(#SVGID_00000103222527801603823790000003518467493401683895_);}
	.st10{fill:url(#SVGID_00000040550487682072929510000015024844821814398630_);}
	.st11{fill:url(#SVGID_00000080190057977366306970000006823783735344019072_);}
	.st12{fill:url(#SVGID_00000145759772826263769170000015023265337879891588_);}
	.st13{fill:url(#SVGID_00000129885895890759449600000000307689738977257366_);}
</style>
<g>
	<linearGradient id="SVGID_1_" gradientUnits="userSpaceOnUse" x1="986.8599" y1="319.5276" x2="1545.389" y2="319.5276">
		<stop  offset="0" style="stop-color:#50A2D4"/>
		<stop  offset="1" style="stop-color:#6EE3D7"/>
	</linearGradient>
	<path class="st2" d="M1511.8,306.1c0-1.3-7.3-2.7-8.4-3.8c-18.7,0-232.9-0.1-251.7-0.1c-5.4,0-10.9-0.2-16.3,0.5
		c-16.1,2.2-29.2,9.7-39.5,22.1l0,0l0,0c-0.4,0.4-0.8,0.7-1.1,1.1c-9.9,12.1-16.7,25.8-21.6,40.5c-7.6,22.7-10.8,46.4-15.1,69.8
		c-1.4,7.9-3,15.7-4.5,23.6c-1-0.4-1-1-1-1.5c-0.9-11.1-1.8-22.1-2.7-33.2c-0.9-11.4-1.8-22.7-2.7-34.1c-1.2-14.4-2.4-28.8-3.6-43.1
		c-0.9-11.4-1.7-22.7-2.7-34.1c-1.3-14.9-2.8-29.8-4.2-44.7c-1.3-13.4-2.5-26.9-4-40.3c-1.9-17.7-4.1-35.3-6-53
		c-1.7-15.8-4-31.5-8.3-46.9c-2.8-10-5.5-20-11.8-28.6c-2.5-3.4-5.2-6.6-9.5-7.7c-10.1-4.5-20.7-1.9-27.5,6.8
		c-2.4,3-4.2,6.3-5.6,9.8c-9.5,25-18.3,50.3-24.9,76.3c-6.3,25.1-11.2,50.6-18.2,75.6c-1.5,5.3-3.2,10.6-5.2,15.8
		c-4.6,12.1-13,20.3-25.6,23.9c-0.5,1-0.3,2-0.3,3.1c0,8.2,0,16.3,0,24.5c0,1.8,0.4,3.9-2.3,4.4c-0.7,0.1-1,1-0.5,1.8
		c5.8,0.1,11.5-0.7,17.1-1.8c15.8-3,27.7-11.3,35.2-25.7c3.2-6.3,5.8-12.8,7.9-19.4c13.9-44.7,26.3-89.9,37.3-135.4
		c0.3-1.3,0-3.3,2-3.4c1.7-0.1,2.7,1.5,3.3,2.9c0.4,0.9,0.8,1.7,0.9,2.7c0.7,7,1.3,14.1,2,21.2c0.9,9.2,1.7,18.5,2.6,27.7h0l0,0
		c0.7,8.3,1.3,16.7,2,25c1.2,13.4,2.4,26.9,3.6,40.3c0.9,10.3,1.8,20.6,2.7,30.9c1.2,13.1,2.4,26.2,3.6,39.4
		c0.9,10.5,1.8,21.1,2.7,31.6c1.2,13.3,2.4,26.7,3.6,40c0.9,10.2,1.8,20.4,2.7,30.6c1.2,13.3,2.3,26.7,3.6,40
		c1.1,11.9,1.5,23.8,3.8,35.5c1.8,9.2,5,17.7,12.1,24.3c9.8,9.1,22.5,9.8,31.7,1.6c4.1-3.7,6.9-8.4,8.9-13.6
		c7-18.1,9.7-37.2,12.6-56.1c2-13,3.6-26.1,5.6-39.1c1.4-9.3,3-18.5,4.6-27.8c0.4-1.5,0.9-3,1.2-4.5c3.6-15.6,8.1-30.9,15.5-45.2
		c6.5-12.6,16.9-18.7,30.9-19.7c7.6-0.5,15.3-0.2,22.9-0.6c1.1-0.4,2.3-0.2,3.4-0.2c10.5,0,20.9,0,31.4,0c4.2,0,240.9-0.2,241-4.3
		C1545.4,294.8,1511.9,314.6,1511.8,306.1z"/>
	<g>
		
			<linearGradient id="SVGID_00000015337619233938337110000004382518450855608460_" gradientUnits="userSpaceOnUse" x1="1283.3696" y1="643.2177" x2="1290.1917" y2="779.6597">
			<stop  offset="0" style="stop-color:#50A2D4"/>
			<stop  offset="1" style="stop-color:#6EE3D7"/>
		</linearGradient>
		<polygon style="fill:url(#SVGID_00000015337619233938337110000004382518450855608460_);" points="1218.4,631.3 1250.5,631.3 
			1286.2,688.6 1321.8,631.3 1353.9,631.3 1353.9,766.8 1324.3,766.8 1324.3,678.3 1286.2,736.2 1285.4,736.2 1247.6,678.9 
			1247.6,766.8 1218.4,766.8 		"/>
		
			<linearGradient id="SVGID_00000080174758490385804650000014757168151222618027_" gradientUnits="userSpaceOnUse" x1="1440.1755" y1="635.3774" x2="1446.9977" y2="771.8194">
			<stop  offset="0" style="stop-color:#50A2D4"/>
			<stop  offset="1" style="stop-color:#6EE3D7"/>
		</linearGradient>
		<path style="fill:url(#SVGID_00000080174758490385804650000014757168151222618027_);" d="M1433,630.3h27.5l58.1,136.5h-31.2
			l-12.4-30.4h-57.3l-12.4,30.4h-30.4L1433,630.3z M1464.4,710.1l-18-44l-18,44H1464.4z"/>
		
			<linearGradient id="SVGID_00000157986810996541586500000012178122858851123112_" gradientUnits="userSpaceOnUse" x1="1591.4573" y1="627.8133" x2="1598.2794" y2="764.2553">
			<stop  offset="0" style="stop-color:#50A2D4"/>
			<stop  offset="1" style="stop-color:#6EE3D7"/>
		</linearGradient>
		<path style="fill:url(#SVGID_00000157986810996541586500000012178122858851123112_);" d="M1539.5,631.3h62
			c17.2,0,30.6,4.8,39.5,13.8c7.5,7.6,11.6,18.2,11.6,31v0.4c0,21.9-11.8,35.6-29.1,42l33.1,48.4h-34.9l-29.1-43.4h-23.4v43.4h-29.8
			V631.3z M1599.6,697.1c14.5,0,22.8-7.7,22.8-19.2v-0.4c0-12.8-8.9-19.4-23.4-19.4h-29.6v38.9H1599.6z"/>
		
			<linearGradient id="SVGID_00000080925659344974116650000014881131809537414071_" gradientUnits="userSpaceOnUse" x1="1736.0979" y1="620.5812" x2="1742.9199" y2="757.0233">
			<stop  offset="0" style="stop-color:#50A2D4"/>
			<stop  offset="1" style="stop-color:#6EE3D7"/>
		</linearGradient>
		<polygon style="fill:url(#SVGID_00000080925659344974116650000014881131809537414071_);" points="1679.6,631.3 1709.4,631.3 
			1709.4,690.5 1764.4,631.3 1800.4,631.3 1745.3,688.8 1803,766.8 1767.1,766.8 1725.1,709.1 1709.4,725.4 1709.4,766.8 
			1679.6,766.8 		"/>
		
			<linearGradient id="SVGID_00000166634906107180251580000017759227276990727583_" gradientUnits="userSpaceOnUse" x1="1867.8794" y1="613.9922" x2="1874.7015" y2="750.4342">
			<stop  offset="0" style="stop-color:#50A2D4"/>
			<stop  offset="1" style="stop-color:#6EE3D7"/>
		</linearGradient>
		<polygon style="fill:url(#SVGID_00000166634906107180251580000017759227276990727583_);" points="1821,631.3 1923.3,631.3 
			1923.3,657.8 1850.6,657.8 1850.6,685.3 1914.5,685.3 1914.5,711.8 1850.6,711.8 1850.6,740.3 1924.2,740.3 1924.2,766.8 
			1821,766.8 		"/>
		
			<linearGradient id="SVGID_00000165937623666436547130000002232319025569694879_" gradientUnits="userSpaceOnUse" x1="1995.394" y1="607.6165" x2="2002.2162" y2="744.0585">
			<stop  offset="0" style="stop-color:#50A2D4"/>
			<stop  offset="1" style="stop-color:#6EE3D7"/>
		</linearGradient>
		<polygon style="fill:url(#SVGID_00000165937623666436547130000002232319025569694879_);" points="1982.4,658.8 1941.1,658.8 
			1941.1,631.3 2053.4,631.3 2053.4,658.8 2012.2,658.8 2012.2,766.8 1982.4,766.8 		"/>
		
			<linearGradient id="SVGID_00000033349518194825574510000012377008941653232305_" gradientUnits="userSpaceOnUse" x1="2087.772" y1="602.9976" x2="2094.594" y2="739.4396">
			<stop  offset="0" style="stop-color:#50A2D4"/>
			<stop  offset="1" style="stop-color:#6EE3D7"/>
		</linearGradient>
		
			<rect x="2077.7" y="631.3" style="fill:url(#SVGID_00000033349518194825574510000012377008941653232305_);" width="29.8" height="135.6"/>
		
			<linearGradient id="SVGID_00000001647692591217354890000011431324351348420005_" gradientUnits="userSpaceOnUse" x1="2196.5645" y1="597.5579" x2="2203.3865" y2="733.9999">
			<stop  offset="0" style="stop-color:#50A2D4"/>
			<stop  offset="1" style="stop-color:#6EE3D7"/>
		</linearGradient>
		<polygon style="fill:url(#SVGID_00000001647692591217354890000011431324351348420005_);" points="2141.4,631.3 2168.9,631.3 
			2232.4,714.7 2232.4,631.3 2261.9,631.3 2261.9,766.8 2236.5,766.8 2170.8,680.7 2170.8,766.8 2141.4,766.8 		"/>
		
			<linearGradient id="SVGID_00000057113271386705730560000003449737816393173656_" gradientUnits="userSpaceOnUse" x1="2347.749" y1="589.9987" x2="2354.571" y2="726.4407">
			<stop  offset="0" style="stop-color:#50A2D4"/>
			<stop  offset="1" style="stop-color:#6EE3D7"/>
		</linearGradient>
		<path style="fill:url(#SVGID_00000057113271386705730560000003449737816393173656_);" d="M2288.4,699.4v-0.4
			c0-38.5,30-70.1,71.1-70.1c24.4,0,39.1,6.6,53.3,18.6l-18.8,22.7c-10.5-8.7-19.7-13.8-35.4-13.8c-21.7,0-38.9,19.2-38.9,42.2v0.4
			c0,24.8,17,43,41.1,43c10.8,0,20.5-2.7,28.1-8.1v-19.4h-30v-25.8h58.9v58.9c-13.9,11.8-33.1,21.5-57.9,21.5
			C2317.5,769.2,2288.4,739.5,2288.4,699.4"/>
	</g>
	
		<linearGradient id="SVGID_00000133496474986974010160000016982122458469245114_" gradientUnits="userSpaceOnUse" x1="67.6728" y1="389.0265" x2="2387.187" y2="365.1492">
		<stop  offset="0" style="stop-color:#50A2D4"/>
		<stop  offset="1" style="stop-color:#6EE3D7"/>
	</linearGradient>
	<path style="fill:url(#SVGID_00000133496474986974010160000016982122458469245114_);" d="M1825.8,319.5h-196.7
		c-3.9,0-7.3-1.5-10-4.4c-2.7-2.9-4.1-6.5-4.1-10.7c0-4.2,1.4-7.8,4.1-10.7c2.7-2.9,6-4.4,10-4.4h351.3v0h112.4h281l112.4-120.9
		h-134.1l0,0h-723.1c-34.9,0-64.6,13.3-89.4,39.9c-24.7,26.6-37.1,58.6-37.1,96.1c0,37.5,12.4,69.5,37.1,96.1
		c24.7,26.6,54.5,39.9,89.4,39.9h196.7c3.9,0,7.3,1.5,10,4.4c2.7,2.9,4.1,6.5,4.1,10.7c0,4.2-1.4,7.8-4.1,10.7
		c-2.7,2.9-6,4.4-10,4.4h-267l-135.9,118.7v-47.8l-273.2,0.3l-26.4-0.3H989.7l-100.2-0.5c17.8-9.2,34.3-21.4,49.6-36.7
		c38.4-38.4,57.6-84.8,57.6-139.1V168.4H884.3v196.7c0,23.2-8.2,43.1-24.7,59.6c-16.5,16.5-36.3,24.7-59.6,24.7h-56.2
		c-23.2,0-43.1-8.2-59.6-24.7c-16.5-16.5-24.7-36.3-24.7-59.6V168.4H547.1v196.7c0,54.3,19.2,100.7,57.6,139.1
		c15.3,15.3,31.8,27.5,49.6,36.7H182.2V421.4H393c34.8,0,64.6-12.4,89.4-37.1c24.7-24.7,37.1-54.5,37.1-89.4
		c0-34.8-12.4-64.6-37.1-89.4c-24.7-24.7-54.5-37.1-89.4-37.1H69.8v372.5v21v29.6h994.9h355.7h2.5h402.9c34.9,0,64.6-13.3,89.4-39.9
		c24.7-26.6,37.1-58.6,37.1-96.1c0-37.5-12.4-69.5-37.1-96.1C1890.4,332.8,1860.6,319.5,1825.8,319.5z M182.2,280.9H393
		c3.9,0,7.2,1.4,10,4.1c2.7,2.7,4.1,6,4.1,10c0,3.9-1.4,7.3-4.1,10c-2.7,2.7-6,4.1-10,4.1H182.2V280.9z"/>
	
		<linearGradient id="SVGID_00000114031312447464962630000011555965665577861010_" gradientUnits="userSpaceOnUse" x1="70.8481" y1="477.4769" x2="2390.3623" y2="453.5995">
		<stop  offset="0" style="stop-color:#50A2D4"/>
		<stop  offset="1" style="stop-color:#6EE3D7"/>
	</linearGradient>
	<polygon style="fill:url(#SVGID_00000114031312447464962630000011555965665577861010_);" points="2092.8,440.4 2373.8,440.4 
		2373.8,319.5 2092.8,319.5 1980.4,319.5 1980.4,591.5 2430,591.5 2430,470.6 2092.8,470.6 	"/>
</g>
</svg>
